<?xml version="1.0" encoding="UTF-8" standalone="no"?>
<!-- Created with Inkscape (http://www.inkscape.org/) -->

<svg
   version="1.1"
   id="svg361"
   width="803.24115"
   height="253.68053"
   viewBox="0 0 803.24111 253.68052"
   sodipodi:docname="지에스25(GS25)로고.ai"
   inkscape:export-filename="gs25i.svg"
   inkscape:export-xdpi="96"
   inkscape:export-ydpi="96"
   xmlns:inkscape="http://www.inkscape.org/namespaces/inkscape"
   xmlns:sodipodi="http://sodipodi.sourceforge.net/DTD/sodipodi-0.dtd"
   xmlns="http://www.w3.org/2000/svg"
   xmlns:svg="http://www.w3.org/2000/svg">
  <defs
     id="defs365">
    <clipPath
       clipPathUnits="userSpaceOnUse"
       id="clipPath377">
      <path
         d="M 0,800 H 800 V 0 H 0 Z"
         id="path375" />
    </clipPath>
  </defs>
  <sodipodi:namedview
     id="namedview363"
     pagecolor="#505050"
     bordercolor="#eeeeee"
     borderopacity="1"
     inkscape:showpageshadow="0"
     inkscape:pageopacity="0"
     inkscape:pagecheckerboard="0"
     inkscape:deskcolor="#505050"
     showgrid="false" />
  <g
     id="g369"
     inkscape:groupmode="layer"
     inkscape:label="Page 1"
     transform="matrix(1.3333333,0,0,-1.3333333,-132.87934,659.08132)">
    <g
       id="g371">
      <g
         id="g373"
         clip-path="url(#clipPath377)">
        <g
           id="g379"
           transform="translate(257.0015,323.457)">
          <path
             d="m 0,0 v 89.264 h -76.835 l 5.384,-33.728 h 31.842 V 22.887 C -47.036,18.854 -54.233,17 -64.331,17 c -31.638,0 -47.545,24.219 -47.545,58.713 0,34.313 15.374,57.689 47.024,57.689 18.9,0 35.084,-6.909 48.88,-15.673 l 6.131,39.579 c -14.631,8.254 -33.49,13.546 -56.084,13.546 -56.617,0 -91.417,-38.482 -91.417,-95.378 0,-56.622 32.16,-94.882 90.355,-94.882 25.258,0 47.853,6.898 66.987,19.406"
             style="fill:#007cff;fill-opacity:1;fill-rule:evenodd;stroke:none"
             id="path381" />
        </g>
        <g
           id="g383"
           transform="translate(406.4072,362.791)">
          <path
             d="m 0,0 c 0,29.217 -15.904,43.031 -55.751,57.67 -22.886,8.746 -27.963,13.268 -27.963,22.618 0,8.504 6.664,14.264 20.513,14.264 14.042,0 31.332,-5.266 47.799,-14.816 l 6.914,38.234 c -15.981,7.707 -31.363,12.228 -55.283,12.228 -35.057,0 -62.691,-18.819 -62.691,-54.194 0,-30.282 15.922,-42.266 52.604,-56.322 25.791,-9.871 31.087,-14.669 31.087,-25.001 0,-10.899 -9.033,-16.479 -22.078,-16.479 -18.317,0 -39.279,6.913 -58.176,16.985 l -6.633,-38.782 c 18.616,-8.492 39.337,-13.78 64.012,-13.78 C -29.209,-57.375 0,-39.87 0,0"
             style="fill:#007cff;fill-opacity:1;fill-rule:evenodd;stroke:none"
             id="path385" />
        </g>
        <g
           id="g387"
           transform="translate(499.1074,371.4062)">
          <path
             d="m 0,0 c 21.162,13.902 49.888,32.002 49.888,66.453 0,37.832 -32.053,55.05 -61.822,55.05 -44.421,0 -62.334,-35.31 -64.855,-40.82 l 34.275,-16.038 c 2.131,3.824 11.665,19.076 27.622,19.076 10.293,0 20.341,-8.461 20.341,-21.606 0,-10.599 -11.933,-18.586 -26.795,-28.711 -23.545,-16.052 -52.845,-36.01 -52.845,-77.06 0,-5.381 0.613,-11.36 1.916,-18.763 H 49.934 v 36.743 H -25.453 C -25.453,-17.613 -13.766,-9.045 0,0"
             style="fill:#00d4ea;fill-opacity:1;fill-rule:nonzero;stroke:none"
             id="path389" />
        </g>
        <g
           id="g391"
           transform="translate(644.4014,400.2046)">
          <path
             d="m 0,0 c -9.703,0 -17.598,7.894 -17.598,17.605 0,9.695 7.895,17.598 17.598,17.598 9.71,0 17.612,-7.903 17.612,-17.598 C 17.612,7.894 9.71,0 0,0"
             style="fill:#ffffff;fill-opacity:1;fill-rule:nonzero;stroke:none"
             id="path393" />
        </g>
        <g
           id="g395"
           transform="translate(644.4014,403.7456)">
          <path
             d="m 0,0 c -7.749,0 -14.057,6.308 -14.057,14.064 0,7.749 6.308,14.057 14.057,14.057 7.756,0 14.071,-6.308 14.071,-14.057 C 14.071,6.308 7.756,0 0,0 M 10.729,33.301 C 8.369,34.068 4.215,35.203 0,35.203 c -11.673,0 -21.139,-9.466 -21.139,-21.139 0,-7.94 4.201,-14.723 10.845,-18.471 2.928,-1.644 10.356,-3.882 12.455,-5.001 8.891,-4.752 14.93,-14.118 14.93,-24.894 0,-15.605 -12.639,-28.236 -28.236,-28.236 -14.784,0 -26.917,11.374 -28.112,25.86 l -37.832,-8.232 c 6.162,-31.224 33.693,-54.785 66.742,-54.785 37.571,0 68.036,30.459 68.036,68.029 0,30.233 -19.689,56.1 -46.96,64.967"
             style="fill:#00d4ea;fill-opacity:1;fill-rule:nonzero;stroke:none"
             id="path397" />
        </g>
        <g
           id="g399"
           transform="translate(579.1162,490.3838)">
          <path
             d="m 0,0 -7.45,-84.929 h 38.054 l 4.851,48.262 h 43.702 c 25.86,0 35.256,20.962 35.256,36.667 z"
             style="fill:#00d4ea;fill-opacity:1;fill-rule:nonzero;stroke:none"
             id="path401" />
        </g>
      </g>
    </g>
  </g>
</svg>
