<svg xmlns="http://www.w3.org/2000/svg" xml:space="preserve" x="0px" y="0px" viewBox="0 0 1069 163"><path fill="#fff" d="M248.862 28.519v60.147l-10.658-19.532h-32.639V28.519h-24.646v106.533h24.646V91.107h43.297v43.945h24.646V28.519zm352.371 0v37.953h-9.326V28.519h-17.985v63.92s-11.99 8.656-35.97 9.988V47.162h26.644V31.848h-44.629v90.22c31.307.333 53.955-11.652 53.955-11.652v24.636h17.985V84.449h9.326v50.603h17.985V28.519zm-165.194 88.556V97.766h-19.317v37.287h87.26v-17.978zm28.642-50.271a26.7 26.7 0 0 0-3.358-12.984h8.687v15.314h13.322v5.993H470.01v15.98h13.322v13.982h17.985v-76.57h-17.985v23.97h-12.656V38.507l-23.98-.028-6.026-14.62-.466.474h-20.153l5.841 14.174H401.4v15.314h9.353a26.74 26.74 0 0 0-3.358 12.984c0 15.261 12.824 27.632 28.643 27.632s28.643-12.372 28.643-27.633m-41.299.999c0-6.987 5.667-12.651 12.656-12.651s12.656 5.664 12.656 12.651-5.667 12.651-12.656 12.651-12.656-5.664-12.656-12.651m-80.639-39.284h-49.917v106.533h49.917c22.463 0 40.673-23.848 40.673-53.267s-18.209-53.266-40.673-53.266m-3.956 88.556h-21.315V47.162h21.315c11.404 0 20.649 15.65 20.649 34.956s-9.244 34.957-20.649 34.957"/><path fill="#00823D" d="M47.33 81.635.39 163.286h93.926z"/><path fill="#00AE42" d="m.357.31 93.959 162.976 46.77-81.5z"/><path fill="#38D430" d="M94.49.286.357.31l140.729 81.476z"/><path fill="#fff" d="M684.688 26.576c-24.587 0-44.519 15.302-44.519 34.177s19.932 34.177 44.519 34.177 44.519-15.302 44.519-34.177-19.932-34.177-44.519-34.177m0 52.581c-13.017 0-23.569-8.239-23.569-18.403s10.552-18.403 23.569-18.403 23.569 8.239 23.569 18.403-10.552 18.403-23.569 18.403"/><path fill="#fff" d="M676.831 89.673v21.032H631.73v15.774h105.333v-15.774H696.21V89.673zm144.324-61.154h19.786V76.82h-19.786zm-44.972-1.943c-17.265 0-31.263 11.626-31.263 25.966s13.997 25.966 31.263 25.966 31.263-11.625 31.263-25.966-13.997-25.966-31.263-25.966m0 37.177c-8.268 0-14.971-5.297-14.971-11.831s6.703-11.831 14.971-11.831 14.971 5.297 14.971 11.831-6.703 11.831-14.971 11.831"/><path fill="#fff" d="M822.417 27.875h18.787v48.354h-18.787zm-62.526 54.446h81.313v31.241h-62.526v5.572h65.755v12.603h-84.542v-30.012l62.526-.109v-5.875l-62.526.326zm128.964-53.802V40.09h-15.906V28.519h-15.906v53.802h46.556V28.519zm0 42.751h-15.907V52.866h15.907zm25.994-45.746v56.797h15.519V60.753h9.699v26.778h15.907V25.524h-15.907v26.397h-9.699V25.524zm60.426 3.876v15.774h67.894v21.032h-67.894V81.98h67.894s.776 22.006-10.087 26.096h-67.894v15.579h104.169v-15.19l-15.519-.389s6.789-2.726 5.238-78.676zm-60.232 60.469c-19.244 0-34.844 11.596-34.844 25.9s15.6 25.899 34.844 25.899 34.844-11.596 34.844-25.899-15.6-25.9-34.844-25.9m-.436 37.485c-11.289 0-20.441-5.166-20.441-11.539s9.152-11.539 20.441-11.539 20.441 5.166 20.441 11.539-9.152 11.539-20.441 11.539"/></svg>