<svg xmlns="http://www.w3.org/2000/svg" xml:space="preserve" id="레이어_1" x="0px" y="0px" style="enable-background:new 0 0 1835.3 650.3" version="1.1" viewBox="0 0 1835.3 650.3"><style>.st0{fill:#001f60}</style><path d="M899.1 170c-12.7.6-22.4 11.3-22.4 23.7v24.5c0 1-.8 1.8-1.8 1.8h-16.3c-1 0-1.8-.8-1.8-1.8V199c0-9.9-7.8-18.4-17.9-18.8-10.8-.5-19.7 7.9-19.7 18.3v19.7c0 1-.8 1.8-1.8 1.8H802c-1 0-1.8-.8-1.8-1.8V193c0-12.7-10.6-23.1-23.6-23.1-13 0-23.6 10.3-23.6 23.1v96.1h.1c2.1 37.4 30.3 67.1 69.2 67.1h31.5c38.9 0 67.7-29.6 69.9-67.1h.1V193c0-13.1-11.1-23.6-24.7-23zm-53.9 147h-12.1c-18.2 0-32.9-14.4-32.9-32.1v-24.1c0-1 .8-1.8 1.8-1.8h15.3c1 0 1.8.8 1.8 1.8v19.5c0 9.9 7.8 18.4 17.9 18.8 10.8.5 19.7-7.9 19.7-18.3v-20c0-1 .8-1.8 1.8-1.8h16.3c1 0 1.8.8 1.8 1.8v25.5c.1 17-14 30.7-31.4 30.7zm222.3-125.5v142.2c0 14-11.6 25.3-25.9 25.3-14.3 0-25.9-11.3-25.9-25.3V287c0-1.1-.9-2-2.1-2H1002c-1.1 0-2.1.9-2.1 2v46.7c0 14.3-12.1 25.8-26.9 25.3-14-.5-25-12.2-25-25.9V191.5c0-14.3 12.1-25.8 26.9-25.3 14 .5 25 12.2 25 25.9v47.2c0 1.1.9 2 2.1 2h11.6c1.1 0 2.1-.9 2.1-2v-47.8c0-14 11.6-25.3 25.9-25.3 14.3-.1 25.9 11.3 25.9 25.3zm0 210.9v54.1c0 16.5-14 29.7-30.9 29.1-16.2-.6-28.8-14-28.8-29.8v-29.2c0-1-.8-1.7-1.8-1.7H797.5c-12.7 0-23-10.1-23-22.5s10.3-22.5 23-22.5h246.9c12.8 0 23.1 10.1 23.1 22.5zm281.3 16.1c0 14.8-12.2 26.7-27.3 26.7h-142.1c-27.4 0-49.6-21.7-49.6-48.5V225.1c0-26.8 22.2-48.5 49.6-48.5h124.1c15.1 0 27.3 12 27.3 26.7 0 14.8-12.2 26.7-27.3 26.7h-112.4c-2.8 0-5 2.2-5 4.9V387c0 2.7 2.2 4.9 5 4.9h130.3c15.1-.1 27.4 11.8 27.4 26.6zM1469.3 314c0 13.6-11.2 24.5-25.1 24.5h-20.6v118.1c0 16.1-13.3 29.1-29.7 29.1s-29.7-13-29.7-29.1V193.1c0-16.1 13.3-29.1 29.7-29.1s29.7 13 29.7 29.1v96.3h20.6c13.9 0 25.1 11 25.1 24.6zm198.8-144c-14.2.5-25.3 12.4-25.3 26.3V221c0 1.1-.9 1.9-2 1.9h-79.3c-1.1 0-2-.9-2-1.9v-25.3c0-14.2-11.8-25.7-26.3-25.7s-26.3 11.5-26.3 25.7v86.2c0 34.9 28.9 63.1 64.6 63.1h59.2c35.7 0 64.6-28.3 64.6-63.1v-86.2c.1-14.5-12.2-26.2-27.2-25.7zm-53.6 128.2h-26.7c-15.6 0-28.3-12.4-28.3-27.7v-8.6c0-1.1.9-1.9 2-1.9h79.3c1.1 0 2 .9 2 1.9v8.6c0 15.3-12.6 27.7-28.3 27.7zm220.8-38.7c0 12.9-10.7 23.4-24 23.4h-15.9c-1.1 0-1.9.8-1.9 1.9v40.8c0 16.1-13.3 29.1-29.7 29.1s-29.7-13-29.7-29.1V193.1c0-16.1 13.3-29.1 29.7-29.1s29.7 13 29.7 29.1v41.1c0 1 .9 1.9 1.9 1.9h15.9c13.2 0 24 10.5 24 23.4zm-100.8 103.6h-159.4c-34.6 0-62.7 27.4-62.7 61.3s28.1 61.3 62.7 61.3h159.4c34.6 0 62.7-27.4 62.7-61.3 0-33.8-28.1-61.3-62.7-61.3zm3.4 62c0 9.4-7.8 16.9-17.3 16.9h-132.9c-9.6 0-17.3-7.6-17.3-16.9 0-9.4 7.8-16.9 17.3-16.9h132.9c9.5 0 17.3 7.6 17.3 16.9z" class="st0"/><ellipse cx="320.1" cy="324.5" rx="295.5" ry="300.6" style="fill:#ffe800"/><path d="M221.6 527.7h184.1v80.8H221.6z" style="fill:#fff"/><path d="m273.6 541.9 4.2 12.6h-8.4l4.2-12.6zm-7.8 50.4c-3 0-5.4 2.5-5.4 5.5s2.4 5.5 5.4 5.5c3 0 5.4-2.5 5.4-5.5 0-3.1-2.4-5.5-5.4-5.5zm-26.9-54.5h-6.5v12.1h6.5c3.3 0 5.7-2.7 5.7-6s-2.4-6.1-5.7-6.1zm400.2-212.7c0 179.6-143.1 325.1-319.5 325.1S0 504.7 0 325.1 143.1 0 319.5 0s319.6 145.6 319.6 325.1zM166.3 434.6c-12.5 5.6-23.9 10.8-26.8 12.4-5.6 3.2-11.8 7.5-19.3 16.4-7.3 8.6-19.9 28.3-26.6 53.3 3.3 3.4 17.5 18 21.7 22.1 3.9 3.8 12.1 12.4 14.8 15.2 0 0 .1 0 .1.1l.4-35.9c.5-7.1 6.8-13.5 14.5-13.5h6.2s.8-15.5 4.4-29.8c2.6-10.5 7.2-28.2 10.6-40.3zm74.3 168.7-2.3-1.7c-.5-.5-1.4-.5-2-.1-.9.7-2.2 1.5-4 1.5-3 0-4.9-2.7-4.9-5.1 0-2.9 2-5.2 4.9-5.2 1.7 0 2.6.5 3.5 1.2.6.5 1.6.6 2.2.1.6-.5 2.2-1.7 2.2-1.7.6-.4.6-1.3.1-1.8-1.2-1.2-3.8-3.2-7.8-3.2-5.9 0-10.7 4-10.7 10.7 0 6.7 5.4 10.4 10.7 10.4 4.9 0 7.5-2.7 8.5-4 0-.3 0-.8-.4-1.1zm14.9-58.4v-3.4c0-7.7-7.8-13.9-15.4-13.9H225.5c-2.2 0-4 1.8-4 4v39.6h7.8c1.7 0 3-1.4 3-3v-9.4h7.4c9.6 0 15.8-6.2 15.8-13.9zm21.2 53c0-5.8-4.7-10.6-10.4-10.6h-.7c-5.7 0-10.4 4.7-10.4 10.6s4.7 10.6 10.4 10.6h.7c5.7 0 10.4-4.7 10.4-10.6zm7.8-26.6h11.1L279.2 528h-7.5c-2 0-4.1 1.6-4.8 3.6l-15.1 40h8.8c1.6 0 3.5-1.4 4-3l1.7-5.1h14.4l2.2 6.6c.3.8.9 1.2 1.6 1.2zm22.3 16.9h-14c-1.3 0-2.3 1.1-2.3 2.4v17.9h4.3c.9 0 1.7-.8 1.7-1.7V601h6.3c1.3 0 2.3-1.1 2.3-2.4v-2.2h-8.6v-3.3h8c1.3 0 2.3-1.1 2.3-2.4v-2.5zm5.4-60.5h-5.3c-3 0-5.5 2.4-5.5 5.5v38.2h6.2c2.5 0 4.6-2 4.6-4.6v-39.1zm13 43.6c2.5 0 4.6-2 4.6-4.6v-39.1h-5.3c-3 0-5.5 2.4-5.5 5.5v38.2h6.2zm15.2 16.9h-14.1c-1.3 0-2.3 1.1-2.3 2.4v17.9h4.3c.9 0 1.7-.8 1.7-1.7V601h6.3c1.3 0 2.3-1.1 2.3-2.4v-2.2H330v-3.3h8c1.3 0 2.3-1.1 2.3-2.4v-2.5zm5.3-16.9h12.2l-15.2-21.6c-.4-.6-.4-1.4 0-2l14-19.5h-11.5c-1 0-1.8.5-2.4 1.3l-11.7 16.2c-1 1.5-1 4.8 0 6.3l12.2 18c.5.8 1.4 1.3 2.4 1.3zm9.5-32.5c-.2.2 0 .6.3.6h6.2c1 0 2-.5 2.7-1.2l8.4-9.7c.2-.2 0-.5-.2-.5h-6.4c-1.1 0-2.1.5-2.8 1.3l-8.2 9.5zm17.8 49.4h-14c-1.3 0-2.3 1.1-2.3 2.4v15.7c0 1.2 1 2.2 2.2 2.2h12c1.2 0 2.1-1 2.1-2.1v-2.9h-10.1c-.1 0-.2-.1-.2-.2v-2.4c0-.1.1-.2.2-.2h6c1.3 0 2.3-1.1 2.3-2.4v-2.2h-8.3c-.1 0-.2-.1-.2-.2v-2.4c0-.1.1-.2.2-.2h7.8c1.3 0 2.3-1.1 2.3-2.4v-2.7zm31.5 0h-14c-1.3 0-2.3 1.1-2.3 2.4v15.7c0 1.2 1 2.2 2.2 2.2h12c1.2 0 2.1-1 2.1-2.1v-2.9h-10.1c-.1 0-.2-.1-.2-.2v-2.4c0-.1.1-.2.2-.2h6c1.3 0 2.3-1.1 2.3-2.4v-2.2h-8.3c-.1 0-.2-.1-.2-.2v-2.4c0-.1.1-.2.2-.2h7.8c1.3 0 2.3-1.1 2.3-2.4v-2.7zm1.2-30.7c0-6.2-3.6-10-11.6-12s-9.8-3.1-9.8-4.9 2.1-3 4.6-3c4.6 0 6.6 1.9 8.9 3.1.8.4 1.8.3 2.4-.4l4.4-4.4c.5-.5.5-1.3 0-1.7-2.1-1.9-7.3-6.3-15.5-6.3-10.5 0-15.5 6.3-15.5 13.9 0 7.1 5.2 10.6 13.2 12.3 8 1.7 8.2 4.2 8.2 4.8s0 3.2-5 3.2c-5.2 0-7.6-1.9-9.5-3.2-1.7-1.2-3.7-.8-4.7.3l-3.4 3.3c-.6.5-.6 1.5-.1 2.1 1.9 2.2 7.1 6.8 17.2 6.8 13.4-.1 16.2-7.7 16.2-13.9zm31.9-162c-3.1-.5-13.1-2.1-15.9-2.1-2.8 0-6.3.2-6.3.2s-11.2 18.1-27.4 35.1c-12.9 13.5-26.1 26.1-30.9 31-.2.2-.5 0-.3-.3 5.2-7.6 23.1-33.7 28.7-41.9 5-7.4 18.8-29 25.2-39 0 0 1.1-4.4-3.2-12.2-4.4-7.8-10.7-14.2-12.3-14.2-1.6 0-12.8 20.6-34.3 38.5-11.2 12.6-30.1 24.4-30.1 24.4 8 4.1 17.7 15.1 21.1 24.1 2.4 6.3 3.4 13.3 3.7 17 .1.7-.8 1-1.2.4-1.7-2.6-3.8-6.8-8.5-13-7.3-9.8-17.5-13.4-20.8-14.3-.7-.2-1.5-.5-2.1-1l-3.9-2.6c-.5-.3-1.1-.1-1.4.4-9.6 20.4-10.6 50.3-10.7 58.4 0 .4-.5.4-.6.1-1.1-4.3-3.5-15.7-3.5-36.3 0-11.1 1.3-25.1 1.4-27.1 0-.1-.1-.2-.2-.3-18.6-1.8-28.7-17.3-33.6-23-4.9-5.7-13.3-25.8-13.3-25.8s-6.9 10.9-9.6 14.9c-2.7 4-7.2 11.3-7.2 11.7 0 4.5 7.4 19.4 11.8 26.5 4 6.6 14.7 23.8 16.4 26.6.1.2.3.2.4 0 1.1-2.2 6.8-12.7 15.9-20.4 8.7-7.3 15.3-7.7 17.2-7.6.2 0 .3.2.1.4-15.7 14.1-23.9 28.4-25.5 31.6-1.2 2.3-1.6 4.7-1.6 5.7 0 .3-.3.5-.6.3-22.5-11.6-29-21.6-35.2-29.1-5.5-6.9-11-19.2-12.1-21.7-.1-.3-.4-.4-.6-.3-2.4.7-13.9 4.2-28.8 10.4-1.9 6.9-3.7 14-4.9 19.7-3.6 17.4-5.5 26-7.3 42.2 0 0 26.5 7.9 104.5 7.9 64.3 0 134-7.9 134-7.9s0-18.9 3.3-37.8c1.8-10 6.6-32.8 10.2-49.6zm-171-31.4c2.6 3.5 6.7 9 7.2 9.9 1.3 2 9.1 14.3 16.1 24.8s18.5 19.5 19.4 19.5c.8 0 9.5-4.9 16.6-9.9 6.9-4.8 22.3-16.1 33-32.3.1-.2-.1-.4-.3-.3-4.7 4.3-21.6 18.8-39 19.1-20.5.3-28.3-10.4-30.8-12.4-2.2-1.8-14.9-13.6-21.5-19-.5-.4-1.1.1-.7.6zM578 472c-1.8-3.5-8.6-16-14.6-23.1-5.5-6.4-6.1-7.3-8.8-9.2-2.2-1.6-43.7-21.6-81.3-34.5-2.8 25.3-7.7 72.9-7.7 98.9 4.2-.2 9-.4 11.1-.4 3.8 0 8.7 4.8 8.7 9.9l.3 60.2c37.9-26.1 69.6-61 92.3-101.8zm4.4-8.2c21.4-41.6 33.6-89 33.6-139.3 0-166-132.3-300.6-295.5-300.6S25 158.4 25 324.5c0 63.5 19.4 122.4 52.4 171 1.3-3.5 6.6-16.8 12.9-28.1 7.3-13.1 15.9-22.2 19.9-25.6 4-3.3 19.4-10.1 34.9-16.5 5.5-2.2 18.4-7.5 28.5-11.6 2.7-5.3 7-9.7 12.5-11.9l13-4.4c3-1.3 5.6.1 4.8 4.1.2-.2 15-5.6 18.4-7 .3-.1.6-.4.7-.7 1.7-4.3 4.4-10 8.5-16 4.7-6.8 11.1-14.5 13.9-18.1 2.8-3.6 6.2-6.6 6.2-6.6.7 0 3.2 1.1 4.9 1.6.3.1.5-.3.3-.5-8.4-8.8-20.5-25.1-24.5-46.6 0-.1-.1-.2-.2-.3-1.3-.5-9.3-4.4-14.5-27.2-5.6-24.7-10.8-41.3 2.6-48.2.1 0 .1-.1.1-.2-1.2-1.8-14.4-22.1-14.4-64.9 0-44.9 17-55.3 18.5-56.8s7.2-17.7 11.7-20.7c4.1-2.7 5.3-4.4 22.9-9.6 0 0 11.4-21.1 35.4-21.1 11.6 0 26 2.3 30.3 3 .9.1 1.7 0 2.5-.3l6.7-2.9c3.7-1.6 7.9-1.6 11.6.2 6.2 2.9 16 7.8 22.9 11.9 10.9 6.5 27.3 21.2 34.9 29.5 1.9 2.6 27.6 22.3 29.8 77.5.7 17-6 40-9.5 51 0 .1 0 .2.1.2 2.8-.2 4.9 2.1 4.9 10.4 0 6.7-1 12.7-1.7 15.8-.1.5-.8.4-.8 0-1.4-9-5.7-12.6-7.1-13.6-.1-.1-.3 0-.3.1-1.7 4.3-3.9 11.3-4.6 26 0 .1 0 .3-.1.4l-3.9 5.6c-.2.3-.8.1-.7-.3.5-3.8 1.6-13.9 1.6-26.2 0-15.8-2.1-31.4-2.9-41.4-.8-10-1.7-20-3.2-23.6-1.4-3.4-5.1-11.4-17.9-17.8-1.2-.6-2.2-1.6-2.8-2.8-1.4-2.8-4.6-8.2-10.7-11.7 0 0-7.8-11-53.9-11-41.8 0-55 8.3-57 9.9-.2.2-.4.3-.5.6-.8 1.5-4.1 8.2-4.8 11l1.1-.1c.1 0 .2.1.2.2-.9 1.8-5.7 12.8-5.3 27.6 0 0 .1 0 .1.1 1.2-.3 3-.6 5.3-.6 4.6 0 19.6 3.1 25 3.1h10.4c4.5 0 9.5 5 11 6.7 1.5 1.6.9 3.9.3 4.8-.7.9-3.1 3.9-3.4 5.1-.3.8-.1 2.1-.1 2.8 0 .2-.1.4-.4.4h-2.2c-.2 0-.3-.1-.4-.2-.3-.4-1.5-1.5-6.8-3.7-7.1-3-16.8-2.3-26.3.6-8.7 2.7-7.4 8.6-7.3 9l-.3-1.1c.1.4.2.7.3 1.1 1.4 5.2 2.2 7.4 2.5 8.2.1.2.3.3.5.2 1.5-.8 8.2-3.9 18.1-3.9 10.6 0 21.3 4.2 27.9 10.2.4.4.1 1-.4.9-1.1-.2-2.7-.4-4.6-.6 3.2 2.1 3.3 4 3.1 4.9-.1.2-.3.3-.5.1-2.4-2.7-6.8-4.5-9.7-5.5-.4-.1-.7-.2-1.1-.2-1.1 0-2.1-.1-3.2-.1-7.6 0-18.8 4.8-22.7 6.6-.4.2-.3.7.1.7 1.8.1 4.9.4 7.2 1 3.3.8 4.8 1 9 1 5.7 0 10.8-1.2 13.2-1.8.4-.1.6.4.3.6-1.6 1.1-5.2 3-12.9 4.5-11.8 2.2-18.9 3.2-23.1 3.2-4 0-9-.6-12.9-3.3-.2-.2-.5 0-.5.3.1 1.3.4 4 .4 5.7 0 2.3-1.8 13.3-1.8 16.5 0 3.1 1.7 20.4 13.4 24.9.5.2.6.8.2 1.1-2 1.8-6.8 6.9-6.8 15.3 0 10.7 5.2 17.9 7.8 22.8 2.6 4.9 10.4 12.9 15 16.5s10.4 9.2 13.3 11.9c2.9 2.8 16 16 32.3 16s30.1-9.5 37.3-15 12.2-11.3 15.1-14.9c2.9-3.6 6.6-8.1 10.6-12.5s10.5-10.4 14.4-13.7c3.2-2.7 7-9.9 8.8-14.7.2-.5.8-.3.8.2-.1 4.9-1.2 16-7.4 27.7 0 0 .7 2.8.7 5.5 0 0 .9-.3 1.9 2.1 1 2.5 2.7 5 3.1 6.5.4 1.5 1.5 2 1.9 3.1.3 1.1.6 2.2 2 4.8 1.3 2.5 8.3 17.1 11.4 23.4 5.1 1.7 11.5 3.9 16.9 6.2.1-.3.1-.7.2-1 .6-3 3.8-4.7 6.6-3.6l20.8 8.1c3.6 1.4 6 4.7 6.3 8.5 6.2 2.1 24 8.5 44.9 17.4 25.3 10.8 36.9 17 41.3 20.9 4.6 3.7 13.6 13.8 22.2 31.2zM367.7 221.5c-10.7 0-19.5 3.1-22.6 4.3-.7.3-1.2 1-1.2 1.8v3.5c0 2 1.6 3.5 3.5 3.5h2.1c6 0 10.9-2.4 19.7-2.4 8.8 0 13.2 2.3 15.2 3.9.3.2 2.4.4 3.4.1.1 0 .1 0 .3-.1.2-.1.6-.6.6-.6.2-.2.2-.6.1-.9-2.6-5.7-7.7-13.1-21.1-13.1zm16.2 19.2c-2.5 0-3.2.3-7.3.3-9.1 0-17.4-4.2-22.1-4.2-3.4 0-5.3 1.3-6.2 1.9-.2.1-.1.4.1.5 2.1.2 4.2 1.2 6.1 1.8s9.6 3.6 15 3.6c9 0 13.3-2.1 14.3-2.2.7-.1 3.2 0 4.3.1.2 0 .3-.2.1-.3-.6-.7-2.2-1.5-4.3-1.5zM303.4 337c-2.2-1.9-2.9-3.8-6-6.7-2.9-2.8-6.7-5.1-11.1-6.9-.3-.1-.6.2-.5.5.6 1.5.6 3.3 4.1 7.4 2.8 3.3 7.9 8.9 13.8 8.9h3.9c.2 0 .3-.3.1-.4-1-.5-2.9-1.5-4.3-2.8zm51.6-33.2c-6.8 0-12 2.3-22.9 2.3s-14.1-3.3-25.7-3.3c-10.6 0-13.7 2.2-15.3 2.2-3.8 0-6.4-2.7-7.4-4-.2-.3-.2-.8.1-1 1.1-.8 3.7-2.9 6.6-7.2 2.6-3.8 9.2-4.7 12.4-4.7 2.2 0 3.9-.4 4.7-.6.3-.1.7 0 .9.2 1 .8 3.8 2.6 8.2 2.6 10.9 0 12.3-6.8 20.9-6.8 5.6 0 9.9-1.5 11.9-2.7.9-.5 1.1-1.7.2-2.1-1.4-.7-3.7-1.8-6.9-1.8-5.8 0-7.6 4-15.6 4-6.5 0-11.2-4-12.8-5.5-.3-.3-.8-.2-1 .1-1 1.5-3.8 4.7-8.3 4.7-5.7 0-7.2-2.8-7.2-4.8 0-4.8 5.6-7.2 7.4-7.8.3-.1.7-.1.9.2 1 .9 4 3.5 6.7 4.8.4.2.7-.3.4-.6-1.4-1.6-3.7-4.7-3.8-7.2 0-.8 1.6-1.7 4.2-8.1 2.7-6.3 3.5-18.2 3.5-22.8s-2.2-8-4.5-11.3c-1.4-2.1-2.7-4-3.5-5.4-.3-.6-.8-.6-1.1 0-.6 1.3-1.6 3.2-1.6 5.7 0 3 .9 5.1 1.5 6 .6.9 2.8 2.6 2.8 5.7s-3.8 15-5.7 19.3c-3.1 7.1-10.3 11.1-11.5 14.7s-.8 8.1-2.7 10c-1.8 1.8-8.7 6-11.5 7.4-2.8 1.4-8.5 3.8-8.5 7.5s2.7 12.9 8.1 18.6c5.3 5.7 9.1 8.9 17.7 12.1 3 1.1 6.8 1.9 8.6 2.2 1 .2 2.1-.9 2.5-1.4.1-.1.1-.3 0-.4l-2.3-2.4c-.2-.2 0-.6.3-.5 2.1.9 6.8 2.3 14.8 2.5.6 0 1.2-.5 1.2-1.1v-1.5c0-.4-.3-.8-.8-.9-3.2-.3-12.9-1.1-19.5-6.8-.2-.2-.2-.5.1-.7 1.6-.9 6.6-3.7 11.9-3.7 6.4 0 6.7 1.5 23 1.5 8.8 0 13.6-.7 15.9-1.3.9-.2 1.8.2 2 1.1v.5c0 .5-.3 1.5-.6 1.9-1.1 1.2-3.9 4.2-9.7 7.6-.6.4-.1 1.7.7 1.5 1.6-.4 3.8-1.2 7-2.8 7.7-3.9 7.2-4.7 9.8-6.5 2.3-1.6 4.9-2.9 8-3.2.5-.1.7-.7.3-1-1.8-1.7-7.3-5-14.8-5zm19.6-113.3c-17.3 0-27.3 3.6-30.8 5.1-.8.4-1.1.9-1.4 2.2-.4 2 .1 6.3.1 6.3 0 .5.4 1.3.9 1.3 1.9-.1 6.9-.9 18.6-.9 14.1 0 25.9 2.2 28.9 2.8.4.1.7-.2.7-.6-.1-1.4-.5-4.5-1.9-8.6-1.9-5.8-5.8-7.6-15.1-7.6zm-24.3 72.2c-.4-.1-.7.4-.4.7 2.5 2.5 8.7 8.7 15.6 17.1 8.5 10.3 14 19.1 14.6 24.3.1.4.5.6.8.3 1.5-1.4 4.7-4.8 4.7-9.7.1-6.2-9.3-24-35.3-32.7z" class="st0"/></svg>