<svg xmlns="http://www.w3.org/2000/svg" id="_레이어_1" version="1.1" viewBox="0 0 1000 291.3859863"><defs><linearGradient id="_무제_그라디언트" x1="-372.5592746" x2="-370.7061786" y1="227.1801082" y2="227.1801082" gradientTransform="rotate(135 -4522.026 6244.792)scale(32.484)" gradientUnits="userSpaceOnUse"><stop offset="0" stop-color="#fcb811"/><stop offset="1" stop-color="#c3be2f"/></linearGradient><linearGradient id="_무제_그라디언트_2" x1="-358.8805843" x2="-357.0280834" y1="250.9257165" y2="250.9257165" gradientTransform="rotate(45.001 3249.028 15624.83)scale(27.8469)" gradientUnits="userSpaceOnUse"><stop offset="0" stop-color="#c3be2f"/><stop offset="1" stop-color="#80c241"/></linearGradient><linearGradient id="_무제_그라디언트_3" x1="-352.3312422" x2="-350.4785429" y1="248.5550218" y2="248.5550218" gradientTransform="rotate(45 2900.508 13377.107)scale(23.678)" gradientUnits="userSpaceOnUse"><stop offset="0" stop-color="#6ccef5"/><stop offset="1" stop-color="#00b9c5"/></linearGradient><linearGradient id="_무제_그라디언트_4" x1="-372.6959041" x2="-370.8429989" y1="216.8548151" y2="216.8548151" gradientTransform="rotate(135.001 -3279.19 4589.19)scale(23.9284)" gradientUnits="userSpaceOnUse"><stop offset="0" stop-color="#00b9c5"/><stop offset="1" stop-color="#00a89b"/></linearGradient><linearGradient id="_무제_그라디언트_5" x1="-375.542531" x2="-373.689435" y1="248.4086719" y2="248.4086719" gradientTransform="matrix(102.9063 0 0 102.9063 38698.305 -25415.33)" gradientUnits="userSpaceOnUse"><stop offset="0" stop-color="#0071bb"/><stop offset="1" stop-color="#6ccef5"/></linearGradient><linearGradient id="_무제_그라디언트_6" x1="-376.3065039" x2="-374.4538612" y1="246.7050566" y2="246.7050566" gradientTransform="matrix(140.5117 0 0 140.5117 52895.497 -34620.646)" gradientUnits="userSpaceOnUse"><stop offset="0" stop-color="#fcb811"/><stop offset=".598" stop-color="#f5831b"/><stop offset="1" stop-color="#f16421"/></linearGradient><linearGradient id="_무제_그라디언트_7" x1="-375.9492671" x2="-374.0962626" y1="248.1235283" y2="248.1235283" gradientTransform="matrix(117.9332 0 0 117.9332 44365.524 -29021.102)" gradientUnits="userSpaceOnUse"><stop offset="0" stop-color="#80c241"/><stop offset="1" stop-color="#00a89b"/></linearGradient><clipPath id="clippath"><path d="M0 138.917h7.176c.035-24.052 8.403-45.926 23.271-61.327L20.029 66.107C7.263 87.919 0 113.203 0 138.917" class="st0"/></clipPath><clipPath id="clippath-1"><path d="M0 138.917c0 26.145 4.667 50.457 13.888 71.65l14.697-20.158c-13.041-12.348-21.409-29.057-21.409-51.376v-.116z" class="st0"/></clipPath><clipPath id="clippath-2"><path d="M243.74 134.135c18.467.269 29.823 14.532 29.423 32.718h7.185c0-17.938-8.424-34.273-23.27-46.486z" class="st0"/></clipPath><clipPath id="clippath-3"><path d="M273.163 166.853c-.347 14.967-8.353 27.537-26.089 36.873l18.727 25.791c9.143-16.883 14.547-37.59 14.547-62.664z" class="st0"/></clipPath><clipPath id="clippath-4"><path d="M65.502 148.898c-12.003 0-21.179-13.179-21.179-25.953 0-1.326.089-2.614.225-3.86l-6.625-1.13a47.5 47.5 0 0 0-.792 8.583c0 42.874 31.953 70.247 72.296 70.247 76.68 0 99.437-62.666 133.781-62.666.177 0 .355.017.532.017l13.338-13.769c-16.557-13.63-41.149-22.175-70.972-22.175-60.71 0-93.043 50.706-120.604 50.706" class="st0"/></clipPath><clipPath id="clippath-5"><path d="M20.029 66.107 30.446 77.59c13.45-13.929 32.244-22.51 55.016-22.51 44.313 0 75.08 33.524 114.625 33.524 47.423 0 73.675-23.1 80.261-68.244l-7.185-1.193C271.16 31.123 263.364 45.5 249.385 45.5c-13.175 0-27.149-11.579-47.503-22.746C181.503 11.174 158.142 0 128.985 0 82.095 0 42.517 27.632 20.029 66.107" class="st0"/></clipPath><clipPath id="clippath-6"><path d="M13.888 210.568c21.149 48.654 66.268 80.818 133.873 80.818 44.686 0 94.127-17.695 118.04-61.869l-18.727-25.791c-22.03 11.588-59.096 18.203-115.285 18.203-34.324 0-77.727-7.432-103.204-31.52z" class="st0"/></clipPath><style>.st0{fill:none}.st14{fill:#fff}</style></defs><g style="clip-path:url(#clippath)"><path d="m66.852 102.513-51.628 51.629-51.628-51.629 51.628-51.629z" style="fill:url(#_무제_그라디언트)"/></g><g style="clip-path:url(#clippath-1)"><path d="m14.293 124.625 50.117 50.121-50.118 50.115-50.117-50.119z" style="fill:url(#_무제_그라디언트_2)"/></g><g style="clip-path:url(#clippath-2)"><path d="m262.045 102.063 41.545 41.546-41.545 41.547-41.547-41.547z" style="fill:url(#_무제_그라디언트_3)"/></g><g style="clip-path:url(#clippath-3)"><path d="m311.681 198.185-47.971 47.971-47.969-47.971 47.97-47.971z" style="fill:url(#_무제_그라디언트_4)"/></g><g style="clip-path:url(#clippath-4)"><path d="M37.131 98.192h219.947v98.593H37.131z" style="fill:url(#_무제_그라디언트_5)"/></g><g style="clip-path:url(#clippath-5)"><path d="M20.029 0h260.318v88.604H20.029z" style="fill:url(#_무제_그라디언트_6)"/></g><g style="clip-path:url(#clippath-6)"><path d="M13.888 190.41h251.913v100.977H13.888z" style="fill:url(#_무제_그라디언트_7)"/></g><path d="M398.159 218.029c-44.388 0-68.919-29.176-68.919-72.337 0-43.387 26.545-72.784 69.736-72.784 17.217 0 31.604 4.05 42.769 10.345l-4.667 30.196c-10.558-6.687-22.911-11.928-37.316-11.928-24.125 0-35.85 17.813-35.85 43.95 0 26.349 12.148 44.808 36.26 44.808 7.718 0 13.192-1.426 18.853-4.471v-24.93h-24.317l-4.063-25.744h58.575v68.1c-14.598 9.549-31.813 14.795-51.061 14.795m117.564-1.014c-18.874 0-34.667-4.039-48.858-10.529l5.065-29.592c14.386 7.711 30.412 12.982 44.397 12.982 9.912 0 16.823-4.273 16.823-12.572 0-7.914-4.056-11.563-23.731-19.059-27.951-10.746-40.122-19.859-40.122-42.979 0-26.948 21.071-41.346 47.818-41.346 18.281 0 30.031 3.455 42.17 9.331l-5.263 29.184c-12.538-7.304-25.738-11.335-36.485-11.335-10.539 0-15.615 4.443-15.615 10.933 0 7.094 3.848 10.552 21.287 17.235 30.444 11.137 42.582 21.674 42.582 43.975 0 30.409-22.299 43.772-50.068 43.772M717.832 76.494h-15.006v68.968h15.006v-29.245h17.983v-13.495h-17.983zm-35.537 2.993H611.4v13.506h52.309c-1.069 4.876-2.741 9.355-5.07 13.476H611.4v12.597h36.767c-10.186 8.643-25.032 14.425-44.744 17.092l5.879 11.384c35.96-4.796 70.008-24.283 72.993-68.055m-42.421 108.979h77.958v-37.023h-93.683v13.051h78.675v11.699h-77.94v30.725c0 4.047 3.45 7.5 7.491 7.5h86.191v-13.049h-78.692zM845.171 76.492h14.55v76.447h-14.55zm-10.932 76.449V76.493h-14.544v29.519h-18.439v13.501h18.439v33.428z" class="st14"/><path d="M806.202 133.897h-42.414v-14.832h31.48v-12.596h-31.48V92.538h37.468V79.486h-52.459v59.975c0 4.023 3.454 7.488 7.496 7.488h49.909zm-42.414 38.528h80.94v41.992h14.991v-55.478h-95.93zm166.949-94.444v17.413c0 29.975-23.088 47.654-49.622 52.451l6.595 11.85c19.795-3.459 38.808-14.988 50.81-32.979 12.02 17.991 31.032 29.521 50.835 32.979l6.585-11.85c-26.526-4.797-49.621-22.477-49.621-52.451V77.981zm-53.674 109.425h122.938v13.512H877.063z" class="st14"/></svg>