<?xml version="1.0" encoding="UTF-8" standalone="no"?>
<svg
   viewBox="0 0 27312.521 6214.1666"
   version="1.1"
   id="svg235"
   width="27312.521"
   height="6214.1665"
   xmlns="http://www.w3.org/2000/svg"
   xmlns:svg="http://www.w3.org/2000/svg">
  <defs
     id="defs225">
    <linearGradient
       id="a"
       x1="161.12"
       x2="263.26001"
       y1="355.82001"
       y2="229.69"
       gradientUnits="userSpaceOnUse"
       gradientTransform="translate(-128.4375,-250.3466)">
      <stop
         offset="0"
         stop-color="#dda426"
         id="stop218" />
      <stop
         offset="0.45"
         stop-color="#ffefca"
         id="stop220" />
      <stop
         offset="1"
         stop-color="#dda426"
         id="stop222" />
    </linearGradient>
  </defs>
  <path
     d="m 153.9225,2.3633999 h -139.28 a 13,13 0 0 0 -13,13.0000001 v 52.85 a 13,13 0 0 0 13,13 h 139.28 a 13,13 0 0 0 13,-13 v -52.88 a 13,13 0 0 0 -13,-13.0000001 z"
     style="fill:#e60012"
     id="path227" />
  <path
     d="m 153.9225,4.3133999 a 11,11 0 0 1 11,11.0000001 v 52.85 a 11,11 0 0 1 -11,11 h -139.28 a 11,11 0 0 1 -11,-11 v -52.83 a 11,11 0 0 1 11,-11.0000001 z"
     style="fill:url(#a)"
     id="path229" />
  <path
     d="m 24.3725,35.9534 a 1.12,1.12 0 0 0 -1.12,1.11 v 12.59 a 1.11,1.11 0 0 0 1.12,1.1 h 22.81 a 1.11,1.11 0 0 0 1.12,-1.1 v -12.59 a 1.12,1.12 0 0 0 -1.12,-1.11 z m 81.56,11.63 a 4,4 0 1 1 4,-4 4,4 0 0 1 -4,4 z m 15.43,-11.63 a 1.13,1.13 0 0 0 -1.12,1.11 v 12.59 a 1.11,1.11 0 0 0 1.12,1.1 h 22.81 a 1.1,1.1 0 0 0 1.11,-1.1 v -12.59 a 1.11,1.11 0 0 0 -1.11,-1.11 z m 23.92,37.57 v -16 a 1.11,1.11 0 0 0 -1.11,-1.13 h -28 a 4,4 0 0 1 -4,-4 v -18 a 4,4 0 0 1 4,-4 h 33.11 a 4,4 0 0 1 4,4 v 34.2 z m -77.61,-37.57 a 1.12,1.12 0 0 0 -1.12,1.11 v 12.59 a 1.11,1.11 0 0 0 1.12,1.1 h 22.81 a 1.12,1.12 0 0 0 1.13,-1.1 v -12.59 a 1.13,1.13 0 0 0 -1.13,-1.11 z m 28,20.41 h -33.11 a 4,4 0 0 1 -4,-4 v -34.2 l 8,-4.93 v 16.05 a 1.11,1.11 0 0 0 1.12,1.11 h 28 a 4,4 0 0 1 4,4 v 18 a 4,4 0 0 1 -4,4 z m -43.31,0 h -33.1 a 4,4 0 0 1 -4,-4 v -34.2 l 8,-4.93 v 16.05 a 1.11,1.11 0 0 0 1.12,1.11 h 28 a 4,4 0 0 1 4,4 v 18 a 4,4 0 0 1 -4,4 z"
     style="fill:#b3a89d"
     id="path231" />
  <path
     d="m 109.1225,43.5634 a 3.2,3.2 0 1 1 -3.19,-3.2 3.2,3.2 0 0 1 3.19,3.2 z m -60,6.13 a 1.94,1.94 0 0 1 -1.95,1.94 h -22.8 a 2,2 0 0 1 -1.95,-1.94 v -12.63 a 2,2 0 0 1 1.95,-1.94 h 22.81 a 2,2 0 0 1 1.95,1.94 v 12.59 z m 3.24,-18.47 h -28 a 1.94,1.94 0 0 1 -1.95,-1.94 v -14.57 l -6.3,3.92 v 33.74 a 3.15,3.15 0 0 0 3.15,3.16 h 33.1 a 3.15,3.15 0 0 0 3.15,-3.16 v -18 a 3.16,3.16 0 0 0 -3.16,-3.17 z m 40.07,18.43 a 1.94,1.94 0 0 1 -1.94,1.94 h -22.81 a 2,2 0 0 1 -2,-1.94 v -12.59 a 2,2 0 0 1 2,-1.94 h 22.81 a 2,2 0 0 1 1.94,1.94 z m 3.25,-18.47 h -28 a 2,2 0 0 1 -2,-1.94 v -14.53 l -6.3,3.92 v 33.74 a 3.15,3.15 0 0 0 3.15,3.16 h 33.11 a 3.15,3.15 0 0 0 3.15,-3.16 v -18 a 3.15,3.15 0 0 0 -3.15,-3.17 z m 23.73,5.84 a 2,2 0 0 1 2,-1.94 h 22.81 a 2,2 0 0 1 1.95,1.94 v 12.63 a 2,2 0 0 1 -1.95,1.94 h -22.86 a 1.94,1.94 0 0 1 -2,-1.94 v -12.59 z m -3.25,18.47 h 28 a 2,2 0 0 1 1.95,2 v 14.55 l 6.31,-3.9 v -33.75 a 3.16,3.16 0 0 0 -3.15,-3.17 h -33.1 a 3.15,3.15 0 0 0 -3.15,3.17 v 18 a 3.14,3.14 0 0 0 3.14,3.16 z"
     style="fill:#e60012"
     id="path233" />
</svg>
