<svg xmlns="http://www.w3.org/2000/svg" viewBox="0 0 165.25 78.78"><defs><linearGradient id="a" x1="161.12" x2="263.26" y1="355.82" y2="229.69" gradientUnits="userSpaceOnUse"><stop offset="0" stop-color="#dda426"/><stop offset="0.45" stop-color="#ffefca"/><stop offset="1" stop-color="#dda426"/></linearGradient></defs><path d="M282.36 252.71H143.08a13 13 0 0 0-13 13v52.85a13 13 0 0 0 13 13h139.28a13 13 0 0 0 13-13v-52.88a13 13 0 0 0-13-13Z" style="fill:#e60012" transform="translate(-130.09 -252.71)"/><path d="M282.36 254.66a11 11 0 0 1 11 11v52.85a11 11 0 0 1-11 11H143.08a11 11 0 0 1-11-11v-52.83a11 11 0 0 1 11-11Z" style="fill:url(#a)" transform="translate(-130.09 -252.71)"/><path d="M152.81 286.3a1.12 1.12 0 0 0-1.12 1.11V300a1.11 1.11 0 0 0 1.12 1.1h22.81a1.11 1.11 0 0 0 1.12-1.1v-12.59a1.12 1.12 0 0 0-1.12-1.11Zm81.56 11.63a4 4 0 1 1 4-4 4 4 0 0 1-4 4Zm15.43-11.63a1.13 1.13 0 0 0-1.12 1.11V300a1.11 1.11 0 0 0 1.12 1.1h22.81a1.1 1.1 0 0 0 1.11-1.1v-12.59a1.11 1.11 0 0 0-1.11-1.11Zm23.92 37.57v-16a1.11 1.11 0 0 0-1.11-1.13h-28a4 4 0 0 1-4-4v-18a4 4 0 0 1 4-4h33.11a4 4 0 0 1 4 4v34.2l-8 4.93Zm-77.61-37.57a1.12 1.12 0 0 0-1.12 1.11V300a1.11 1.11 0 0 0 1.12 1.1h22.81a1.12 1.12 0 0 0 1.13-1.1v-12.59a1.13 1.13 0 0 0-1.13-1.11Zm28 20.41H191a4 4 0 0 1-4-4v-34.2l8-4.93v16.05a1.11 1.11 0 0 0 1.12 1.11h28a4 4 0 0 1 4 4v18a4 4 0 0 1-4 4Zm-43.31 0h-33.1a4 4 0 0 1-4-4v-34.2l8-4.93v16.05a1.11 1.11 0 0 0 1.12 1.11h28a4 4 0 0 1 4 4v18a4 4 0 0 1-4 4Z" style="fill:#b3a89d" transform="translate(-130.09 -252.71)"/><path d="M237.56 293.91a3.2 3.2 0 1 1-3.19-3.2 3.2 3.2 0 0 1 3.19 3.2Zm-60 6.13a1.94 1.94 0 0 1-1.95 1.94h-22.8a2 2 0 0 1-1.95-1.94v-12.63a2 2 0 0 1 1.95-1.94h22.81a2 2 0 0 1 1.95 1.94V300Zm3.24-18.47h-28a1.94 1.94 0 0 1-1.95-1.94v-14.57l-6.3 3.92v33.74a3.15 3.15 0 0 0 3.15 3.16h33.1a3.15 3.15 0 0 0 3.15-3.16v-18a3.16 3.16 0 0 0-3.16-3.17ZM220.87 300a1.94 1.94 0 0 1-1.94 1.94h-22.81a2 2 0 0 1-2-1.94v-12.59a2 2 0 0 1 2-1.94h22.81a2 2 0 0 1 1.94 1.94V300Zm3.25-18.47h-28a2 2 0 0 1-2-1.94v-14.53l-6.3 3.92v33.74a3.15 3.15 0 0 0 3.15 3.16h33.11a3.15 3.15 0 0 0 3.15-3.16v-18a3.15 3.15 0 0 0-3.15-3.17Zm23.73 5.84a2 2 0 0 1 2-1.94h22.81a2 2 0 0 1 1.95 1.94V300a2 2 0 0 1-1.95 1.94H249.8a1.94 1.94 0 0 1-2-1.94v-12.59Zm-3.25 18.47h28a2 2 0 0 1 1.95 2v14.55l6.31-3.9v-33.75a3.16 3.16 0 0 0-3.15-3.17h-33.1a3.15 3.15 0 0 0-3.15 3.17v18a3.14 3.14 0 0 0 3.14 3.16Z" style="fill:#e60012" transform="translate(-130.09 -252.71)"/></svg>