<svg xmlns="http://www.w3.org/2000/svg" xml:space="preserve" width="260.39999" height="83.400002" viewBox="0 0 260.39999 83.400002"><defs><clipPath id="a" clipPathUnits="userSpaceOnUse"><path d="M0 737.01h510.24V0H0Z"/></clipPath></defs><path d="M0 0v9.032h1.787l3.678-6.028v6.028h1.7V0H5.338L1.686 5.888V0Z" style="fill:#231f20;fill-opacity:1;fill-rule:nonzero;stroke:none" transform="matrix(1.33333 0 0 -1.33333 25.235 83.12)"/><g clip-path="url(#a)" transform="matrix(1.33333 0 0 -1.33333 -213.702 522.73)"><path d="M0 0c0-.653.165-1.147.47-1.489a1.478 1.478 0 0 1 1.14-.514c.441 0 .832.173 1.137.514.297.342.457.849.457 1.501 0 .648-.16 1.138-.457 1.475a1.453 1.453 0 0 1-1.137.516c-.449 0-.835-.165-1.14-.516C.165 1.15 0 .654 0 0m-1.765.098c0 .572.144 1.121.429 1.658.291.547.674.959 1.192 1.245a3.67 3.67 0 0 0 1.752.426c.99 0 1.795-.326 2.42-.965.642-.644.956-1.455.956-2.442 0-.991-.314-1.813-.965-2.464-.631-.65-1.435-.97-2.409-.97-.598 0-1.167.134-1.712.406a2.796 2.796 0 0 0-1.234 1.193c-.285.524-.429 1.158-.429 1.913" style="fill:#231f20;fill-opacity:1;fill-rule:nonzero;stroke:none" transform="translate(189.272 332.978)"/><path d="M195.233 331.441h1.738v-1.732h-1.738z" style="fill:#231f20;fill-opacity:1;fill-rule:nonzero;stroke:none"/><path d="M0 0h-1.723v6.523A5.969 5.969 0 0 0-3.96 5.214v1.567c.458.153.945.429 1.479.846.525.41.889.891 1.085 1.44H0Z" style="fill:#231f20;fill-opacity:1;fill-rule:nonzero;stroke:none" transform="translate(202.409 329.708)"/><path d="M0 0c0-1.025.24-1.799.707-2.327.473-.526 1.069-.795 1.807-.795.72 0 1.319.263 1.79.789.46.525.687 1.308.687 2.359 0 1.032-.217 1.799-.675 2.313-.456.515-1.059.764-1.802.764-.76 0-1.362-.257-1.816-.773C.235 1.815 0 1.033 0 0m-1.879-.065c0 .919.144 1.697.416 2.316.193.459.487.872.846 1.237.351.363.735.644 1.168.823.555.232 1.194.35 1.946.35 1.336 0 2.383-.42 3.193-1.242.796-.821 1.197-1.97 1.197-3.44 0-1.46-.401-2.598-1.188-3.42-.791-.822-1.858-1.233-3.177-1.233-1.352 0-2.419.411-3.209 1.222-.796.827-1.192 1.946-1.192 3.387" style="fill:#231f20;fill-opacity:1;fill-rule:nonzero;stroke:none" transform="translate(209.64 334.233)"/><path d="m0 0-2.631 6.547h1.82L.414 3.206l.363-1.123c.095.291.159.474.176.574.054.179.124.362.183.549l1.25 3.341h1.769L1.564 0Z" style="fill:#231f20;fill-opacity:1;fill-rule:nonzero;stroke:none" transform="translate(219.349 329.708)"/><path d="M0 0c-.017.494-.148.885-.399 1.143a1.199 1.199 0 0 1-.893.395c-.374 0-.685-.142-.938-.42C-2.467.847-2.596.47-2.591 0Zm-.104-1.758 1.721-.288C1.391-2.67 1.049-3.158.575-3.485c-.48-.332-1.082-.495-1.8-.495-1.143 0-1.982.374-2.519 1.114-.431.598-.656 1.345-.656 2.252 0 1.084.287 1.935.861 2.549.562.619 1.275.925 2.144.925.974 0 1.732-.326 2.299-.964.574-.644.844-1.629.807-2.956h-4.339c.025-.515.161-.916.428-1.198a1.3 1.3 0 0 1 .993-.43c.272 0 .499.074.683.212.18.162.321.397.42.718" style="fill:#231f20;fill-opacity:1;fill-rule:nonzero;stroke:none" transform="translate(228.085 333.544)"/><path d="M0 0h-1.73v3.345c0 .698-.032 1.158-.121 1.363a.903.903 0 0 1-.361.489.972.972 0 0 1-.594.177 1.35 1.35 0 0 1-.8-.258 1.25 1.25 0 0 1-.498-.654c-.077-.265-.131-.771-.131-1.494V0h-1.729v6.547h1.613v-.965c.56.743 1.277 1.114 2.139 1.114.388 0 .734-.074 1.062-.21.314-.136.546-.31.712-.532.161-.206.275-.45.337-.723.077-.272.101-.654.101-1.163Z" style="fill:#231f20;fill-opacity:1;fill-rule:nonzero;stroke:none" transform="translate(236.785 329.708)"/><path d="M0 0h1.349c.876 0 1.415.037 1.638.111a.878.878 0 0 1 .504.371c.127.192.199.41.199.688 0 .297-.087.55-.245.732a1.198 1.198 0 0 1-.688.363c-.149.019-.592.024-1.334.024H0Zm-1.817-5.214v9.032h3.831c.965 0 1.671-.079 2.102-.247a2.035 2.035 0 0 0 1.053-.86c.266-.422.391-.892.391-1.428 0-.673-.2-1.236-.596-1.677-.405-.434-.995-.717-1.785-.835.392-.224.717-.482.974-.758.257-.268.601-.763 1.041-1.466l1.112-1.761H4.112L2.793-3.242c-.462.706-.787 1.141-.955 1.317-.171.19-.356.308-.551.379-.193.078-.498.103-.919.103H0v-3.771z" style="fill:#231f20;fill-opacity:1;fill-rule:nonzero;stroke:none" transform="translate(243.128 334.922)"/><path d="M0 0c0-.653.153-1.147.455-1.489a1.5 1.5 0 0 1 1.151-.514c.457 0 .822.173 1.129.514.311.342.46.849.46 1.501 0 .648-.149 1.138-.46 1.475a1.418 1.418 0 0 1-1.129.516 1.47 1.47 0 0 1-1.151-.516C.153 1.15 0 .654 0 0m-1.777.098c0 .572.151 1.121.421 1.658.291.547.685.959 1.205 1.245a3.703 3.703 0 0 0 1.739.426c.997 0 1.802-.326 2.441-.965.633-.644.943-1.455.943-2.442 0-.991-.31-1.813-.956-2.464-.635-.65-1.433-.97-2.41-.97a3.74 3.74 0 0 0-1.715.406 2.826 2.826 0 0 0-1.247 1.193c-.27.524-.421 1.158-.421 1.913" style="fill:#231f20;fill-opacity:1;fill-rule:nonzero;stroke:none" transform="translate(251.392 332.978)"/><path d="M0 0a10.12 10.12 0 0 0-1.052-.262c-.473-.101-.795-.2-.943-.301-.22-.163-.334-.366-.334-.605 0-.25.089-.46.271-.631a.952.952 0 0 1 .689-.268c.314 0 .611.104.896.307.213.154.342.347.416.574.045.15.057.431.057.841Zm-2.31 1.411-1.563.276c.173.639.476 1.103.91 1.405.425.305 1.065.465 1.911.465.775 0 1.346-.099 1.728-.283.381-.182.642-.413.801-.688.143-.286.23-.805.23-1.554L1.683-.993c0-.569.032-.989.079-1.266.059-.283.174-.57.321-.881H.373c-.044.118-.098.286-.173.514a1.372 1.372 0 0 1-.059.198c-.297-.282-.602-.505-.955-.648a2.833 2.833 0 0 0-1.084-.208c-.665 0-1.188.179-1.577.547-.388.369-.574.829-.574 1.387 0 .368.084.69.262.987.169.286.411.509.743.664.312.156.772.292 1.379.406.801.157 1.357.29 1.665.422v.17c0 .337-.072.575-.237.719-.169.137-.474.216-.939.216-.309 0-.552-.068-.722-.187-.168-.119-.307-.332-.412-.636" style="fill:#231f20;fill-opacity:1;fill-rule:nonzero;stroke:none" transform="translate(260.95 332.848)"/><path d="m0 0 1.731.268c.068-.342.224-.599.444-.778.228-.167.551-.258.948-.258.456 0 .774.085 1.018.248a.566.566 0 0 1 .232.46.498.498 0 0 1-.136.331C4.155.346 3.97.429 3.67.5c-1.4.308-2.286.589-2.662.841-.518.351-.773.841-.773 1.472 0 .568.218 1.048.671 1.422.448.388 1.144.591 2.078.591.895 0 1.56-.149 1.991-.436.443-.306.736-.729.901-1.301L4.25 2.791a1.046 1.046 0 0 1-.396.582c-.196.136-.474.205-.842.205-.456 0-.778-.063-.962-.192-.14-.089-.212-.2-.212-.358 0-.112.06-.215.167-.307.158-.11.702-.279 1.613-.489.926-.212 1.582-.469 1.945-.767.354-.31.533-.742.533-1.287 0-.598-.243-1.115-.745-1.541-.51-.444-1.243-.652-2.228-.652-.889 0-1.591.179-2.111.541C.49-1.108.141-.618 0 0" style="fill:#231f20;fill-opacity:1;fill-rule:nonzero;stroke:none" transform="translate(263.383 331.578)"/><path d="M0 0v-1.38h-1.195v-2.639c0-.532.019-.848.045-.929a.43.43 0 0 1 .145-.224.573.573 0 0 1 .297-.083c.169 0 .401.053.698.162l.151-1.342a3.54 3.54 0 0 0-1.37-.256c-.315 0-.598.049-.837.153-.264.108-.446.243-.562.405-.113.164-.186.393-.243.673-.037.208-.053.614-.053 1.229v2.851h-.791V0h.791v1.292l1.729 1.016V0Z" style="fill:#231f20;fill-opacity:1;fill-rule:nonzero;stroke:none" transform="translate(273.624 336.255)"/><path d="M0 0c-.01.494-.141.885-.386 1.143a1.217 1.217 0 0 1-.9.395c-.376 0-.686-.142-.941-.42C-2.472.847-2.601.47-2.581 0Zm-.094-1.758 1.72-.288c-.225-.624-.568-1.112-1.05-1.439-.479-.332-1.071-.495-1.793-.495-1.137 0-1.978.374-2.522 1.114-.428.598-.656 1.345-.656 2.252 0 1.084.28 1.935.856 2.549.569.619 1.275.925 2.139.925.987 0 1.747-.326 2.311-.964.565-.644.844-1.629.817-2.956h-4.351c.013-.515.151-.916.418-1.198.277-.286.609-.43 1.008-.43.272 0 .499.074.677.212.184.162.33.397.426.718" style="fill:#231f20;fill-opacity:1;fill-rule:nonzero;stroke:none" transform="translate(278.331 333.544)"/><path d="M0 0c0-.697.089-1.203.282-1.515.284-.449.676-.677 1.176-.677.39 0 .727.169 1.014.505.275.341.41.849.41 1.521 0 .756-.135 1.292-.398 1.622a1.3 1.3 0 0 1-1.045.504c-.413 0-.747-.168-1.037-.504C.131 1.139 0 .654 0 0m4.614-3.414H3.002v.959a2.648 2.648 0 0 0-.938-.826 2.406 2.406 0 0 0-1.102-.278c-.757 0-1.398.297-1.936.912-.536.593-.805 1.444-.805 2.535 0 1.102.261 1.941.784 2.522.524.577 1.185.872 1.989.872.716 0 1.347-.306 1.888-.918v3.254h1.732z" style="fill:#231f20;fill-opacity:1;fill-rule:nonzero;stroke:none" transform="translate(282.47 333.122)"/><path d="m0 0 1.765-.555C1.489-1.545 1.021-2.277.4-2.758c-.626-.469-1.423-.713-2.395-.713-1.198 0-2.181.411-2.953 1.222-.775.827-1.165 1.936-1.165 3.366 0 1.5.39 2.67 1.17 3.497.783.83 1.795 1.25 3.061 1.25 1.107 0 2.013-.331 2.695-.98.399-.382.708-.94.924-1.658l-1.812-.442c-.109.477-.32.843-.665 1.11-.339.276-.743.412-1.228.412-.676 0-1.213-.245-1.634-.724-.422-.475-.63-1.252-.63-2.326 0-1.143.208-1.961.611-2.44.413-.487.955-.735 1.615-.735.482 0 .898.158 1.248.468.349.302.592.792.758 1.451" style="fill:#231f20;fill-opacity:1;fill-rule:nonzero;stroke:none" transform="translate(297.337 333.03)"/><path d="M0 0v-3.316c.567.648 1.22.98 2.002.98.394 0 .755-.074 1.076-.223.318-.148.575-.342.721-.572.161-.229.279-.488.337-.765.069-.274.096-.71.096-1.295v-3.841H2.489v3.456c0 .689-.029 1.121-.093 1.301a.852.852 0 0 1-.352.449 1.119 1.119 0 0 1-.624.168c-.281 0-.543-.079-.772-.217a1.218 1.218 0 0 1-.484-.633C.048-4.787 0-5.207 0-5.754v-3.278h-1.736V0Z" style="fill:#231f20;fill-opacity:1;fill-rule:nonzero;stroke:none" transform="translate(301.994 338.74)"/><path d="M307.596 336.255h1.729v-6.547h-1.729zm0 2.485h1.729v-1.603h-1.729z" style="fill:#231f20;fill-opacity:1;fill-rule:nonzero;stroke:none"/><path d="m0 0-1.708-.297C-1.77.04-1.9.296-2.109.47c-.203.171-.448.262-.794.262-.428 0-.765-.154-1.021-.451-.259-.302-.389-.802-.389-1.494 0-.777.13-1.329.389-1.648.268-.314.612-.475 1.06-.475.324 0 .589.094.801.273.207.193.362.513.45.974l1.697-.298c-.182-.776-.515-1.37-1.018-1.771-.497-.391-1.175-.589-2.016-.589-.961 0-1.723.297-2.295.906-.567.599-.844 1.436-.844 2.499 0 1.084.277 1.931.862 2.529.567.604 1.338.907 2.304.907.794 0 1.435-.173 1.901-.521C-.55 1.229-.201.712 0 0" style="fill:#231f20;fill-opacity:1;fill-rule:nonzero;stroke:none" transform="translate(316.43 334.31)"/><path d="M0 0v9.032h1.726V4.241l2.028 2.306h2.129L3.656 4.156 6.047 0H4.176L2.545 2.942l-.819-.838V0Z" style="fill:#231f20;fill-opacity:1;fill-rule:nonzero;stroke:none" transform="translate(317.299 329.708)"/><path d="M0 0c-.022.494-.148.885-.396 1.143a1.202 1.202 0 0 1-.896.395 1.24 1.24 0 0 1-.95-.42C-2.473.847-2.601.47-2.586 0Zm-.104-1.758 1.725-.288C1.386-2.67 1.058-3.158.569-3.485.092-3.817-.509-3.98-1.232-3.98c-1.139 0-1.975.374-2.523 1.114-.439.598-.641 1.345-.641 2.252 0 1.084.283 1.935.844 2.549.57.619 1.287.925 2.149.925.977 0 1.745-.326 2.304-.964.574-.644.839-1.629.811-2.956h-4.345c.025-.515.16-.916.424-1.198.266-.286.603-.43 1.002-.43.273 0 .495.074.682.212.181.162.322.397.421.718" style="fill:#231f20;fill-opacity:1;fill-rule:nonzero;stroke:none" transform="translate(327.892 333.544)"/><path d="M0 0h-1.726v3.345c0 .698-.04 1.158-.121 1.363a.937.937 0 0 1-.354.489.999.999 0 0 1-.594.177c-.314 0-.573-.094-.804-.258a1.13 1.13 0 0 1-.495-.654c-.099-.265-.131-.771-.131-1.494V0h-1.734v6.547h1.61v-.965c.567.743 1.295 1.114 2.148 1.114a2.62 2.62 0 0 0 1.055-.21c.307-.136.549-.31.715-.532.152-.206.27-.45.342-.723.062-.272.089-.654.089-1.163Z" style="fill:#231f20;fill-opacity:1;fill-rule:nonzero;stroke:none" transform="translate(336.584 329.708)"/><path d="M0 0c-1.52 0-2.742-.309-3.667-.923a6.329 6.329 0 0 1-2.125-2.308 9.455 9.455 0 0 1-.987-2.994c-.159-1.064-.247-2.051-.247-2.953 0-.911.088-1.893.247-2.965a9.355 9.355 0 0 1 .987-2.988 6.335 6.335 0 0 1 2.125-2.316c.925-.611 2.147-.923 3.667-.923s2.747.312 3.665.923c.927.616 1.636 1.391 2.128 2.316.496.924.822 1.918.987 2.988.164 1.072.247 2.054.247 2.965 0 .902-.083 1.889-.247 2.953a9.331 9.331 0 0 1-.987 2.994A6.32 6.32 0 0 1 3.665-.923C2.747-.309 1.52 0 0 0m-14.605-9.178c0 2.129.203 4.004.621 5.607.403 1.603.946 2.987 1.627 4.158.678 1.174 1.461 2.146 2.343 2.926.883.78 1.78 1.418 2.68 1.913C-5.202 6.571-2.755 7.195 0 7.274c2.714-.079 5.14-.703 7.276-1.848.899-.495 1.792-1.133 2.68-1.913.881-.78 1.663-1.752 2.339-2.926.678-1.171 1.235-2.555 1.669-4.158.432-1.603.64-3.478.64-5.607 0-2.143-.208-4.014-.64-5.613-.434-1.605-.991-2.98-1.669-4.132-.676-1.147-1.458-2.103-2.339-2.865-.888-.757-1.781-1.388-2.68-1.879C5.14-24.774 2.714-25.356 0-25.397c-2.755.041-5.202.623-7.334 1.73a15.72 15.72 0 0 0-2.68 1.879c-.882.762-1.665 1.718-2.343 2.865-.681 1.152-1.224 2.527-1.627 4.132-.418 1.599-.621 3.47-.621 5.613" style="fill:#e11a22;fill-opacity:1;fill-rule:nonzero;stroke:none" transform="translate(212.889 369.52)"/><path d="M0 0c-1.519 0-2.743-.309-3.667-.923a6.297 6.297 0 0 1-2.126-2.308 9.286 9.286 0 0 1-.989-2.994 19.882 19.882 0 0 1-.244-2.953c0-.911.083-1.893.244-2.965a9.189 9.189 0 0 1 .989-2.988c.488-.925 1.201-1.7 2.126-2.316.924-.611 2.148-.923 3.667-.923 1.515 0 2.74.312 3.666.923a6.32 6.32 0 0 1 2.126 2.316c.492.924.822 1.918.986 2.988.167 1.072.243 2.054.243 2.965a19.1 19.1 0 0 1-.243 2.953 9.404 9.404 0 0 1-.986 2.994A6.314 6.314 0 0 1 3.666-.923C2.74-.309 1.515 0 0 0m-14.606-9.178c0 2.129.205 4.004.618 5.607.407 1.603.948 2.987 1.631 4.158.673 1.174 1.458 2.146 2.338 2.926.888.78 1.782 1.418 2.685 1.913C-5.2 6.571-2.752 7.195 0 7.274c2.706-.079 5.135-.703 7.269-1.848a15.119 15.119 0 0 0 2.687-1.913c.882-.78 1.662-1.752 2.338-2.926.678-1.171 1.233-2.555 1.664-4.158.432-1.603.65-3.478.65-5.607 0-2.143-.218-4.014-.65-5.613-.431-1.605-.986-2.98-1.664-4.132-.676-1.147-1.456-2.103-2.338-2.865-.888-.757-1.785-1.388-2.687-1.879-2.134-1.107-4.563-1.689-7.269-1.73-2.752.041-5.2.623-7.334 1.73-.903.491-1.797 1.122-2.685 1.879-.88.762-1.665 1.718-2.338 2.865-.683 1.152-1.224 2.527-1.631 4.132-.413 1.599-.618 3.47-.618 5.613" style="fill:#e11a22;fill-opacity:1;fill-rule:nonzero;stroke:none" transform="translate(243.792 369.52)"/><path d="M0 0c1.52 0 2.744.312 3.671.923a6.407 6.407 0 0 1 2.13 2.315c.486.925.816 1.918.981 2.989.162 1.072.245 2.053.245 2.964 0 .903-.083 1.89-.245 2.954a9.572 9.572 0 0 1-.981 2.994 6.404 6.404 0 0 1-2.13 2.308c-.927.614-2.151.923-3.671.923-1.517 0-2.739-.309-3.672-.923a6.62 6.62 0 0 1-2.148-2.308 8.881 8.881 0 0 1-1.022-2.994 19.353 19.353 0 0 1-.243-2.954c0-.911.078-1.892.243-2.964A8.796 8.796 0 0 1-5.82 3.238 6.622 6.622 0 0 1-3.672.923C-2.739.312-1.517 0 0 0m-7.171 21.094c.026.041.057.081.086.119a8.227 8.227 0 0 0 1.292 1.444c1.066.923 2.11 1.606 3.144 2.065 1.192.492 2.425.801 3.697.922 2.547-.079 4.811-.703 6.777-1.849.867-.495 1.696-1.132 2.5-1.913.803-.779 1.519-1.752 2.157-2.925.637-1.172 1.151-2.556 1.544-4.158.387-1.604.587-3.479.587-5.608 0-2.142-.217-4.013-.648-5.612-.433-1.605-.987-2.98-1.67-4.133-.673-1.146-1.458-2.102-2.34-2.864a15.352 15.352 0 0 0-2.684-1.88C5.137-6.404 2.712-6.986 0-7.027c-2.713.041-5.114.623-7.211 1.729a14.463 14.463 0 0 0-2.649 1.88c-.861.762-1.634 1.727-2.308 2.894-.679 1.175-1.226 2.557-1.641 4.169-.405 1.594-.609 3.468-.609 5.605v25.948h7.333V21.121s-.562-.714-.086-.027" style="fill:#e11a22;fill-opacity:1;fill-rule:nonzero;stroke:none" transform="translate(274.653 351.15)"/><path d="M0 0c.118 0 .559-.022 1.323-.063.755-.04 1.652-.212 2.682-.524 1.022-.308 2.114-.793 3.262-1.449 1.152-.656 2.225-1.604 3.206-2.833.989-1.235 1.799-2.782 2.431-4.654.641-1.869.958-4.179.958-6.929v-15.596H6.346v15.596c0 .902-.081 1.826-.249 2.77a7.689 7.689 0 0 1-.929 2.59 5.622 5.622 0 0 1-1.904 1.941c-.826.514-1.912.772-3.264.772-1.361 0-2.449-.258-3.273-.772a5.632 5.632 0 0 1-1.91-1.941 7.699 7.699 0 0 1-.921-2.59 15.89 15.89 0 0 1-.25-2.77v-15.596h-7.521v15.596c0 2.75.318 5.06.963 6.929.627 1.872 1.442 3.419 2.428 4.654.988 1.229 2.049 2.177 3.203 2.833 1.15.656 2.237 1.141 3.272 1.449 1.025.312 1.907.484 2.648.524C-.627-.022-.173 0 0 0" style="fill:#e11a22;fill-opacity:1;fill-rule:nonzero;stroke:none" transform="translate(309.697 376.794)"/><path d="M0 0c-.206.657-.46 1.313-.772 1.969a6.112 6.112 0 0 1-1.262 1.79 5.773 5.773 0 0 1-1.91 1.259c-.74.311-1.604.464-2.588.464-.986 0-1.85-.153-2.589-.464a5.688 5.688 0 0 1-1.909-1.259 6.63 6.63 0 0 1-1.295-1.79A9.495 9.495 0 0 1-13.065 0Zm7.771 0c.083-.615.152-1.254.209-1.908.066-.665.099-1.362.099-2.096v-1.115H-13.5c.086-.695.19-1.407.312-2.124.123-.72.326-1.426.618-2.129.451-1.065 1.148-2.013 2.095-2.829.946-.825 2.262-1.237 3.943-1.237 1.685 0 2.998.412 3.943 1.237.945.816 1.651 1.764 2.103 2.829h8.012c-.337-1.441-.795-2.688-1.398-3.759-.59-1.066-1.246-1.997-1.961-2.771a11.15 11.15 0 0 0-2.319-1.944 17.012 17.012 0 0 0-2.4-1.261 16.29 16.29 0 0 0-5.98-1.116c-2.755.041-5.202.623-7.332 1.73a15.272 15.272 0 0 0-2.683 1.88c-.885.761-1.669 1.717-2.34 2.864-.679 1.152-1.225 2.527-1.634 4.133-.412 1.598-.62 3.47-.62 5.612 0 2.129.208 4.004.62 5.608.409 1.602.955 2.986 1.634 4.158.671 1.173 1.455 2.146 2.34 2.925.88.78 1.775 1.418 2.683 1.913 2.13 1.146 4.577 1.77 7.332 1.848 2.259-.078 4.374-.552 6.351-1.415a14.942 14.942 0 0 0 2.496-1.451 11.944 11.944 0 0 0 2.344-2.217c.716-.886 1.35-1.935 1.906-3.141.555-1.218.961-2.62 1.206-4.224" style="fill:#e11a22;fill-opacity:1;fill-rule:nonzero;stroke:none" transform="translate(347.43 364.346)"/><path d="M0 0h-16.649v-6.908h9.478c0-3.222-1.716-7.758-8.898-7.758-7.184 0-12.202 2.172-12.202 14.145 0 12.095 5.117 14.216 12.491 14.216 5.177 0 7.457-3.259 8.14-6.528h7.454c-.616 5.414-3.737 13.742-16.463 13.742-16.024 0-19.024-9.902-19.024-21.368 0-7.654 1.446-21.489 19.024-21.489C.93-21.948 0-6.658 0-6.658Z" style="fill:#e11a22;fill-opacity:1;fill-rule:nonzero;stroke:none" transform="translate(195.95 366.072)"/><path d="M0 0c-7.163-.54-17.953-5.369-14.31-14.41 2.905 1.043 5.229 2.801 7.052 4.606l1.514 1.668c1.934 2.289 3.009 4.357 3.338 4.708.611.745-3.933-10.696-10.944-12.865.227-1.448 7.817-2.28 10.805 3.945C.431-6.113 0 0 0 0" style="fill:#a6ce38;fill-opacity:1;fill-rule:evenodd;stroke:none" transform="translate(305.556 392.048)"/><path d="M0 0c-2.626 2.261-5.633 2.851-5.633 2.851C-6.3-.68-5.352-6.583-.512-5.982-.628-4.437-1.2-3.081-1.843-1.954l-.598.983C-3.328.245-4.177 1.031-4.314 1.226-4.572 1.647.399-2.079.521-5.757 1.269-5.844 2.661-2.255 0 0" style="fill:#a6ce38;fill-opacity:1;fill-rule:evenodd;stroke:none" transform="translate(288.19 381.84)"/></g></svg>