<?xml version="1.0" encoding="UTF-8" standalone="no"?>
<!-- Created with Inkscape (http://www.inkscape.org/) -->

<svg
   version="1.1"
   id="svg1"
   width="418.36505"
   height="61.523441"
   viewBox="0 0 418.36505 61.523441"
   xmlns="http://www.w3.org/2000/svg"
   xmlns:svg="http://www.w3.org/2000/svg">
  <defs
     id="defs1" />
  <g
     id="g1"
     transform="translate(-0.07760413,-0.75520188)">
    <path
       id="path1"
       d="m 736.637,454.414 -27.285,-48.996 c -18.973,-33.594 -37.567,-68.137 -55.786,-103.617 -1.062,-2.074 -4.011,-2.129 -5.125,-0.078 -10.359,19.078 -29.753,53.433 -58.171,103.074 l -28.528,49.617 H 452.441 422.195 302.352 L 146.141,284.988 c -1.793,-1.945 -5.043,-0.675 -5.043,1.973 V 454.414 H 17.0547 0.582031 v -9.883 C 17.0547,439.473 17.0547,409.512 17.0547,388.52 V 12.8281 H 141.098 V 139.352 l 47.695,48.285 c 1.305,1.32 3.5,1.093 4.512,-0.465 L 306.07,12.8281 H 452.441 L 281.367,270.047 c -1.512,2.269 -1.242,5.285 0.649,7.25 l 151.855,157.82 152.68,-252.351 V 12.8281 H 710.59 V 182.766 L 872.465,454.414 H 736.637"
       style="fill:#ffffff;fill-opacity:1;fill-rule:nonzero;stroke:none"
       transform="matrix(0.13333333,0,0,-0.13333333,0,62.666667)" />
    <path
       id="path2"
       d="m 1056.34,464.336 c -69.043,0 -125.07,-20.879 -168.07,-62.641 -42.586,-42.172 -63.879,-98.199 -63.879,-168.07 0,-70.289 21.293,-126.109 63.879,-167.457 42.589,-42.1758 98.613,-63.25784 168.07,-63.25784 69.47,0 125.5,21.08204 168.08,63.25784 42.58,41.348 63.88,97.168 63.88,167.457 0,69.871 -21.3,125.898 -63.88,168.07 -43,41.762 -99.03,62.641 -168.08,62.641 z m 75.05,-321.266 c -18.61,-21.91 -43.62,-32.867 -75.05,-32.867 -31.42,0 -56.438,10.957 -75.039,32.867 -18.606,21.504 -27.91,51.688 -27.91,90.555 0,38.039 9.304,68.117 27.91,90.238 18.601,22.121 43.619,33.18 75.039,33.18 31.43,0 56.44,-11.059 75.05,-33.18 18.61,-22.121 27.91,-52.199 27.91,-90.238 0,-38.867 -9.3,-69.051 -27.91,-90.555"
       style="fill:#ffffff;fill-opacity:1;fill-rule:nonzero;stroke:none"
       transform="matrix(0.13333333,0,0,-0.13333333,0,62.666667)" />
    <path
       id="path3"
       d="m 2063.54,297.039 c 0,-2.141 -1.74,-3.875 -3.88,-3.875 h -144.2 c -2.14,0 -3.87,1.734 -3.87,3.875 v 157.375 h -124.05 -16.47 v -9.883 c 16.47,-5.058 16.47,-35.019 16.47,-56.011 V 12.8281 h 124.05 V 178.887 c 0,2.14 1.73,3.879 3.87,3.879 h 144.2 c 2.14,0 3.88,-1.739 3.88,-3.879 V 12.8281 h 124.03 V 454.414 H 2063.54 V 297.039"
       style="fill:#ffffff;fill-opacity:1;fill-rule:nonzero;stroke:none"
       transform="matrix(0.13333333,0,0,-0.13333333,0,62.666667)" />
    <path
       id="path4"
       d="m 2462.93,464.336 c -69.05,0 -125.07,-20.879 -168.07,-62.641 -42.59,-42.172 -63.88,-98.199 -63.88,-168.07 0,-70.289 21.29,-126.109 63.88,-167.457 42.59,-42.1758 98.6,-63.25784 168.07,-63.25784 69.46,0 125.49,21.08204 168.07,63.25784 42.59,41.348 63.88,97.168 63.88,167.457 0,69.871 -21.29,125.898 -63.88,168.07 -42.99,41.762 -99.02,62.641 -168.07,62.641 z m 75.05,-321.266 c -18.61,-21.91 -43.63,-32.867 -75.05,-32.867 -31.42,0 -56.44,10.957 -75.04,32.867 -18.61,21.504 -27.91,51.688 -27.91,90.555 0,38.039 9.3,68.117 27.91,90.238 18.6,22.121 43.62,33.18 75.04,33.18 31.42,0 56.44,-11.059 75.05,-33.18 18.61,-22.121 27.9,-52.199 27.9,-90.238 0,-38.867 -9.29,-69.051 -27.9,-90.555"
       style="fill:#ffffff;fill-opacity:1;fill-rule:nonzero;stroke:none"
       transform="matrix(0.13333333,0,0,-0.13333333,0,62.666667)" />
    <path
       id="path5"
       d="m 3020.48,382.473 c 0,-65.864 0.94,-127.969 2.82,-186.309 0.06,-2.059 -2.66,-2.777 -3.62,-0.949 -17.17,32.848 -36.13,66.941 -56.88,102.289 l -93.66,156.91 h -130.85 -16.48 v -9.883 c 16.48,-5.058 16.48,-35.019 16.48,-56.011 V 12.8281 h 117.84 v 71.9453 c 0,65.4106 -0.95,127.2536 -2.82,185.5276 -0.07,2.058 2.69,2.762 3.64,0.929 14.78,-28.617 33.73,-62.445 56.85,-101.488 l 93.65,-156.9139 h 130.87 V 454.414 h -117.84 v -71.941"
       style="fill:#ffffff;fill-opacity:1;fill-rule:nonzero;stroke:none"
       transform="matrix(0.13333333,0,0,-0.13333333,0,62.666667)" />
    <path
       id="path6"
       d="m 1605.05,129.117 c -16.33,-13.437 -36.9,-20.156 -61.71,-20.156 -31.84,0 -56.02,10.75 -72.56,32.254 -16.54,21.5 -24.81,52.301 -24.81,92.41 0,40.105 8.27,70.906 24.81,92.406 16.54,21.5 40.72,32.25 72.56,32.25 22.74,0 42.18,-5.89 58.3,-17.672 16.13,-11.785 27.08,-28.632 32.87,-50.55 h 0.31 l 123.09,10.808 c -9.65,49.449 -32.79,88.645 -69.44,117.574 -40.11,30.598 -88.48,45.895 -145.13,45.895 -70.29,0 -125.48,-20.672 -165.59,-62.02 -40.52,-41.757 -60.78,-97.992 -60.78,-168.691 0,-70.707 20.67,-126.73 62.02,-168.0781 40.93,-41.7578 95.72,-62.63674 164.35,-62.63674 58.72,0 107.92,16.12504 147.61,48.37504 36.8,29.8242 59.45,71.0898 67.94,123.7778 l -122.53,10.757 c -4.55,-24.371 -14.98,-43.273 -31.31,-56.703"
       style="fill:#ffffff;fill-opacity:1;fill-rule:nonzero;stroke:none"
       transform="matrix(0.13333333,0,0,-0.13333333,0,62.666667)" />
  </g>
</svg>
