<?xml version="1.0" encoding="UTF-8" standalone="no"?>
<!-- Created with Inkscape (http://www.inkscape.org/) -->

<svg
   width="14.543968mm"
   height="14.542208mm"
   viewBox="0 0 14.543968 14.542208"
   version="1.1"
   id="svg424"
   xmlns:inkscape="http://www.inkscape.org/namespaces/inkscape"
   xmlns:sodipodi="http://sodipodi.sourceforge.net/DTD/sodipodi-0.dtd"
   xmlns="http://www.w3.org/2000/svg"
   xmlns:svg="http://www.w3.org/2000/svg">
  <sodipodi:namedview
     id="namedview426"
     pagecolor="#505050"
     bordercolor="#eeeeee"
     borderopacity="1"
     inkscape:showpageshadow="0"
     inkscape:pageopacity="0"
     inkscape:pagecheckerboard="0"
     inkscape:deskcolor="#505050"
     inkscape:document-units="mm"
     showgrid="false" />
  <defs
     id="defs421" />
  <g
     inkscape:label="레이어 1"
     inkscape:groupmode="layer"
     id="layer1">
    <g
       id="g74"
       transform="matrix(0.35277777,0,0,-0.35277777,14.543969,7.2711031)">
      <path
         d="m 0,0 c 0,5.463 -2.172,10.709 -6.039,14.574 -3.868,3.865 -9.106,6.037 -14.574,6.037 -5.468,0.002 -10.712,-2.172 -14.574,-6.037 -3.866,-3.865 -6.04,-9.111 -6.04,-14.574 0,-5.468 2.174,-10.712 6.04,-14.575 3.866,-3.867 9.106,-6.039 14.574,-6.036 5.464,0 10.706,2.169 14.574,6.036 C -2.172,-10.712 0,-5.468 0,0"
         style="fill:#e60013;fill-opacity:1;fill-rule:nonzero;stroke:none"
         id="path76" />
    </g>
    <g
       id="g78"
       transform="matrix(0.35277777,0,0,-0.35277777,10.490129,2.7778431)">
      <path
         d="M 0,0 -1.358,-0.005 C -1.361,-0.412 -1.515,-0.802 -1.79,-1.103 -2.071,-1.399 -2.457,-1.581 -2.863,-1.604 h -0.2 -2.392 l -9.669,0.001 h -0.078 c -0.995,-0.015 -1.914,-0.525 -2.449,-1.36 -0.308,-0.477 -0.472,-1.032 -0.472,-1.603 l 1.355,0.003 c 0,0.411 0.157,0.798 0.434,1.093 0.276,0.301 0.659,0.485 1.066,0.507 h 0.218 2.374 9.687 0.053 c 0.997,0.009 1.924,0.523 2.463,1.359 C -0.162,-1.124 0,-0.57 0,0"
         style="fill:#ffffff;fill-opacity:1;fill-rule:nonzero;stroke:none"
         id="path80" />
    </g>
    <g
       id="g82"
       transform="matrix(0.35277777,0,0,-0.35277777,2.7444991,6.3133831)">
      <path
         d="m 0,0 h -2.539 c -0.051,0 -0.104,0.021 -0.14,0.061 -0.033,0.034 -0.054,0.085 -0.054,0.135 v 1.365 c 0,0.054 0.021,0.107 0.054,0.143 0.036,0.038 0.089,0.057 0.14,0.055 H 0 V 0 M 1.352,3.692 -3.364,3.696 C -3.72,3.698 -4.059,3.558 -4.309,3.308 -4.557,3.059 -4.699,2.722 -4.699,2.368 v -2.984 c 0,-0.354 0.142,-0.688 0.39,-0.941 0.249,-0.247 0.587,-0.39 0.94,-0.39 h 3.346 V -2.216 C -0.019,-2.57 0.117,-2.911 0.37,-3.161 0.616,-3.408 0.955,-3.548 1.305,-3.548 H 8.13 c 0.351,0 0.688,0.139 0.94,0.387 0.251,0.246 0.391,0.587 0.39,0.941 v 2.741 l 0.005,3.171 z"
         style="fill:#231916;fill-opacity:1;fill-rule:nonzero;stroke:none"
         id="path84" />
    </g>
    <g
       id="g86"
       transform="matrix(0.35277777,0,0,-0.35277777,2.7444991,6.3133831)">
      <path
         d="m 0,0 h -2.539 c -0.051,0 -0.104,0.021 -0.14,0.061 -0.033,0.034 -0.054,0.085 -0.054,0.135 v 1.365 c 0,0.054 0.021,0.107 0.054,0.143 0.036,0.038 0.089,0.057 0.14,0.055 H 0 V 0 M 1.352,3.226 -3.364,3.229 C -3.595,3.229 -3.818,3.137 -3.98,2.976 -4.141,2.813 -4.23,2.596 -4.227,2.368 l -0.005,-2.984 c 0,-0.226 0.088,-0.448 0.252,-0.612 0.162,-0.16 0.38,-0.25 0.611,-0.25 H 0.443 V -2.216 C 0.451,-2.448 0.54,-2.664 0.697,-2.829 0.861,-2.99 1.079,-3.079 1.305,-3.079 L 8.13,-3.081 c 0.23,0.002 0.449,0.091 0.61,0.252 0.156,0.161 0.251,0.381 0.251,0.609 v 2.741 2.705 z"
         style="fill:#ffffff;fill-opacity:1;fill-rule:nonzero;stroke:none"
         id="path88" />
    </g>
    <g
       id="g90"
       transform="matrix(0.35277777,0,0,-0.35277777,2.7444991,6.3133831)">
      <path
         d="m 0,0 h -2.539 c -0.051,0 -0.104,0.021 -0.14,0.061 -0.033,0.034 -0.054,0.085 -0.054,0.135 v 1.365 c 0,0.054 0.021,0.107 0.054,0.143 0.036,0.038 0.089,0.057 0.14,0.055 H 0 V 0 m -2.539,2.229 c -0.178,0 -0.349,-0.071 -0.47,-0.195 C -3.135,1.909 -3.205,1.739 -3.205,1.561 V 0.197 c 0,-0.176 0.07,-0.342 0.196,-0.468 0.121,-0.122 0.292,-0.196 0.47,-0.2 h 3.008 v 2.7 z"
         style="fill:#231916;fill-opacity:1;fill-rule:nonzero;stroke:none"
         id="path92" />
    </g>
    <g
       id="g94"
       transform="matrix(0.35277777,0,0,-0.35277777,11.383079,6.8404731)">
      <path
         d="M 0,0 C 0.184,0 0.358,-0.076 0.487,-0.203 0.619,-0.332 0.69,-0.512 0.69,-0.692 V -2.415 C 0.69,-2.595 0.619,-2.77 0.492,-2.901 0.364,-3.028 0.19,-3.099 0.005,-3.104 h -7.314 v 2.403 c -0.003,0.185 0.07,0.363 0.201,0.498 0.131,0.127 0.309,0.204 0.496,0.203 L 0,0 M 6.046,2.239 C 6.051,3.063 5.727,3.854 5.146,4.428 4.56,5.007 3.766,5.323 2.946,5.308 H -9.61 c -0.809,0.014 -1.59,-0.301 -2.165,-0.864 -0.572,-0.573 -0.893,-1.352 -0.888,-2.159 v -5.389 h -16.55 v -5.31 h 16.55 v -5.989 h 5.354 v 5.989 H 3.016 c 0.801,-0.004 1.572,0.308 2.138,0.868 0.57,0.568 0.892,1.336 0.892,2.139 z"
         style="fill:#231916;fill-opacity:1;fill-rule:nonzero;stroke:none"
         id="path96" />
    </g>
    <g
       id="g98"
       transform="matrix(0.35277777,0,0,-0.35277777,7.7853791,9.2058831)">
      <path
         d="M 0,0 H -0.776 C -0.847,0.001 -0.913,0.029 -0.963,0.078 -1.01,0.129 -1.039,0.196 -1.042,0.269 v 1.219 1.263 h -0.263 -0.09 -0.598 V 1.429 -0.299 c 0.003,-0.136 0.058,-0.267 0.154,-0.361 0.097,-0.098 0.225,-0.155 0.366,-0.152 h 0.35 0.295 1.266 0.355 c 0.137,0 0.266,0.054 0.36,0.152 0.098,0.094 0.15,0.225 0.153,0.361 V 1.429 2.751 H 0.716 0.619 0.353 V 1.488 0.269 C 0.353,0.196 0.327,0.126 0.278,0.078 0.232,0.029 0.164,0.001 0.096,0 Z"
         style="fill:#ffffff;fill-opacity:1;fill-rule:nonzero;stroke:none"
         id="path100" />
    </g>
    <g
       id="g102"
       transform="matrix(0.35277777,0,0,-0.35277777,6.5141491,9.1139131)">
      <path
         d="m 0,0 c 0,-0.069 -0.027,-0.139 -0.078,-0.183 -0.048,-0.05 -0.115,-0.078 -0.185,-0.078 h -0.944 c -0.068,0.001 -0.136,0.03 -0.187,0.078 -0.049,0.048 -0.079,0.119 -0.074,0.191 v 1.409 c 0,0.068 0.028,0.139 0.08,0.187 0.05,0.044 0.116,0.071 0.181,0.074 h 0.944 C -0.193,1.675 -0.126,1.648 -0.078,1.599 -0.026,1.546 0.004,1.469 0,1.391 L 0.952,1.369 V 1.98 c 0,0.134 -0.053,0.266 -0.15,0.363 C 0.702,2.437 0.57,2.49 0.431,2.49 H -1.468 -1.905 C -2.044,2.49 -2.175,2.434 -2.271,2.337 -2.368,2.236 -2.423,2.108 -2.423,1.971 v -2.53 c 0,-0.136 0.055,-0.268 0.152,-0.362 0.096,-0.097 0.227,-0.155 0.366,-0.151 H -1.555 0 0.447 c 0.137,0.003 0.268,0.06 0.365,0.157 0.093,0.103 0.147,0.235 0.14,0.378 v 0.584 z"
         style="fill:#ffffff;fill-opacity:1;fill-rule:nonzero;stroke:none"
         id="path104" />
    </g>
    <g
       id="g106"
       transform="matrix(0.35277777,0,0,-0.35277777,5.0266891,9.0077931)">
      <path
         d="m 0,0 c 0.052,0 0.106,-0.022 0.148,-0.059 0.037,-0.039 0.06,-0.093 0.06,-0.148 v -0.145 c 0,-0.053 -0.023,-0.106 -0.06,-0.145 C 0.106,-0.536 0.052,-0.561 0,-0.561 h -2.242 v -0.812 h 2.89 c 0.137,0.003 0.268,0.057 0.368,0.156 0.097,0.098 0.151,0.227 0.151,0.363 V 0 0.29 C 1.164,0.429 1.113,0.555 1.02,0.659 0.922,0.751 0.794,0.808 0.661,0.812 h -1.735 c -0.059,-0.002 -0.113,0.02 -0.153,0.06 -0.038,0.042 -0.061,0.096 -0.061,0.154 v 0.138 c 0,0.056 0.023,0.107 0.061,0.148 0.038,0.041 0.093,0.065 0.146,0.065 H 1.167 V 2.189 H -1.718 C -1.857,2.189 -1.99,2.136 -2.087,2.042 -2.183,1.945 -2.24,1.814 -2.242,1.68 V 0.812 0.514 C -2.24,0.38 -2.186,0.251 -2.092,0.149 -1.994,0.056 -1.863,0 -1.727,0 Z"
         style="fill:#ffffff;fill-opacity:1;fill-rule:nonzero;stroke:none"
         id="path108" />
    </g>
    <g
       id="g110"
       transform="matrix(0.35277777,0,0,-0.35277777,3.1628991,9.0305131)">
      <path
         d="M 0,0 0.434,1.041 0.495,1.204 0.988,0 H 0 M 0.181,2.254 H -0.028 L -0.154,1.942 -1.483,-1.306 h 0.954 l 0.227,0.555 H 1.295 L 1.524,-1.309 H 2.477 L 1.149,1.948 1.028,2.254 H 0.595 Z"
         style="fill:#ffffff;fill-opacity:1;fill-rule:nonzero;stroke:none"
         id="path112" />
    </g>
    <g
       id="g114"
       transform="matrix(0.35277777,0,0,-0.35277777,2.2196391,8.4982431)">
      <path
         d="m 0,0 c 0.058,0.001 0.112,-0.021 0.155,-0.062 0.036,-0.04 0.057,-0.095 0.057,-0.149 v -0.2 c 0,-0.057 -0.018,-0.11 -0.057,-0.15 C 0.115,-0.6 0.063,-0.622 0.006,-0.622 H -1.108 V 0 H 0 m 1.173,0.23 c 0,0.135 -0.056,0.264 -0.152,0.362 -0.095,0.095 -0.22,0.15 -0.355,0.153 h -1.774 -0.959 v -1.367 h -1.171 v -0.745 h 1.171 v -1.45 h 0.959 v 1.45 h 1.769 c 0.137,0.003 0.266,0.055 0.365,0.154 0.094,0.101 0.147,0.23 0.147,0.368 z"
         style="fill:#ffffff;fill-opacity:1;fill-rule:nonzero;stroke:none"
         id="path116" />
    </g>
    <path
       d="m 11.313859,9.4920131 h 0.33655 v -1.25694 h -0.33655 z"
       style="fill:#ffffff;fill-opacity:1;fill-rule:nonzero;stroke:none;stroke-width:0.352778"
       id="path118" />
    <g
       id="g120"
       transform="matrix(0.35277777,0,0,-0.35277777,9.3430691,9.1139131)">
      <path
         d="m 0,0 c 0,-0.069 -0.027,-0.135 -0.072,-0.183 -0.05,-0.05 -0.117,-0.078 -0.189,-0.078 h -0.944 c -0.069,0.001 -0.139,0.03 -0.185,0.078 -0.052,0.048 -0.078,0.119 -0.078,0.191 v 1.409 c 0.002,0.068 0.031,0.136 0.078,0.187 0.046,0.046 0.116,0.074 0.185,0.074 h 0.944 C -0.189,1.675 -0.122,1.648 -0.072,1.599 -0.021,1.546 0.004,1.469 0,1.391 L 0.956,1.369 V 1.98 C 0.956,2.116 0.901,2.249 0.798,2.343 0.7,2.441 0.569,2.492 0.434,2.49 H -1.468 -1.901 C -2.039,2.49 -2.174,2.434 -2.269,2.337 -2.361,2.236 -2.42,2.108 -2.42,1.971 v -2.53 c 0,-0.136 0.059,-0.268 0.151,-0.362 0.098,-0.097 0.23,-0.155 0.368,-0.151 H -1.553 0 0.448 c 0.138,0.008 0.268,0.06 0.364,0.157 0.096,0.103 0.147,0.235 0.144,0.378 v 0.584 z"
         style="fill:#ffffff;fill-opacity:1;fill-rule:nonzero;stroke:none"
         id="path122" />
    </g>
    <g
       id="g124"
       transform="matrix(0.35277777,0,0,-0.35277777,10.743489,9.1139131)">
      <path
         d="m 0,0 c 0.002,-0.069 -0.024,-0.139 -0.076,-0.183 -0.05,-0.05 -0.119,-0.078 -0.187,-0.078 h -0.943 c -0.071,0.001 -0.135,0.03 -0.188,0.078 -0.047,0.048 -0.074,0.119 -0.074,0.191 v 1.409 c 0,0.068 0.03,0.139 0.08,0.187 0.051,0.044 0.111,0.071 0.182,0.074 h 0.943 C -0.195,1.675 -0.124,1.648 -0.076,1.599 -0.023,1.546 0.005,1.469 0,1.391 L 0.954,1.369 V 1.98 C 0.954,2.114 0.899,2.246 0.803,2.343 0.704,2.437 0.568,2.49 0.432,2.49 h -1.9 -0.438 C -2.043,2.487 -2.175,2.434 -2.271,2.337 -2.37,2.239 -2.426,2.108 -2.425,1.971 v -2.53 c 0,-0.136 0.058,-0.268 0.154,-0.362 0.096,-0.097 0.228,-0.155 0.365,-0.151 H -1.556 0 0.446 c 0.136,0.008 0.268,0.06 0.366,0.157 0.095,0.103 0.144,0.235 0.142,0.378 v 0.584 z"
         style="fill:#ffffff;fill-opacity:1;fill-rule:nonzero;stroke:none"
         id="path126" />
    </g>
  </g>
</svg>
