<svg xmlns="http://www.w3.org/2000/svg" width="239" height="31" fill="none" viewBox="0 0 239 31"><g fill="#FF281E" clip-path="url(#a)"><path d="M213.123 15.191c-3.235-1.341-4.351-1.59-4.339-2.832.008-1.16 1.565-1.537 3.031-1.537 1.291 0 2.864.468 2.91 1.375v1.267a.25.25 0 0 0 .249.249h4.418a.25.25 0 0 0 .249-.249V9.936c0-.365-.154-.708-.432-.945-.934-.799-3.409-2.489-7.714-2.489-6.323 0-8.627 3.11-8.627 5.7 0 2.116 1.038 4.443 6.373 6.369 4.305 1.553 5.962 2.112 5.766 3.59-.157 1.177-2.021 1.541-3.512 1.546-1.49.008-3.346-.7-3.346-1.76v-1.119a.25.25 0 0 0-.249-.248h-4.654a.25.25 0 0 0-.249.248v3.251c0 .303.108.593.307.82.838.961 3.496 3.305 9.25 2.986 5.081-.281 7.793-3.255 7.793-5.682 0-2.787-1.52-4.65-7.22-7.02l-.004.008ZM165.798 6.763c-5.609 0-10.16 4.684-10.16 10.462 0 5.777 4.546 10.462 10.16 10.462 5.613 0 10.159-4.684 10.159-10.462s-4.546-10.462-10.159-10.462Zm0 15.958c-2.724 0-4.933-2.46-4.933-5.496 0-3.036 2.209-5.496 4.933-5.496 2.723 0 4.932 2.46 4.932 5.496 0 3.036-2.209 5.496-4.932 5.496ZM200.149 22.754h-1.383a.833.833 0 0 1-.834-.832V7.028a.25.25 0 0 0-.25-.248h-4.479a.25.25 0 0 0-.249.248V8.69c-1.487-1.201-3.297-1.91-5.252-1.91-5.04 0-9.121 4.68-9.121 10.454 0 5.774 4.085 10.454 9.121 10.454 2.267 0 4.338-.949 5.933-2.514v2.265a.25.25 0 0 0 .249.249h6.269a.25.25 0 0 0 .249-.249v-4.431a.25.25 0 0 0-.249-.249l-.004-.004Zm-11.646-.017c-2.603 0-4.712-2.464-4.712-5.504 0-3.04 2.109-5.504 4.712-5.504 2.603 0 4.712 2.464 4.712 5.504 0 3.04-2.109 5.505-4.712 5.505ZM238.967 25.711l-2.288-3.938a.253.253 0 0 0-.357-.08c-.548.37-2.138 1.202-3.591.53-1.511-.695-1.466-2.654-1.466-2.654v-6.096h5.144a.25.25 0 0 0 .249-.249V8.755a.25.25 0 0 0-.249-.248h-5.144V4.324a.25.25 0 0 0-.249-.249h-4.33a.25.25 0 0 0-.249.249v1.54c0 1.123-.291 1.88-.988 2.477-.83.708-1.985.833-2.479.85a.246.246 0 0 0-.236.248v3.785a.25.25 0 0 0 .249.249h2.86v5.877c.034.807-.249 5.073 2.886 7.12 4.205 2.745 9.557.028 10.176-.436a.242.242 0 0 0 .062-.323ZM154.945 25.711l-2.288-3.938a.253.253 0 0 0-.357-.08c-.548.37-2.138 1.202-3.591.53-1.511-.695-1.465-2.654-1.465-2.654v-6.096h5.144a.25.25 0 0 0 .249-.249V8.755a.25.25 0 0 0-.249-.248h-5.144V4.324a.25.25 0 0 0-.249-.249h-4.331a.25.25 0 0 0-.249.249v1.54c0 1.123-.29 1.88-.988 2.477-.83.708-1.984.833-2.478.85a.247.247 0 0 0-.237.248v3.785a.25.25 0 0 0 .249.249h2.861v5.877c.033.807-.25 5.073 2.885 7.12 4.206 2.745 9.557.028 10.176-.436a.24.24 0 0 0 .062-.323ZM6.373 21.917V9.05a.25.25 0 0 0-.25-.248H.877a.25.25 0 0 0-.25.248v18.39a.25.25 0 0 0 .25.248h8.12a.25.25 0 0 0 .25-.249v-4.435a.25.25 0 0 0-.25-.249H7.208a.833.833 0 0 1-.834-.832v-.005ZM3.583 6.113c1.979 0 3.583-1.368 3.583-3.056C7.166 1.368 5.562 0 3.583 0S0 1.368 0 3.057c0 1.688 1.604 3.056 3.583 3.056ZM93.807 20.716a.251.251 0 0 0-.357-.024c-3.454 2.928-9.44 2.273-10.022-2.85-.49-4.315 2.915-5.91 5.098-5.918.494 0 .872.004 1.163.041a.84.84 0 0 1 .726.833v1.457c0 .141.112.253.254.253h4.355a.251.251 0 0 0 .253-.253V9.343c0-.447-.237-.865-.627-1.093-2.657-1.54-6.306-1.917-9.333-1.031-4.924 1.441-7.49 5.458-7.36 10.126.095 3.376.871 7.89 6.546 9.725 6.128 1.98 11.16-1.678 12.177-2.543a.253.253 0 0 0 .03-.352l-2.903-3.454v-.005ZM53.57 22.754h-1.383a.833.833 0 0 1-.835-.832V7.028a.25.25 0 0 0-.249-.248h-4.48a.25.25 0 0 0-.249.248V8.69c-1.486-1.201-3.296-1.91-5.252-1.91-5.04 0-9.12 4.68-9.12 10.454 0 5.774 4.084 10.454 9.12 10.454 2.267 0 4.339-.949 5.933-2.514v2.265a.25.25 0 0 0 .25.249h6.268a.25.25 0 0 0 .25-.249v-4.431a.25.25 0 0 0-.25-.249l-.004-.004Zm-11.65-.017c-2.604 0-4.713-2.464-4.713-5.504 0-3.04 2.11-5.504 4.713-5.504s4.712 2.464 4.712 5.504c0 3.04-2.11 5.505-4.712 5.505ZM76.329 22.754h-1.383a.834.834 0 0 1-.834-.832V7.028a.25.25 0 0 0-.25-.248h-4.48a.25.25 0 0 0-.248.248V8.69c-1.487-1.201-3.297-1.91-5.252-1.91-5.04 0-9.121 4.68-9.121 10.454 0 5.774 4.085 10.454 9.121 10.454 2.267 0 4.339-.949 5.933-2.514v2.265a.25.25 0 0 0 .249.249h6.269a.25.25 0 0 0 .249-.249v-4.431a.25.25 0 0 0-.25-.249l-.003-.004Zm-11.646-.017c-2.603 0-4.712-2.464-4.712-5.504 0-3.04 2.11-5.504 4.712-5.504 2.603 0 4.712 2.464 4.712 5.504 0 3.04-2.109 5.505-4.712 5.505ZM22.452 15.191c-3.234-1.341-4.35-1.59-4.338-2.832.008-1.16 1.565-1.537 3.03-1.537 1.292 0 2.865.468 2.91 1.375v1.267a.25.25 0 0 0 .25.249h4.417a.25.25 0 0 0 .25-.249V9.936a1.23 1.23 0 0 0-.432-.945c-.934-.799-3.409-2.489-7.714-2.489-6.323 0-8.627 3.11-8.627 5.7 0 2.116 1.038 4.443 6.372 6.369 4.306 1.553 5.962 2.112 5.767 3.59-.158 1.177-2.022 1.541-3.512 1.546-1.49.008-3.346-.7-3.346-1.76v-1.119a.25.25 0 0 0-.25-.248h-4.653a.25.25 0 0 0-.25.248v3.251c0 .303.108.593.308.82.838.961 3.495 3.305 9.25 2.986 5.081-.281 7.792-3.255 7.792-5.682 0-2.787-1.52-4.65-7.22-7.02l-.004.008ZM113.511 15.117a2.335 2.335 0 0 0 2.338-2.332 2.335 2.335 0 0 0-2.338-2.332 2.334 2.334 0 0 0-2.337 2.332 2.334 2.334 0 0 0 2.337 2.332ZM122.06 15.117a2.335 2.335 0 0 0 2.337-2.332 2.335 2.335 0 0 0-2.337-2.332 2.335 2.335 0 0 0-2.338 2.332 2.335 2.335 0 0 0 2.338 2.332Z"/><path d="M132.127 7a6.364 6.364 0 0 1-5.438-5.426.926.926 0 0 0-.91-.816h-17.225c-3.271 0-5.924 2.646-5.924 5.91v22.696c0 .907.734 1.64 1.644 1.64h27.031a1.64 1.64 0 0 0 1.644-1.64V7.906a.92.92 0 0 0-.817-.907h-.005Zm-18.616.865c1.831 0 3.425.998 4.276 2.473a4.927 4.927 0 0 1 4.277-2.473 4.927 4.927 0 0 1 4.932 4.92 4.927 4.927 0 0 1-4.932 4.92 4.936 4.936 0 0 1-4.277-2.472 4.924 4.924 0 0 1-4.276 2.472 4.927 4.927 0 0 1-4.932-4.92 4.927 4.927 0 0 1 4.932-4.92Zm17.167 12.358-1.594 1.935a.144.144 0 0 1-.203.02l-1.026-.84a.146.146 0 0 0-.191.008c-2.628 2.526-6.04 3.856-9.96 3.856-4.786 0-8.876-2.034-11.599-5.74a.135.135 0 0 1 .025-.183l1.972-1.59a.132.132 0 0 1 .186.025c2.209 3.069 5.452 4.692 9.416 4.692 3.604 0 6.664-1.37 8.852-3.963l.797-.945a.14.14 0 0 1 .203-.016l3.102 2.539c.062.05.07.14.02.203Z"/></g><defs><clipPath id="a"><path fill="#fff" d="M0 0h239v31H0z"/></clipPath></defs></svg>