<?xml version="1.0" encoding="UTF-8" standalone="no"?>
<!-- Created with Inkscape (http://www.inkscape.org/) -->

<svg
   width="31.584328mm"
   height="31.578939mm"
   viewBox="0 0 31.584328 31.578939"
   version="1.1"
   id="svg8524"
   inkscape:export-filename="ediya.svg"
   inkscape:export-xdpi="96"
   inkscape:export-ydpi="96"
   xmlns:inkscape="http://www.inkscape.org/namespaces/inkscape"
   xmlns:sodipodi="http://sodipodi.sourceforge.net/DTD/sodipodi-0.dtd"
   xmlns="http://www.w3.org/2000/svg"
   xmlns:svg="http://www.w3.org/2000/svg">
  <sodipodi:namedview
     id="namedview8526"
     pagecolor="#505050"
     bordercolor="#eeeeee"
     borderopacity="1"
     inkscape:showpageshadow="0"
     inkscape:pageopacity="0"
     inkscape:pagecheckerboard="0"
     inkscape:deskcolor="#505050"
     inkscape:document-units="mm"
     showgrid="false" />
  <defs
     id="defs8521" />
  <g
     inkscape:label="레이어 1"
     inkscape:groupmode="layer"
     id="layer1">
    <g
       id="g5403"
       transform="matrix(0.35277777,0,0,-0.35277777,15.791528,25.215818)">
      <path
         d="m 0,0 c -14.758,0 -26.725,11.967 -26.725,26.727 0,14.76 11.967,26.728 26.725,26.728 14.764,0 26.732,-11.968 26.732,-26.728 C 26.732,11.967 14.764,0 0,0 m 41.661,26.727 c 0,23.005 -18.653,41.657 -41.661,41.657 -23.003,0 -41.655,-18.652 -41.655,-41.657 0,-23.006 18.652,-41.659 41.655,-41.659 23.008,0 41.661,18.653 41.661,41.659"
         style="fill:#dcdddd;fill-opacity:1;fill-rule:nonzero;stroke:none"
         id="path5405" />
    </g>
    <g
       id="g5407"
       transform="matrix(0.35277777,0,0,-0.35277777,15.791528,24.704538)">
      <path
         d="m 0,0 c 13.96,0 25.281,11.317 25.281,25.277 0,13.964 -11.321,25.28 -25.281,25.28 -13.959,0 -25.277,-11.316 -25.277,-25.28 C -25.277,11.317 -13.959,0 0,0"
         style="fill:#dcdddd;fill-opacity:1;fill-rule:nonzero;stroke:none"
         id="path5409" />
    </g>
    <g
       id="g5411"
       transform="matrix(0.35277777,0,0,-0.35277777,28.181788,24.183658)">
      <path
         d="M 0,0 2.771,-0.1 1.493,2.363 Z m -3.926,-4.945 2.725,-0.514 -0.897,2.627 z m 2.053,2.398 2.76,-0.307 -1.095,2.551 z m 3.55,5.225 2.77,0.107 -1.458,2.361 z m 5.168,14.89 2.537,1.116 -2.225,1.659 z M -6.154,-7.189 -3.473,-7.9 -4.177,-5.219 Z M 3.15,5.475 5.903,5.787 4.271,8.035 Z m 1.255,2.899 2.726,0.518 -1.794,2.117 z m 1.037,2.986 2.677,0.719 -1.944,1.978 z m -35.465,-32.069 1.122,2.537 -2.778,-0.314 z m 21.483,11.447 2.626,-0.91 -0.508,2.733 z m -18.183,-10.951 0.926,2.617 -2.741,-0.519 z m -6.627,-0.75 1.306,2.451 -2.788,-0.109 z m 9.884,1.496 0.727,2.68 -2.699,-0.727 z m 12.394,8.313 2.551,-1.098 -0.303,2.76 z m -2.667,-1.694 2.459,-1.283 -0.094,2.772 z m -3.434,-4.41 0.32,2.76 -2.561,-1.125 z m -3.107,-1.221 0.525,2.725 -2.636,-0.926 z m 6.111,2.674 0.109,2.772 -2.465,-1.307 z m 20.434,30.244 2.613,0.923 -2.094,1.822 z m -17.332,47.147 -2.466,-1.27 2.353,-1.502 z m 2.747,-1.898 -2.554,-1.083 2.232,-1.676 z m 2.077,-4.819 0.52,2.721 -2.631,-0.89 z m 2.235,-2.237 0.718,2.678 -2.689,-0.694 z m -25.811,15.647 -1.672,-2.22 2.777,-0.327 z m 15.874,-5.006 -2.366,-1.449 2.46,-1.321 z m -9.278,3.715 -1.982,-1.94 2.69,-0.742 z m -3.278,0.769 -1.828,-2.084 2.736,-0.537 z m 9.562,-3.011 -2.253,-1.626 2.554,-1.135 z m 14.985,-14.51 0.92,2.618 -2.731,-0.492 z m -18.087,15.749 -2.122,-1.787 2.63,-0.941 z M 6.817,30.196 8.921,32.008 6.305,32.944 Z m 0.355,-3.138 2.236,1.647 -2.539,1.129 z m 0.125,-3.159 2.348,1.477 -2.446,1.317 z m -0.11,-3.17 2.45,1.3 -2.342,1.491 z M 1.613,45.02 2.907,47.473 0.135,47.391 Z m -1.683,2.673 1.109,2.543 -2.763,-0.289 z m 3.162,-5.466 1.477,2.35 -2.778,0.125 z m 2.315,-5.877 1.815,2.106 -2.728,0.536 z m -1.046,2.982 1.645,2.234 -2.757,0.333 z m 1.866,-6.03 1.962,1.961 -2.675,0.738 z m -39.394,35.244 -1.498,-2.336 2.789,-0.119 z"
         style="fill:#dcdddd;fill-opacity:1;fill-rule:nonzero;stroke:none"
         id="path5413" />
    </g>
    <g
       id="g5415"
       transform="matrix(0.35277777,0,0,-0.35277777,10.497608,30.681788)">
      <path
         d="m 0,0 2.118,1.789 -2.632,0.936 z m -8.987,4.381 2.469,1.277 -2.359,1.498 z m 2.882,-1.682 2.363,1.453 -2.46,1.323 z m 3.001,-1.465 2.248,1.627 -2.554,1.131 z m 16.231,-3.777 1.5,2.342 -2.796,0.115 z m -24.86,8.818 2.555,1.086 -2.241,1.672 z m 21.518,-8.55 1.664,2.22 -2.776,0.321 z M 3.182,-1 5.161,0.945 2.466,1.682 Z m 3.28,-0.764 1.826,2.09 -2.744,0.528 z m -30.911,28.373 -1.64,-2.236 2.755,-0.326 z m -2.961,15.432 -2.347,-1.483 2.449,-1.308 z m 1.908,-12.449 -1.806,-2.111 2.729,-0.53 z m -1.781,9.293 -2.229,-1.652 2.539,-1.128 z m 0.365,-3.142 -2.101,-1.813 2.614,-0.934 z m 0.597,-3.103 -1.962,-1.966 2.675,-0.735 z m 8.202,-16.921 -0.913,-2.619 2.729,0.494 z m 2.068,-2.393 -0.718,-2.68 2.685,0.698 z m -7.126,10.393 -1.473,-2.354 2.776,-0.121 z m 3.172,-5.461 -1.103,-2.547 2.76,0.295 z m -1.685,2.672 -1.292,-2.455 2.776,0.086 z m 7.874,-9.838 -0.517,-2.727 2.631,0.899 z M 9.842,86.714 8.727,84.17 l 2.776,0.321 z m -31.666,-23.436 -2.772,-0.114 1.465,-2.358 z m 1.672,2.676 -2.768,0.1 1.281,-2.462 z m 1.871,2.555 -2.763,0.302 1.103,-2.553 z m 2.049,2.401 -2.727,0.508 0.907,-2.626 z m -7.058,-10.435 -2.753,-0.318 1.634,-2.24 z m -3.674,-12.097 -2.539,-1.119 2.225,-1.659 z m 0.577,3.132 -2.618,-0.927 2.096,-1.821 z m 1.842,6.065 -2.726,-0.522 1.804,-2.115 z m -1.033,-2.985 -2.677,-0.726 1.955,-1.975 z m 11.572,18.569 -2.684,0.705 0.708,-2.683 z m 17.298,12.299 -0.725,-2.68 2.699,0.73 z m 3.249,0.749 -0.923,-2.617 2.747,0.527 z m -18.166,-10.976 -2.623,0.905 0.507,-2.728 z m 24.795,11.741 -1.299,-2.454 2.79,0.112 z m -40.477,-41.756 -2.447,-1.305 2.344,-1.488 z M 0.102,84.468 -0.416,81.74 2.219,82.673 Z m -6.53,-5.643 -2.462,1.283 0.099,-2.777 z m -2.665,-1.7 -2.547,1.097 0.304,-2.761 z m 3.089,4.659 -0.107,-2.774 2.465,1.31 z m 3,1.458 -0.314,-2.761 2.562,1.128 z"
         style="fill:#dcdddd;fill-opacity:1;fill-rule:nonzero;stroke:none"
         id="path5417" />
    </g>
    <g
       id="g5419"
       transform="matrix(0.35277777,0,0,-0.35277777,15.791528,23.201098)">
      <path
         d="m 0,0 c 11.608,0 21.016,9.411 21.016,21.016 0,11.609 -9.408,21.015 -21.016,21.015 -11.607,0 -21.014,-9.406 -21.014,-21.015 C -21.014,9.411 -11.607,0 0,0"
         style="fill:#012061;fill-opacity:1;fill-rule:nonzero;stroke:none"
         id="path5421" />
    </g>
    <g
       id="g5423"
       transform="matrix(0.35277777,0,0,-0.35277777,19.947318,10.326968)">
      <path
         d="m 0,0 -1.927,-2.727 c -1.194,0.326 -1.779,1.211 -1.232,2.366 0.192,0.528 0.388,1.058 0.231,1.664 -1.441,-0.272 -2.574,-2.558 -4.16,-1.429 0.458,1.166 0.557,2.715 1.698,3.384 1.25,0.295 2.32,-0.701 3.455,-1.04 C -1.15,1.561 0.282,1.28 0,0"
         style="fill:#dcdddd;fill-opacity:1;fill-rule:nonzero;stroke:none"
         id="path5425" />
    </g>
    <g
       id="g5427"
       transform="matrix(0.35277777,0,0,-0.35277777,21.806988,11.926498)">
      <path
         d="m 0,0 c 0.03,-1.734 -2.07,-1.628 -3.082,-2.485 -1.78,1.213 0.699,2.622 0.777,3.983 L -2.554,1.66 C -3.721,1.411 -5.32,-0.271 -6.237,1.184 c 0.572,1.038 1.29,2.839 2.84,2.74 C -2.13,2.694 -0.735,1.585 0,0"
         style="fill:#dcdddd;fill-opacity:1;fill-rule:nonzero;stroke:none"
         id="path5429" />
    </g>
    <g
       id="g5431"
       transform="matrix(0.35277777,0,0,-0.35277777,17.091018,10.263578)">
      <path
         d="m 0,0 c -0.738,0.025 -1.959,0.014 -1.766,1.246 0.245,0.602 -0.257,1.23 -0.287,1.802 L -2.484,2.926 C -3.52,2.187 -3.68,-0.077 -5.324,0.188 c -0.3,1.553 -0.74,3.354 0.536,4.387 1.874,0.247 3.655,0.041 5.387,-0.478 C 1.878,2.81 0.171,1.35 0,0"
         style="fill:#dcdddd;fill-opacity:1;fill-rule:nonzero;stroke:none"
         id="path5433" />
    </g>
    <g
       id="g5435"
       transform="matrix(0.35277777,0,0,-0.35277777,22.419518,13.089928)">
      <path
         d="m 0,0 c 0.074,-1.664 1.93,-4.078 -0.071,-5.298 l -2.692,-0.414 c -0.426,0.424 -0.166,1.061 -0.405,1.622 0.623,0.957 1.943,1.358 2.173,2.569 -1.057,0.233 -2.943,-0.807 -3.17,0.701 -0.633,1.118 0.749,1.226 1.283,1.585 C -1.89,1.28 -0.286,1.346 0,0"
         style="fill:#dcdddd;fill-opacity:1;fill-rule:nonzero;stroke:none"
         id="path5437" />
    </g>
    <g
       id="g5439"
       transform="matrix(0.35277777,0,0,-0.35277777,14.823968,10.247558)">
      <path
         d="m 0,0 c -0.279,-0.119 -0.545,-0.299 -0.931,-0.351 -0.781,0.661 -1.317,1.614 -2.134,2.145 -0.793,-1.146 0.699,-3.731 -1.751,-3.854 -0.682,1.049 -1.677,2 -1.595,3.36 0.94,1.909 3.314,2.381 5.218,2.753 C 0.34,3.31 -0.226,1.356 0,0"
         style="fill:#dcdddd;fill-opacity:1;fill-rule:nonzero;stroke:none"
         id="path5441" />
    </g>
    <g
       id="g5443"
       transform="matrix(0.35277777,0,0,-0.35277777,22.864968,16.798218)">
      <path
         d="m 0,0 c -0.268,-1.034 -0.229,-2.371 -1.346,-3.003 -1.299,-0.214 -2.351,0.569 -3.539,0.839 -0.268,0.677 0.256,1.396 0.352,2.089 1.111,0.235 2.056,0.682 3.084,1.02 -0.608,0.697 -1.747,1.035 -2.619,1.554 -0.087,0.406 0.201,0.774 -0.014,1.218 1.195,0.132 3,1.122 3.929,-0.237 C 0.067,2.428 0.071,1.114 0,0"
         style="fill:#dcdddd;fill-opacity:1;fill-rule:nonzero;stroke:none"
         id="path5445" />
    </g>
    <g
       id="g5447"
       transform="matrix(0.35277777,0,0,-0.35277777,12.804948,11.191838)">
      <path
         d="m 0,0 c -1.084,-1.515 -2.644,0.508 -4.037,0.458 -0.15,-1.313 1.84,-2.911 0.221,-3.771 -1.136,0.889 -2.572,1.622 -2.548,3.217 1.36,1.233 2.619,3.792 4.597,2.959 z"
         style="fill:#dcdddd;fill-opacity:1;fill-rule:nonzero;stroke:none"
         id="path5449" />
    </g>
    <g
       id="g5451"
       transform="matrix(0.35277777,0,0,-0.35277777,21.679528,19.814048)">
      <path
         d="m 0,0 c -0.365,-0.72 -1.289,-1.126 -2.016,-0.853 -0.678,0.74 -1.854,1.104 -2.39,1.905 0.658,1.791 2.548,0.511 3.868,0.91 -0.372,0.899 -1.283,1.44 -1.865,2.173 0.183,0.436 0.235,0.905 0.583,1.284 L 1.3,4.247 C 2.464,2.784 0.43,1.434 0,0"
         style="fill:#dcdddd;fill-opacity:1;fill-rule:nonzero;stroke:none"
         id="path5453" />
    </g>
    <g
       id="g5455"
       transform="matrix(0.35277777,0,0,-0.35277777,11.209368,12.661198)">
      <path
         d="m 0,0 c -0.5,-2.397 -2.566,-0.451 -3.917,-0.982 0.157,-1.311 2.894,-1.984 1.329,-3.536 -1.047,0.481 -2.654,0.568 -3.089,1.91 0.436,1.529 1.193,3.155 2.198,4.467 C -1.94,2.522 -1.042,0.726 0,0"
         style="fill:#dcdddd;fill-opacity:1;fill-rule:nonzero;stroke:none"
         id="path5457" />
    </g>
    <g
       id="g5459"
       transform="matrix(0.35277777,0,0,-0.35277777,20.743508,20.766618)">
      <path
         d="m 0,0 c -0.972,-1.334 -2.18,-2.262 -3.413,-3.227 -1.857,-0.453 -1.753,1.798 -2.571,2.783 -0.134,0.34 0.216,0.717 0.48,0.898 1.102,0.142 1.991,-1.043 3.062,-1.03 -0.121,0.982 -1.473,2.618 -0.16,3.478 C -1.456,2.105 0.102,1.396 0,0"
         style="fill:#dcdddd;fill-opacity:1;fill-rule:nonzero;stroke:none"
         id="path5461" />
    </g>
    <g
       id="g5463"
       transform="matrix(0.35277777,0,0,-0.35277777,10.031828,14.936158)">
      <path
         d="m 0,0 c -0.886,-0.584 -2.067,-0.774 -2.891,-1.497 0.861,-0.613 2.011,-0.705 2.959,-1.573 0.091,-0.562 -0.173,-1.197 -0.761,-1.168 -0.89,-0.13 -2.216,-0.776 -2.862,0.249 -0.418,1.682 -0.107,3.398 0.095,5.029 0.24,0.601 0.81,0.936 1.361,0.929 C -1.411,1.32 1.121,1.49 0,0"
         style="fill:#dcdddd;fill-opacity:1;fill-rule:nonzero;stroke:none"
         id="path5465" />
    </g>
    <g
       id="g5467"
       transform="matrix(0.35277777,0,0,-0.35277777,18.439408,22.486588)">
      <path
         d="M 0,0 C -1.766,-0.469 -4.072,-1.84 -5.598,-0.393 -5.917,0.67 -5.968,2.066 -5.685,3.194 -4.028,3.88 -3.479,1.859 -2.65,0.967 l 0.295,0.06 C -1.899,2.191 -2.273,4.25 -0.613,4.482 -0.364,3.009 1.988,1.277 0,0"
         style="fill:#dcdddd;fill-opacity:1;fill-rule:nonzero;stroke:none"
         id="path5469" />
    </g>
    <g
       id="g5471"
       transform="matrix(0.35277777,0,0,-0.35277777,10.198728,17.303788)">
      <path
         d="m 0,0 c -0.616,-0.556 -1.455,-0.919 -2.008,-1.617 0.969,-0.983 3.473,0.308 3.476,-1.857 -1.05,-0.377 -1.913,-1.781 -3.22,-1.08 -0.884,1.279 -1.208,2.951 -1.879,4.396 0.154,0.554 0.364,0.873 0.829,1.277 l 2.548,0.508 C -0.292,1.1 -0.088,0.563 0,0"
         style="fill:#dcdddd;fill-opacity:1;fill-rule:nonzero;stroke:none"
         id="path5473" />
    </g>
    <g
       id="g5475"
       transform="matrix(0.35277777,0,0,-0.35277777,15.809098,22.785638)">
      <path
         d="M 0,0 C -1.595,-0.123 -3.621,-0.215 -4.817,0.965 -5.136,2.184 -4.187,3.18 -3.846,4.32 -2.288,4.314 -2.629,2.316 -1.94,1.516 -0.786,2.125 -0.95,4.044 0.481,3.921 0.708,2.715 1.065,1.021 0,0"
         style="fill:#dcdddd;fill-opacity:1;fill-rule:nonzero;stroke:none"
         id="path5477" />
    </g>
    <g
       id="g5479"
       transform="matrix(0.35277777,0,0,-0.35277777,10.678828,20.009728)">
      <path
         d="m 0,0 c -0.064,-0.411 0.332,-0.268 0.53,-0.347 1.068,0.013 2.552,1.52 3.388,0.015 C 3.082,-1.15 2.665,-2.49 1.472,-2.773 0.147,-1.86 -0.921,-0.409 -1.977,0.833 -2.2,1.885 -1.16,2.167 -0.487,2.736 0.162,3.424 0.865,3.114 1.133,2.287 Z"
         style="fill:#dcdddd;fill-opacity:1;fill-rule:nonzero;stroke:none"
         id="path5481" />
    </g>
    <g
       id="g5483"
       transform="matrix(0.35277777,0,0,-0.35277777,14.070008,21.220358)">
      <path
         d="m 0,0 c -0.618,-1.11 -0.495,-2.855 -2.048,-3.156 l -0.728,-0.031 c -1.255,1.021 -4.062,1.588 -3.743,3.547 L -5.066,2.438 -3.61,1.494 C -3.733,0.612 -4.273,-0.296 -3.926,-1.076 -2.566,-0.853 -1.462,1.157 0,0"
         style="fill:#dcdddd;fill-opacity:1;fill-rule:nonzero;stroke:none"
         id="path5485" />
    </g>
    <g
       id="g5487"
       transform="matrix(0.35277777,0,0,-0.35277777,15.078208,10.575858)">
      <path
         d="M 0,0 C 1.05,0.527 2.716,0.147 4.087,0.162 L 1.622,-0.452 Z"
         style="fill:#dcdddd;fill-opacity:1;fill-rule:nonzero;stroke:none"
         id="path5489" />
    </g>
    <g
       id="g5491"
       transform="matrix(0.35277777,0,0,-0.35277777,16.974888,11.598028)">
      <path
         d="m 0,0 c -2.772,-1.622 -5.914,-1.342 -9.078,-2.408 l -0.177,0.115 C -6.714,-0.015 -3.77,1.8 -0.084,2.275 0.158,1.565 0.085,0.754 0,0"
         style="fill:#dcdddd;fill-opacity:1;fill-rule:nonzero;stroke:none"
         id="path5493" />
    </g>
    <g
       id="g5495"
       transform="matrix(0.35277777,0,0,-0.35277777,15.162108,10.968108)">
      <path
         d="M 0,0 C -1.276,-1.341 -2.912,-0.526 -4.414,-0.508 -3.185,0.607 -1.426,0.525 0,0"
         style="fill:#dcdddd;fill-opacity:1;fill-rule:nonzero;stroke:none"
         id="path5497" />
    </g>
    <g
       id="g5499"
       transform="matrix(0.35277777,0,0,-0.35277777,17.458938,13.476638)">
      <path
         d="M 0,0 C 2.098,-1.453 3.801,-3.032 5.086,-5.782 5.335,-6.533 4.995,-6.931 4.397,-6.998 2.315,-7.407 1.9,-7.339 -0.276,-7.435 c -0.165,-1.766 -0.229,-5.523 -0.229,-5.523 -1.143,-0.369 -4.637,0.625 -5.983,1.255 -0.235,0.102 -0.767,0.454 -1.022,0.218 -0.338,-0.287 -0.095,-0.494 0.083,-0.762 2.369,-1.439 3.746,-1.523 6.942,-1.877 -0.421,-3.357 0.087,-3.615 -0.203,-7.004 -3.992,-0.174 -8.252,2.192 -10.551,5.554 -2.757,3.203 -3.136,7.886 -3.184,12 0.228,1.822 1.32,3.883 2.666,5.177 2.638,-1.368 5.536,-1.942 8.122,-3.626 0.307,0.004 0.549,0.148 0.678,0.418 -0.731,1.128 1.018,1.254 1.029,2.355 0.106,0.787 0.069,2.122 -0.759,2.56 l -0.175,0.114 1.379,0.413 C -1.234,2.668 -1.928,0.75 0,0"
         style="fill:#dcdddd;fill-opacity:1;fill-rule:nonzero;stroke:none"
         id="path5501" />
    </g>
    <g
       id="g5503"
       transform="matrix(0.35277777,0,0,-0.35277777,16.389598,13.207758)">
      <path
         d="m 0,0 c -0.379,-0.813 -1.195,-0.987 -1.937,-0.807 -0.646,0.321 -1.208,0.785 -1.058,1.547 0.412,0.638 0.849,1.614 1.776,1.263 C -0.246,2.024 0.296,0.917 0,0"
         style="fill:#dcdddd;fill-opacity:1;fill-rule:nonzero;stroke:none"
         id="path5505" />
    </g>
    <g
       id="g5507"
       transform="matrix(0.35277777,0,0,-0.35277777,14.164408,11.599758)">
      <path
         d="m 0,0 c -1.227,-1.726 -3.117,-1.299 -4.887,-1.155 l 1.761,1.624 C -2.059,0.482 -1.07,0.141 0,0"
         style="fill:#dcdddd;fill-opacity:1;fill-rule:nonzero;stroke:none"
         id="path5509" />
    </g>
    <g
       id="g5511"
       transform="matrix(0.35277777,0,0,-0.35277777,15.009138,13.252348)">
      <path
         d="M 0,0 -3.181,1.312 0.55,2.164 C 0.02,1.5 -0.292,0.793 0,0"
         style="fill:#dcdddd;fill-opacity:1;fill-rule:nonzero;stroke:none"
         id="path5513" />
    </g>
    <g
       id="g5515"
       transform="matrix(0.35277777,0,0,-0.35277777,13.204748,12.470338)">
      <path
         d="m 0,0 c -0.508,-0.627 -1.099,-1.149 -1.485,-1.905 l -3.346,0.211 c 0.169,0.798 1.155,1.465 1.748,2.139 C -2.064,0.234 -0.996,0.247 0,0"
         style="fill:#dcdddd;fill-opacity:1;fill-rule:nonzero;stroke:none"
         id="path5517" />
    </g>
    <g
       id="g5519"
       transform="matrix(0.35277777,0,0,-0.35277777,12.122148,14.327048)">
      <path
         d="m 0,0 -3.905,0.122 c 0.272,1.035 0.957,1.85 1.589,2.595 L 0.844,2.378 C 0.626,1.661 0.262,0.791 0,0"
         style="fill:#dcdddd;fill-opacity:1;fill-rule:nonzero;stroke:none"
         id="path5521" />
    </g>
    <g
       id="g5523"
       transform="matrix(0.35277777,0,0,-0.35277777,12.065458,15.481158)">
      <path
         d="M 0,0 C -1.545,-0.052 -3.008,-0.36 -4.536,-0.073 -4.742,0.768 -4.39,1.7 -4.05,2.533 -2.767,2.257 -1.352,2.492 -0.038,2.191 Z"
         style="fill:#dcdddd;fill-opacity:1;fill-rule:nonzero;stroke:none"
         id="path5525" />
    </g>
    <g
       id="g5527"
       transform="matrix(0.35277777,0,0,-0.35277777,12.186738,16.716058)">
      <path
         d="M 0,0 C -1.522,-0.168 -3.406,-0.506 -4.839,-0.23 L -5.006,2.3 c 1.524,0.019 3.242,0.26 4.782,-0.088 z"
         style="fill:#dcdddd;fill-opacity:1;fill-rule:nonzero;stroke:none"
         id="path5529" />
    </g>
    <g
       id="g5531"
       transform="matrix(0.35277777,0,0,-0.35277777,12.510588,17.939598)">
      <path
         d="m 0,0 -4.287,-0.236 c -0.638,0.413 -0.72,1.525 -1.231,2.212 1.332,0.495 3.056,0.281 4.541,0.473 C -0.383,1.811 -0.335,0.721 0,0"
         style="fill:#dcdddd;fill-opacity:1;fill-rule:nonzero;stroke:none"
         id="path5533" />
    </g>
    <g
       id="g5535"
       transform="matrix(0.35277777,0,0,-0.35277777,13.071788,18.909738)">
      <path
         d="m 0,0 c -1.147,-0.364 -2.585,-0.334 -3.982,-0.536 -0.917,0.447 -1.115,1.381 -1.64,2.126 l 4.43,0.296 z"
         style="fill:#dcdddd;fill-opacity:1;fill-rule:nonzero;stroke:none"
         id="path5537" />
    </g>
    <g
       id="g5539"
       transform="matrix(0.35277777,0,0,-0.35277777,13.671228,19.762398)">
      <path
         d="M 0,0 C -1.688,0.191 -3.851,-1.272 -4.986,0.928 -3.328,1.158 -0.248,2.481 0,0"
         style="fill:#dcdddd;fill-opacity:1;fill-rule:nonzero;stroke:none"
         id="path5541" />
    </g>
    <g
       id="g5543"
       transform="matrix(0.35277777,0,0,-0.35277777,14.254828,20.835548)">
      <path
         d="M 0,0 C 1.709,1.308 3.203,-0.572 4.823,-0.72 3.195,-0.668 1.555,-0.556 0,0"
         style="fill:#dcdddd;fill-opacity:1;fill-rule:nonzero;stroke:none"
         id="path5545" />
    </g>
    <g
       id="g5547"
       transform="matrix(0.35277777,0,0,-0.35277777,14.470168,20.423858)">
      <path
         d="M 0,0 C -1.301,-0.212 -2.568,-1.155 -3.588,0.065 L -4.583,0.711 C -3.094,0.751 -0.951,2.028 0,0"
         style="fill:#dcdddd;fill-opacity:1;fill-rule:nonzero;stroke:none"
         id="path5549" />
    </g>
    <g
       id="g5551"
       transform="matrix(0.35277777,0,0,-0.35277777,18.443538,11.134158)">
      <path
         d="M 0,0 C -0.625,0.326 -1.272,0.614 -1.929,0.866 -2.33,0.902 -2.736,0.882 -3.139,0.819 -3.129,0.487 -3.121,0.154 -3.125,-0.177 -2.13,-0.414 -1.037,-0.04 0,0"
         style="fill:#dcdddd;fill-opacity:1;fill-rule:nonzero;stroke:none"
         id="path5553" />
    </g>
    <g
       id="g5555"
       transform="matrix(0.35277777,0,0,-0.35277777,19.695508,11.999208)">
      <path
         d="M 0,0 C -0.655,0.597 -1.366,1.139 -2.12,1.624 -3.147,1.564 -5.148,1.35 -6.736,1.169 -6.764,0.96 -6.797,0.754 -6.845,0.553 -6.748,0.279 -6.726,-0.017 -6.738,-0.317 -5.16,-0.432 -1.188,-0.097 0,0"
         style="fill:#dcdddd;fill-opacity:1;fill-rule:nonzero;stroke:none"
         id="path5557" />
    </g>
    <g
       id="g5559"
       transform="matrix(0.35277777,0,0,-0.35277777,20.007298,12.310468)">
      <path
         d="m 0,0 c -1.096,-0.137 -5.211,-0.172 -7.704,-0.276 -0.094,-0.776 -0.15,-1.526 0.536,-2.035 l 8.767,0.183 C 1.143,-1.364 0.604,-0.654 0,0"
         style="fill:#dcdddd;fill-opacity:1;fill-rule:nonzero;stroke:none"
         id="path5561" />
    </g>
    <g
       id="g5563"
       transform="matrix(0.35277777,0,0,-0.35277777,20.736588,13.361068)">
      <path
         d="m 0,0 -7.793,-0.273 c 0.998,-0.703 1.882,-1.487 2.656,-2.403 l 6.065,0.07 C 0.719,-1.686 0.404,-0.816 0,0"
         style="fill:#dcdddd;fill-opacity:1;fill-rule:nonzero;stroke:none"
         id="path5565" />
    </g>
    <g
       id="g5567"
       transform="matrix(0.35277777,0,0,-0.35277777,21.144158,15.536968)">
      <path
         d="M 0,0 0.058,1.245 C 0.045,1.718 0.003,2.18 -0.064,2.632 -1.258,2.553 -3.493,2.554 -5.563,2.54 -5.134,1.922 -4.743,1.248 -4.396,0.5 -4.345,0.351 -4.303,0.179 -4.273,0 -2.668,-0.03 -1.085,-0.041 0,0"
         style="fill:#dcdddd;fill-opacity:1;fill-rule:nonzero;stroke:none"
         id="path5569" />
    </g>
    <g
       id="g5571"
       transform="matrix(0.35277777,0,0,-0.35277777,19.390958,16.138318)">
      <path
         d="m 0,0 c -2.188,-0.952 -2.618,-0.519 -4.932,-0.733 0.012,-0.333 0.021,-0.654 0.025,-0.966 2.117,-0.143 7.059,-0.328 9.501,-0.256 0.099,0.406 0.187,0.815 0.262,1.225 L 4.92,0.689 C 3.871,0.71 2.302,0.743 0.688,0.758 0.604,0.387 0.396,0.085 0,0"
         style="fill:#dcdddd;fill-opacity:1;fill-rule:nonzero;stroke:none"
         id="path5573" />
    </g>
    <g
       id="g5575"
       transform="matrix(0.35277777,0,0,-0.35277777,17.640508,17.955088)">
      <path
         d="m 0,0 8.387,-0.183 c 0.355,0.78 0.652,1.582 0.9,2.397 C 6.887,2.421 2.087,2.357 0.06,2.442 0.055,1.575 0.032,0.771 0,0"
         style="fill:#dcdddd;fill-opacity:1;fill-rule:nonzero;stroke:none"
         id="path5577" />
    </g>
    <g
       id="g5579"
       transform="matrix(0.35277777,0,0,-0.35277777,17.591228,19.007208)">
      <path
         d="M 0,0 C 2.319,-0.092 5.29,-0.128 6.784,-0.213 7.266,0.448 7.698,1.152 8.082,1.886 L 0.1,2.099 C 0.064,1.393 0.03,0.701 0,0"
         style="fill:#dcdddd;fill-opacity:1;fill-rule:nonzero;stroke:none"
         id="path5581" />
    </g>
    <g
       id="g5583"
       transform="matrix(0.35277777,0,0,-0.35277777,17.629818,19.394808)">
      <path
         d="m 0,0 c -0.051,-0.022 -0.1,-0.048 -0.146,-0.075 -0.008,-0.399 -0.012,-0.808 -0.008,-1.227 1.275,-0.035 3.264,-0.337 4.82,-0.07 0.456,0.413 0.887,0.859 1.289,1.333 C 4.229,0.151 0.92,0.417 0,0"
         style="fill:#dcdddd;fill-opacity:1;fill-rule:nonzero;stroke:none"
         id="path5585" />
    </g>
    <g
       id="g5587"
       transform="matrix(0.35277777,0,0,-0.35277777,17.585018,20.298798)">
      <path
         d="m 0,0 c 0.008,-0.236 0.019,-0.479 0.032,-0.724 0.478,-0.108 0.947,-0.242 1.401,-0.285 0.843,0.368 1.63,0.828 2.356,1.37 C 2.535,0.499 0.966,1.044 0,0"
         style="fill:#dcdddd;fill-opacity:1;fill-rule:nonzero;stroke:none"
         id="path5589" />
    </g>
    <g
       id="g5591"
       transform="matrix(0.35277777,0,0,-0.35277777,19.482568,10.343838)">
      <path
         d="M 0,0 C -0.091,-0.293 -0.269,-0.179 -0.479,-0.192 -0.683,-0.114 -0.659,0.076 -0.72,0.215 -0.597,0.792 0.368,0.416 0,0"
         style="fill:#012061;fill-opacity:1;fill-rule:nonzero;stroke:none"
         id="path5593" />
    </g>
    <g
       id="g5595"
       transform="matrix(0.35277777,0,0,-0.35277777,20.602928,11.108298)">
      <path
         d="m 0,0 c -0.081,-0.2 -0.246,-0.296 -0.454,-0.311 -0.178,0.115 -0.365,0.289 -0.265,0.524 0.069,0.258 0.364,0.321 0.525,0.265 C -0.154,0.302 0.173,0.189 0,0"
         style="fill:#012061;fill-opacity:1;fill-rule:nonzero;stroke:none"
         id="path5597" />
    </g>
    <g
       id="g5599"
       transform="matrix(0.35277777,0,0,-0.35277777,18.354318,9.6987482)">
      <path
         d="m 0,0 c -0.113,-0.331 -0.37,-0.416 -0.64,-0.289 0,0.152 -0.158,0.302 -0.088,0.408 C -0.649,0.626 0.088,0.445 0,0"
         style="fill:#012061;fill-opacity:1;fill-rule:nonzero;stroke:none"
         id="path5601" />
    </g>
    <g
       id="g5603"
       transform="matrix(0.35277777,0,0,-0.35277777,21.410818,12.025738)">
      <path
         d="m 0,0 c -0.234,-0.201 -0.711,-0.242 -0.765,0.144 -0.059,0.292 0.35,0.532 0.57,0.489 C 0.054,0.469 0.069,0.259 0,0"
         style="fill:#012061;fill-opacity:1;fill-rule:nonzero;stroke:none"
         id="path5605" />
    </g>
    <g
       id="g5607"
       transform="matrix(0.35277777,0,0,-0.35277777,17.002828,9.3709382)">
      <path
         d="M 0,0 C -0.117,-0.176 -0.241,-0.294 -0.453,-0.31 -0.667,-0.171 -0.902,-0.069 -0.869,0.212 -0.665,0.534 0.016,0.492 0,0"
         style="fill:#012061;fill-opacity:1;fill-rule:nonzero;stroke:none"
         id="path5609" />
    </g>
    <g
       id="g5611"
       transform="matrix(0.35277777,0,0,-0.35277777,15.788068,9.1332382)">
      <path
         d="M 0,0 C -0.162,-0.246 -0.369,-0.26 -0.626,-0.191 -0.758,-0.159 -0.739,0.03 -0.764,0.146 -0.711,0.766 0.044,0.376 0,0"
         style="fill:#012061;fill-opacity:1;fill-rule:nonzero;stroke:none"
         id="path5613" />
    </g>
    <g
       id="g5615"
       transform="matrix(0.35277777,0,0,-0.35277777,21.919318,13.210678)">
      <path
         d="m 0,0 c -0.11,-0.329 -0.365,-0.417 -0.636,-0.289 -0.141,0.09 -0.214,0.29 -0.123,0.432 0.147,0.155 0.216,0.414 0.452,0.31 C -0.13,0.339 -0.011,0.211 0,0"
         style="fill:#012061;fill-opacity:1;fill-rule:nonzero;stroke:none"
         id="path5617" />
    </g>
    <g
       id="g5619"
       transform="matrix(0.35277777,0,0,-0.35277777,22.166998,14.473308)">
      <path
         d="m 0,0 c -0.105,-0.235 -0.324,-0.495 -0.594,-0.368 -0.038,0.174 -0.17,0.362 -0.194,0.475 0.103,0.236 0.358,0.321 0.559,0.244 C -0.041,0.329 -0.064,0.141 0,0"
         style="fill:#012061;fill-opacity:1;fill-rule:nonzero;stroke:none"
         id="path5621" />
    </g>
    <g
       id="g5623"
       transform="matrix(0.35277777,0,0,-0.35277777,14.303228,9.4465782)">
      <path
         d="M 0,0 C -0.175,-0.038 -0.266,-0.18 -0.478,-0.193 -0.805,-0.08 -0.692,0.097 -0.671,0.283 -0.488,0.721 0.276,0.424 0,0"
         style="fill:#012061;fill-opacity:1;fill-rule:nonzero;stroke:none"
         id="path5625" />
    </g>
    <g
       id="g5627"
       transform="matrix(0.35277777,0,0,-0.35277777,22.504648,15.941778)">
      <path
         d="M 0,0 C -0.101,-0.389 -0.404,-0.239 -0.629,-0.194 -0.893,0.024 -0.825,0.587 -0.368,0.594 -0.158,0.455 0.128,0.27 0,0"
         style="fill:#012061;fill-opacity:1;fill-rule:nonzero;stroke:none"
         id="path5629" />
    </g>
    <g
       id="g5631"
       transform="matrix(0.35277777,0,0,-0.35277777,13.205988,10.013278)">
      <path
         d="M 0,0 C -0.235,-0.05 -0.513,-0.171 -0.659,0.073 -0.672,0.286 -0.501,0.781 -0.221,0.595 0.135,0.518 0.046,0.225 0,0"
         style="fill:#012061;fill-opacity:1;fill-rule:nonzero;stroke:none"
         id="path5633" />
    </g>
    <g
       id="g5635"
       transform="matrix(0.35277777,0,0,-0.35277777,22.247608,17.321708)">
      <path
         d="M 0,0 -0.206,-0.318 C -0.536,-0.358 -0.949,0.014 -0.649,0.321 -0.536,0.651 0.286,0.519 0,0"
         style="fill:#012061;fill-opacity:1;fill-rule:nonzero;stroke:none"
         id="path5637" />
    </g>
    <g
       id="g5639"
       transform="matrix(0.35277777,0,0,-0.35277777,12.002238,10.687828)">
      <path
         d="M 0,0 C -0.162,-0.249 -0.374,-0.263 -0.63,-0.195 -0.761,-0.162 -0.739,0.025 -0.764,0.144 -0.569,0.52 0.018,0.493 0,0"
         style="fill:#012061;fill-opacity:1;fill-rule:nonzero;stroke:none"
         id="path5641" />
    </g>
    <g
       id="g5643"
       transform="matrix(0.35277777,0,0,-0.35277777,15.598598,14.344478)">
      <path
         d="m 0,0 c -0.066,-0.258 -0.466,-0.251 -0.633,-0.194 -0.034,0.176 -0.377,0.35 -0.109,0.527 0.067,0.258 0.326,0.342 0.525,0.263 C 0.042,0.529 0.06,0.165 0,0"
         style="fill:#012061;fill-opacity:1;fill-rule:nonzero;stroke:none"
         id="path5645" />
    </g>
    <g
       id="g5647"
       transform="matrix(0.35277777,0,0,-0.35277777,11.138388,11.495728)">
      <path
         d="M 0,0 C -0.176,-0.038 -0.303,-0.309 -0.49,-0.135 -0.596,-0.065 -0.868,0.059 -0.694,0.25 -0.604,0.696 0.158,0.553 0,0"
         style="fill:#012061;fill-opacity:1;fill-rule:nonzero;stroke:none"
         id="path5649" />
    </g>
    <g
       id="g5651"
       transform="matrix(0.35277777,0,0,-0.35277777,15.760348,14.752178)">
      <path
         d="m 0,0 -0.529,0.346 c 0.017,0.341 0.387,0.756 0.72,0.49 C 0.426,0.581 0.34,0.134 0,0"
         style="fill:#012061;fill-opacity:1;fill-rule:nonzero;stroke:none"
         id="path5653" />
    </g>
    <g
       id="g5655"
       transform="matrix(0.35277777,0,0,-0.35277777,15.155048,14.233348)">
      <path
         d="m 0,0 c -0.173,-0.343 -0.74,-0.125 -0.833,0.189 -0.13,0.338 0.326,0.345 0.461,0.555 C -0.042,0.632 0.092,0.295 0,0"
         style="fill:#012061;fill-opacity:1;fill-rule:nonzero;stroke:none"
         id="path5657" />
    </g>
    <g
       id="g5659"
       transform="matrix(0.35277777,0,0,-0.35277777,21.878988,18.807078)">
      <path
         d="M 0,0 C -0.242,-0.295 -0.443,-0.062 -0.692,0.1 -0.89,0.331 -0.616,0.755 -0.299,0.703 0.021,0.645 0.043,0.225 0,0"
         style="fill:#012061;fill-opacity:1;fill-rule:nonzero;stroke:none"
         id="path5661" />
    </g>
    <g
       id="g5663"
       transform="matrix(0.35277777,0,0,-0.35277777,16.045068,15.025198)">
      <path
         d="M 0,0 C -0.068,-0.259 -0.324,-0.345 -0.525,-0.264 -0.784,-0.199 -0.778,0.203 -0.719,0.365 -0.514,0.835 0.274,0.423 0,0"
         style="fill:#012061;fill-opacity:1;fill-rule:nonzero;stroke:none"
         id="path5665" />
    </g>
    <g
       id="g5667"
       transform="matrix(0.35277777,0,0,-0.35277777,14.654278,14.156518)">
      <path
         d="m 0,0 c -0.091,-0.293 -0.372,-0.262 -0.597,-0.371 -0.444,0.243 -0.252,0.772 0.109,0.94 C -0.169,0.515 -0.038,0.328 0,0"
         style="fill:#012061;fill-opacity:1;fill-rule:nonzero;stroke:none"
         id="path5669" />
    </g>
    <g
       id="g5671"
       transform="matrix(0.35277777,0,0,-0.35277777,16.062988,15.463948)">
      <path
         d="m 0,0 c -0.177,-0.342 -0.708,-0.546 -0.88,-0.033 -0.018,0.21 0.145,0.612 0.497,0.534 C -0.207,0.385 0.029,0.283 0,0"
         style="fill:#012061;fill-opacity:1;fill-rule:nonzero;stroke:none"
         id="path5673" />
    </g>
    <g
       id="g5675"
       transform="matrix(0.35277777,0,0,-0.35277777,14.117878,14.323448)">
      <path
         d="M 0,0 C -0.065,-0.26 -0.464,-0.252 -0.63,-0.197 -0.771,-0.103 -0.727,0.122 -0.785,0.262 -0.689,0.798 0.475,0.648 0,0"
         style="fill:#012061;fill-opacity:1;fill-rule:nonzero;stroke:none"
         id="path5677" />
    </g>
    <g
       id="g5679"
       transform="matrix(0.35277777,0,0,-0.35277777,13.719628,14.526368)">
      <path
         d="M 0,0 C -0.066,-0.258 -0.324,-0.345 -0.523,-0.264 -0.713,-0.242 -0.69,-0.056 -0.75,0.084 -0.62,0.755 0.262,0.483 0,0"
         style="fill:#012061;fill-opacity:1;fill-rule:nonzero;stroke:none"
         id="path5681" />
    </g>
    <g
       id="g5683"
       transform="matrix(0.35277777,0,0,-0.35277777,10.337228,12.591948)">
      <path
         d="M 0,0 -0.565,-0.09 C -0.777,0.201 -0.478,0.661 -0.126,0.584 0.018,0.338 0.029,0.28 0,0"
         style="fill:#012061;fill-opacity:1;fill-rule:nonzero;stroke:none"
         id="path5685" />
    </g>
    <g
       id="g5687"
       transform="matrix(0.35277777,0,0,-0.35277777,21.215488,19.690718)">
      <path
         d="M 0,0 C -0.138,-0.214 -0.324,-0.496 -0.594,-0.37 -0.982,-0.114 -0.895,0.331 -0.556,0.463 -0.348,0.475 0.077,0.352 0,0"
         style="fill:#012061;fill-opacity:1;fill-rule:nonzero;stroke:none"
         id="path5689" />
    </g>
    <g
       id="g5691"
       transform="matrix(0.35277777,0,0,-0.35277777,13.408908,14.894138)">
      <path
         d="M 0,0 C -0.066,-0.259 -0.336,-0.133 -0.559,-0.24 -0.876,-0.033 -0.917,0.448 -0.483,0.569 -0.215,0.596 0.174,0.343 0,0"
         style="fill:#012061;fill-opacity:1;fill-rule:nonzero;stroke:none"
         id="path5693" />
    </g>
    <g
       id="g5695"
       transform="matrix(0.35277777,0,0,-0.35277777,15.676098,16.439938)">
      <path
         d="M 0,0 C -0.222,-0.109 -0.38,-0.356 -0.597,-0.216 -0.833,-0.114 -1.091,0.107 -0.966,0.377 -0.688,0.802 0.413,0.638 0,0"
         style="fill:#012061;fill-opacity:1;fill-rule:nonzero;stroke:none"
         id="path5697" />
    </g>
    <g
       id="g5699"
       transform="matrix(0.35277777,0,0,-0.35277777,15.922448,15.968978)">
      <path
         d="M 0,0 C -0.221,-0.11 -0.382,-0.357 -0.594,-0.219 -0.831,-0.115 -1.092,0.105 -0.965,0.375 -0.688,0.801 0.416,0.637 0,0"
         style="fill:#012061;fill-opacity:1;fill-rule:nonzero;stroke:none"
         id="path5701" />
    </g>
    <g
       id="g5703"
       transform="matrix(0.35277777,0,0,-0.35277777,13.109678,15.410178)">
      <path
         d="M 0,0 C -0.228,0.197 -0.753,0.239 -0.441,0.64 -0.062,1.3 0.722,0.337 0,0"
         style="fill:#012061;fill-opacity:1;fill-rule:nonzero;stroke:none"
         id="path5705" />
    </g>
    <g
       id="g5707"
       transform="matrix(0.35277777,0,0,-0.35277777,15.353128,16.745688)">
      <path
         d="M 0,0 C -0.125,-0.422 -0.477,-0.345 -0.771,-0.254 -0.975,0.13 -0.672,0.59 -0.265,0.525 -0.009,0.458 0.082,0.203 0,0"
         style="fill:#012061;fill-opacity:1;fill-rule:nonzero;stroke:none"
         id="path5709" />
    </g>
    <g
       id="g5711"
       transform="matrix(0.35277777,0,0,-0.35277777,13.120548,15.719918)">
      <path
         d="M 0,0 C -0.063,-0.258 -0.335,-0.285 -0.522,-0.419 -0.7,-0.299 -0.818,-0.172 -0.829,0.036 -0.768,0.601 0.079,0.505 0,0"
         style="fill:#012061;fill-opacity:1;fill-rule:nonzero;stroke:none"
         id="path5713" />
    </g>
    <g
       id="g5715"
       transform="matrix(0.35277777,0,0,-0.35277777,9.7818881,13.635818)">
      <path
         d="M 0,0 C -0.082,-0.204 -0.242,-0.298 -0.455,-0.311 -0.702,-0.149 -0.714,0.062 -0.649,0.319 -0.44,0.64 0.125,0.27 0,0"
         style="fill:#012061;fill-opacity:1;fill-rule:nonzero;stroke:none"
         id="path5717" />
    </g>
    <g
       id="g5719"
       transform="matrix(0.35277777,0,0,-0.35277777,14.888558,16.994438)">
      <path
         d="M 0,0 C -0.078,-0.2 -0.204,-0.317 -0.417,-0.333 -0.632,-0.195 -0.889,-0.127 -0.859,0.155 -0.688,0.801 0.169,0.494 0,0"
         style="fill:#012061;fill-opacity:1;fill-rule:nonzero;stroke:none"
         id="path5721" />
    </g>
    <g
       id="g5723"
       transform="matrix(0.35277777,0,0,-0.35277777,20.412428,20.658098)">
      <path
         d="M 0,0 C -0.107,-0.235 -0.361,-0.32 -0.563,-0.242 -0.82,-0.021 -0.604,0.389 -0.312,0.453 -0.193,0.324 0.158,0.247 0,0"
         style="fill:#012061;fill-opacity:1;fill-rule:nonzero;stroke:none"
         id="path5725" />
    </g>
    <g
       id="g5727"
       transform="matrix(0.35277777,0,0,-0.35277777,14.425718,17.049048)">
      <path
         d="M 0,0 C -0.113,-0.178 -0.182,-0.437 -0.464,-0.405 -0.676,-0.266 -0.805,-0.079 -0.835,0.189 -0.699,0.859 0.287,0.519 0,0"
         style="fill:#012061;fill-opacity:1;fill-rule:nonzero;stroke:none"
         id="path5729" />
    </g>
    <g
       id="g5731"
       transform="matrix(0.35277777,0,0,-0.35277777,13.225958,16.214798)">
      <path
         d="m 0,0 c -0.057,-0.317 -0.205,-0.473 -0.57,-0.485 -0.257,0.066 -0.272,0.429 -0.197,0.629 l 0.317,0.25 z"
         style="fill:#012061;fill-opacity:1;fill-rule:nonzero;stroke:none"
         id="path5733" />
    </g>
    <g
       id="g5735"
       transform="matrix(0.35277777,0,0,-0.35277777,13.921698,17.058848)">
      <path
         d="M 0,0 C -0.175,-0.037 -0.269,-0.178 -0.489,-0.135 -0.808,-0.079 -0.823,0.283 -0.78,0.506 -0.468,1.062 0.379,0.507 0,0"
         style="fill:#012061;fill-opacity:1;fill-rule:nonzero;stroke:none"
         id="path5737" />
    </g>
    <g
       id="g5739"
       transform="matrix(0.35277777,0,0,-0.35277777,13.449718,16.662998)">
      <path
         d="M 0,0 C -0.116,-0.178 -0.218,-0.412 -0.5,-0.381 -0.958,-0.234 -0.75,0.085 -0.671,0.437 -0.402,0.615 0.022,0.341 0,0"
         style="fill:#012061;fill-opacity:1;fill-rule:nonzero;stroke:none"
         id="path5741" />
    </g>
    <g
       id="g5743"
       transform="matrix(0.35277777,0,0,-0.35277777,9.3769381,14.778178)">
      <path
         d="M 0,0 C -0.22,-0.106 -0.357,-0.623 -0.665,-0.323 -0.855,0.002 -0.708,0.462 -0.312,0.454 -0.131,0.339 -0.016,0.212 0,0"
         style="fill:#012061;fill-opacity:1;fill-rule:nonzero;stroke:none"
         id="path5745" />
    </g>
    <g
       id="g5747"
       transform="matrix(0.35277777,0,0,-0.35277777,19.511538,21.441868)">
      <path
         d="M 0,0 C -0.058,-0.166 -0.244,-0.294 -0.456,-0.307 -0.692,-0.206 -0.776,0.049 -0.694,0.25 -0.562,0.615 0.062,0.413 0,0"
         style="fill:#012061;fill-opacity:1;fill-rule:nonzero;stroke:none"
         id="path5749" />
    </g>
    <g
       id="g5751"
       transform="matrix(0.35277777,0,0,-0.35277777,9.2856381,16.176558)">
      <path
         d="M 0,0 C -0.09,-0.293 -0.269,-0.178 -0.458,-0.158 -0.715,0.063 -0.665,0.532 -0.266,0.525 -0.088,0.41 0.312,0.25 0,0"
         style="fill:#012061;fill-opacity:1;fill-rule:nonzero;stroke:none"
         id="path5753" />
    </g>
    <g
       id="g5755"
       transform="matrix(0.35277777,0,0,-0.35277777,18.264748,22.054578)">
      <path
         d="M 0,0 C -0.129,0.035 -0.22,-0.105 -0.267,-0.176 -0.523,-0.266 -0.772,0.051 -0.671,0.285 -0.489,0.873 0.242,0.447 0,0"
         style="fill:#012061;fill-opacity:1;fill-rule:nonzero;stroke:none"
         id="path5757" />
    </g>
    <g
       id="g5759"
       transform="matrix(0.35277777,0,0,-0.35277777,9.5505381,17.326888)">
      <path
         d="M 0,0 C -0.081,-0.201 -0.208,-0.319 -0.42,-0.333 -0.621,-0.254 -0.713,-0.089 -0.732,0.121 -0.652,0.625 0.086,0.447 0,0"
         style="fill:#012061;fill-opacity:1;fill-rule:nonzero;stroke:none"
         id="path5761" />
    </g>
    <g
       id="g5763"
       transform="matrix(0.35277777,0,0,-0.35277777,16.949068,22.354298)">
      <path
         d="M 0,0 C -0.162,0.057 -0.522,-0.113 -0.54,0.248 -0.58,0.578 -0.195,0.779 0.076,0.656 0.265,0.482 0.209,0.166 0,0"
         style="fill:#012061;fill-opacity:1;fill-rule:nonzero;stroke:none"
         id="path5765" />
    </g>
    <g
       id="g5767"
       transform="matrix(0.35277777,0,0,-0.35277777,9.9729181,18.455328)">
      <path
         d="M 0,0 C -0.021,-0.188 -0.232,-0.201 -0.409,-0.237 L -0.728,-0.029 -0.382,0.5 C -0.206,0.384 0.03,0.28 0,0"
         style="fill:#012061;fill-opacity:1;fill-rule:nonzero;stroke:none"
         id="path5769" />
    </g>
    <g
       id="g5771"
       transform="matrix(0.35277777,0,0,-0.35277777,15.738118,22.331578)">
      <path
         d="M 0,0 C -0.128,-0.115 -0.228,-0.506 -0.453,-0.309 -0.712,-0.24 -0.795,0.016 -0.72,0.217 -0.582,0.582 0.063,0.412 0,0"
         style="fill:#012061;fill-opacity:1;fill-rule:nonzero;stroke:none"
         id="path5773" />
    </g>
    <g
       id="g5775"
       transform="matrix(0.35277777,0,0,-0.35277777,10.575468,19.605978)">
      <path
         d="M 0,0 C -0.043,-0.222 -0.229,-0.199 -0.406,-0.237 -0.597,-0.065 -0.872,0.366 -0.402,0.466 -0.146,0.55 0.105,0.234 0,0"
         style="fill:#012061;fill-opacity:1;fill-rule:nonzero;stroke:none"
         id="path5777" />
    </g>
    <g
       id="g5779"
       transform="matrix(0.35277777,0,0,-0.35277777,14.673758,22.189618)">
      <path
         d="M 0,0 C -0.079,-0.203 -0.243,-0.297 -0.454,-0.311 -0.655,-0.23 -0.774,-0.102 -0.785,0.107 -0.676,0.59 0.03,0.436 0,0"
         style="fill:#012061;fill-opacity:1;fill-rule:nonzero;stroke:none"
         id="path5781" />
    </g>
    <g
       id="g5783"
       transform="matrix(0.35277777,0,0,-0.35277777,11.399698,20.444178)">
      <path
         d="m 0,0 c -0.018,-0.188 -0.269,-0.178 -0.406,-0.239 -0.18,0.116 -0.3,0.242 -0.309,0.454 C -0.641,0.723 0.262,0.484 0,0"
         style="fill:#012061;fill-opacity:1;fill-rule:nonzero;stroke:none"
         id="path5785" />
    </g>
    <g
       id="g5787"
       transform="matrix(0.35277777,0,0,-0.35277777,13.370658,21.815498)">
      <path
         d="M 0,0 C -0.093,-0.141 -0.229,-0.352 -0.406,-0.236 -0.584,-0.123 -0.702,0.006 -0.717,0.215 -0.524,0.595 0.144,0.46 0,0"
         style="fill:#012061;fill-opacity:1;fill-rule:nonzero;stroke:none"
         id="path5789" />
    </g>
    <g
       id="g5791"
       transform="matrix(0.35277777,0,0,-0.35277777,12.368138,21.252748)">
      <path
         d="M 0,0 C -0.172,-0.188 -0.604,-0.461 -0.74,0.03 -0.776,0.204 -0.568,0.524 -0.31,0.456 -0.113,0.378 -0.015,0.214 0,0"
         style="fill:#012061;fill-opacity:1;fill-rule:nonzero;stroke:none"
         id="path5793" />
    </g>
    <g
       id="g5795"
       transform="matrix(0.35277777,0,0,-0.35277777,7.8720881,15.786908)">
      <path
         d="M 0,0 C 0,12.38 10.071,22.452 22.449,22.452 34.831,22.452 44.901,12.38 44.901,0 44.901,-12.379 34.831,-22.452 22.449,-22.452 10.071,-22.452 0,-12.379 0,0 m -1.749,0 c 0,-13.345 10.856,-24.2 24.198,-24.2 13.344,0 24.201,10.855 24.201,24.2 0,13.344 -10.857,24.2 -24.201,24.2 C 9.107,24.2 -1.749,13.344 -1.749,0"
         style="fill:#012061;fill-opacity:1;fill-rule:nonzero;stroke:none"
         id="path5797" />
    </g>
    <g
       id="g5799"
       transform="matrix(0.35277777,0,0,-0.35277777,23.243608,26.848788)">
      <path
         d="m 0,0 -4.553,6.861 -2.37,-1.572 c 0,0 -0.488,-0.262 -0.282,-0.578 0.177,-0.264 0.538,-0.096 0.538,-0.096 0,0 0.147,0.065 0.326,-0.207 l 3.302,-4.971 c 0,0 0.155,-0.296 -0.054,-0.585 0,0 -0.231,-0.284 -0.093,-0.493 0.195,-0.293 0.509,-0.134 0.642,-0.05 z"
         style="fill:#012061;fill-opacity:1;fill-rule:nonzero;stroke:none"
         id="path5801" />
    </g>
    <g
       id="g5803"
       transform="matrix(0.35277777,0,0,-0.35277777,22.914258,24.405518)">
      <path
         d="m 0,0 -1.077,1.621 -2.135,-1.416 0.315,-0.473 c 0,0 0.639,0.389 1.379,0.235 0.747,-0.155 1.215,-0.426 1.215,-0.426 0,0 0.213,-0.178 0.392,0.035 C 0.216,-0.275 0,0 0,0"
         style="fill:#012061;fill-opacity:1;fill-rule:nonzero;stroke:none"
         id="path5805" />
    </g>
    <g
       id="g5807"
       transform="matrix(0.35277777,0,0,-0.35277777,23.762438,25.683638)">
      <path
         d="m 0,0 1.077,-1.621 -2.135,-1.418 -0.314,0.475 c 0,0 0.604,0.435 0.752,1.181 0.148,0.744 0.077,1.283 0.077,1.283 0,0 -0.08,0.262 0.188,0.348 C -0.171,0.307 0,0 0,0"
         style="fill:#012061;fill-opacity:1;fill-rule:nonzero;stroke:none"
         id="path5809" />
    </g>
    <g
       id="g5811"
       transform="matrix(0.35277777,0,0,-0.35277777,22.491868,25.397708)">
      <path
         d="m 0,0 c 0,0 0.341,0.547 0.144,1.262 -0.195,0.713 0.32,0.58 0.401,0.461 L 2.097,-0.619 C 2.179,-0.74 2.098,-1.266 1.52,-0.809 0.938,-0.352 0.299,-0.451 0.299,-0.451 Z"
         style="fill:#012061;fill-opacity:1;fill-rule:nonzero;stroke:none"
         id="path5813" />
    </g>
    <g
       id="g5815"
       transform="matrix(0.35277777,0,0,-0.35277777,10.900868,27.962228)">
      <path
         d="m 0,0 c 0,0 -0.656,0.236 -0.4,0.889 l 2.054,5.228 c 0.258,0.654 0.9,0.381 0.9,0.381 L 2.782,7.08 c 0,0 -3.451,1.498 -5.002,-2.455 -1.553,-3.955 1.991,-5.209 1.991,-5.209 z"
         style="fill:#012061;fill-opacity:1;fill-rule:nonzero;stroke:none"
         id="path5817" />
    </g>
    <g
       id="g5819"
       transform="matrix(0.35277777,0,0,-0.35277777,11.062788,28.025618)">
      <path
         d="M 0,0 C 0,0 0.642,-0.275 0.897,0.379 L 2.954,5.607 C 3.209,6.262 2.555,6.498 2.555,6.498 L 2.78,7.08 c 0,0 3.547,-1.252 1.995,-5.207 -1.556,-3.951 -5.003,-2.455 -5.003,-2.455 z"
         style="fill:#012061;fill-opacity:1;fill-rule:nonzero;stroke:none"
         id="path5821" />
    </g>
    <g
       id="g5823"
       transform="matrix(0.35277777,0,0,-0.35277777,8.1382281,26.448458)">
      <path
         d="M 0,0 C 0,0 -0.581,0.396 -0.167,0.967 L 3.14,5.506 C 3.553,6.074 4.109,5.645 4.109,5.645 L 4.48,6.15 c 0,0 -2.984,2.336 -5.486,-1.097 -2.502,-3.434 0.634,-5.559 0.634,-5.559 z"
         style="fill:#012061;fill-opacity:1;fill-rule:nonzero;stroke:none"
         id="path5825" />
    </g>
    <g
       id="g5827"
       transform="matrix(0.35277777,0,0,-0.35277777,9.8757681,25.614738)">
      <path
         d="m 0,0 c 0.668,1.814 -0.428,2.998 -0.428,2.998 l 0.369,0.506 c 0,0 0.459,-0.334 0.791,-0.979 0,0 0.266,-0.63 0.58,-0.502 0.205,0.084 0.42,0.174 0.579,0.059 C 2.049,1.969 2.062,1.754 1.975,1.637 1.875,1.498 0.48,-0.418 0.48,-0.418 c 0,0 -0.198,-0.271 -0.44,-0.088 C -0.171,-0.346 0,0 0,0"
         style="fill:#012061;fill-opacity:1;fill-rule:nonzero;stroke:none"
         id="path5829" />
    </g>
    <g
       id="g5831"
       transform="matrix(0.35277777,0,0,-0.35277777,9.2821781,26.755058)">
      <path
         d="m 0,0 c -1.769,-0.98 -3.226,0.082 -3.226,0.082 l 0.368,0.504 c 0,0 1.207,-0.779 2.531,-0.066 0,0 0.359,0.216 0.523,-0.086 C 0.322,0.199 0,0 0,0"
         style="fill:#012061;fill-opacity:1;fill-rule:nonzero;stroke:none"
         id="path5833" />
    </g>
    <g
       id="g5835"
       transform="matrix(0.35277777,0,0,-0.35277777,14.081718,29.017808)">
      <path
         d="M 0,0 C 0.157,-0.02 0.511,-0.027 0.563,0.318 0.596,0.566 0.263,0.727 0.263,0.727 -0.051,0.896 -0.04,1.23 -0.04,1.23 l 0.991,6.956 -2.83,0.398 c 0,0 -0.541,0.131 -0.595,-0.244 -0.044,-0.313 0.34,-0.43 0.34,-0.43 0,0 0.153,-0.049 0.107,-0.371 L -2.863,1.633 c 0,0 -0.081,-0.326 -0.432,-0.403 0,0 -0.367,-0.058 -0.399,-0.31 -0.05,-0.346 0.294,-0.438 0.451,-0.459 z"
         style="fill:#012061;fill-opacity:1;fill-rule:nonzero;stroke:none"
         id="path5837" />
    </g>
    <g
       id="g5839"
       transform="matrix(0.35277777,0,0,-0.35277777,15.383608,26.961778)">
      <path
         d="m 0,0 0.275,1.928 -2.539,0.359 -0.08,-0.562 c 0,0 0.737,-0.133 1.189,-0.743 0.453,-0.607 0.623,-1.123 0.623,-1.123 0,0 0.04,-0.275 0.316,-0.236 C -0.023,-0.35 0,0 0,0"
         style="fill:#012061;fill-opacity:1;fill-rule:nonzero;stroke:none"
         id="path5841" />
    </g>
    <g
       id="g5843"
       transform="matrix(0.35277777,0,0,-0.35277777,14.407798,27.422718)">
      <path
         d="M 0,0 C 0,0 0.618,0.186 0.948,0.848 1.274,1.51 1.572,1.068 1.551,0.924 L 1.159,-1.857 c -0.023,-0.141 -0.43,-0.485 -0.56,0.242 -0.132,0.73 -0.674,1.08 -0.674,1.08 z"
         style="fill:#012061;fill-opacity:1;fill-rule:nonzero;stroke:none"
         id="path5845" />
    </g>
    <g
       id="g5847"
       transform="matrix(0.35277777,0,0,-0.35277777,17.299088,29.040558)">
      <path
         d="M 0,0 C 0.157,0.016 0.504,0.094 0.468,0.441 0.445,0.693 0.082,0.766 0.082,0.766 c -0.346,0.091 -0.414,0.42 -0.414,0.42 l -0.705,6.988 -2.84,-0.289 c 0,0 -0.558,-0.004 -0.519,-0.379 0.03,-0.315 0.432,-0.338 0.432,-0.338 0,0 0.158,-0.01 0.194,-0.334 l 0.6,-5.938 c 0,0 -0.002,-0.332 -0.324,-0.49 0,0 -0.34,-0.144 -0.315,-0.396 0.037,-0.348 0.391,-0.354 0.549,-0.338 z"
         style="fill:#012061;fill-opacity:1;fill-rule:nonzero;stroke:none"
         id="path5849" />
    </g>
    <g
       id="g5851"
       transform="matrix(0.35277777,0,0,-0.35277777,18.071458,26.732338)">
      <path
         d="M 0,0 -0.195,1.936 -2.746,1.676 -2.69,1.109 c 0,0 0.749,0.051 1.334,-0.433 0.585,-0.483 0.872,-0.944 0.872,-0.944 0,0 0.108,-0.255 0.364,-0.154 C 0.063,-0.348 0,0 0,0"
         style="fill:#012061;fill-opacity:1;fill-rule:nonzero;stroke:none"
         id="path5853" />
    </g>
    <g
       id="g5855"
       transform="matrix(0.35277777,0,0,-0.35277777,17.233968,27.413758)">
      <path
         d="M 0,0 C 0,0 0.558,0.326 0.719,1.049 0.877,1.77 1.272,1.414 1.288,1.268 L 1.571,-1.525 C 1.585,-1.67 1.269,-2.1 0.968,-1.424 0.665,-0.75 0.054,-0.539 0.054,-0.539 Z"
         style="fill:#012061;fill-opacity:1;fill-rule:nonzero;stroke:none"
         id="path5857" />
    </g>
    <g
       id="g5859"
       transform="matrix(0.35277777,0,0,-0.35277777,20.381058,28.309498)">
      <path
         d="M 0,0 -2.789,7.746 -5.464,6.785 c 0,0 -0.537,-0.14 -0.409,-0.494 0.106,-0.297 0.5,-0.223 0.5,-0.223 0,0 0.156,0.028 0.266,-0.277 l 2.022,-5.615 c 0,0 0.078,-0.324 -0.191,-0.555 0,0 -0.294,-0.223 -0.209,-0.459 0.119,-0.328 0.464,-0.25 0.611,-0.197 z"
         style="fill:#012061;fill-opacity:1;fill-rule:nonzero;stroke:none"
         id="path5861" />
    </g>
    <g
       id="g5863"
       transform="matrix(0.35277777,0,0,-0.35277777,20.642228,25.857978)">
      <path
         d="M 0,0 -0.658,1.83 -3.069,0.963 -2.875,0.428 c 0,0 0.713,0.226 1.398,-0.1 0.684,-0.328 1.075,-0.703 1.075,-0.703 0,0 0.164,-0.225 0.389,-0.061 C 0.146,-0.322 0,0 0,0"
         style="fill:#012061;fill-opacity:1;fill-rule:nonzero;stroke:none"
         id="path5865" />
    </g>
    <g
       id="g5867"
       transform="matrix(0.35277777,0,0,-0.35277777,21.162078,27.302138)">
      <path
         d="m 0,0 0.661,-1.832 -2.41,-0.867 -0.194,0.537 c 0,0 0.695,0.279 1.013,0.969 0.32,0.685 0.381,1.226 0.381,1.226 0,0 -0.017,0.278 0.263,0.295 C -0.092,0.34 0,0 0,0"
         style="fill:#012061;fill-opacity:1;fill-rule:nonzero;stroke:none"
         id="path5869" />
    </g>
    <g
       id="g5871"
       transform="matrix(0.35277777,0,0,-0.35277777,19.996608,26.721298)">
      <path
         d="M 0,0 C 0,0 0.462,0.451 0.44,1.191 0.419,1.93 0.889,1.678 0.938,1.543 L 1.89,-1.102 C 1.938,-1.238 1.738,-1.732 1.282,-1.148 0.827,-0.566 0.184,-0.512 0.184,-0.512 Z"
         style="fill:#012061;fill-opacity:1;fill-rule:nonzero;stroke:none"
         id="path5873" />
    </g>
    <g
       id="g5875"
       transform="matrix(0.35277777,0,0,-0.35277777,6.9677481,10.263048)">
      <path
         d="M 0,0 C 0.079,0.145 0.216,0.489 -0.106,0.665 -0.339,0.792 -0.617,0.523 -0.617,0.523 -0.9,0.28 -1.224,0.416 -1.224,0.416 l -5.5,2.998 c -0.301,0.164 -0.243,0.321 -0.243,0.321 0,0 0.14,0.395 -0.152,0.554 -0.348,0.19 -0.577,-0.344 -0.577,-0.344 l -1.435,-2.63 c 0,0 -0.325,-0.482 0.024,-0.672 0.291,-0.16 0.546,0.173 0.546,0.173 0,0 0.105,0.131 0.402,-0.032 l 5.502,-2.999 c 0,0 0.288,-0.198 0.238,-0.569 0,0 -0.076,-0.378 0.156,-0.505 0.325,-0.176 0.538,0.125 0.618,0.272 z"
         style="fill:#012061;fill-opacity:1;fill-rule:nonzero;stroke:none"
         id="path5877" />
    </g>
    <g
       id="g5879"
       transform="matrix(0.35277777,0,0,-0.35277777,5.7972981,12.976928)">
      <path
         d="m 0,0 -8.301,2.42 -0.834,-2.868 c 0,0 -0.215,-0.542 0.163,-0.653 0.321,-0.093 0.499,0.287 0.499,0.287 0,0 0.076,0.151 0.399,0.055 l 6.017,-1.752 c 0,0 0.325,-0.133 0.352,-0.506 0,0 0.007,-0.385 0.262,-0.461 0.352,-0.103 0.497,0.239 0.545,0.399 z"
         style="fill:#012061;fill-opacity:1;fill-rule:nonzero;stroke:none"
         id="path5881" />
    </g>
    <g
       id="g5883"
       transform="matrix(0.35277777,0,0,-0.35277777,5.6241881,12.740928)">
      <path
         d="M 0,0 C 0,0 0.226,0.702 -0.483,0.909 L -6.143,2.56 C -6.852,2.766 -7.038,2.052 -7.038,2.052 l -0.631,0.184 c 0,0 0.976,3.848 5.261,2.599 4.282,-1.247 3.041,-5.018 3.041,-5.018 z"
         style="fill:#012061;fill-opacity:1;fill-rule:nonzero;stroke:none"
         id="path5885" />
    </g>
    <g
       id="g5887"
       transform="matrix(0.35277777,0,0,-0.35277777,23.306648,8.6028782)">
      <path
         d="M 0,0 6.206,6.023 4.125,8.166 c 0,0 -0.367,0.455 -0.65,0.178 -0.239,-0.23 0.004,-0.575 0.004,-0.575 0,0 0.094,-0.139 -0.15,-0.376 L -1.164,3.029 c 0,0 -0.277,-0.217 -0.617,-0.058 0,0 -0.338,0.185 -0.528,0.002 C -2.573,2.715 -2.35,2.419 -2.233,2.301 Z"
         style="fill:#012061;fill-opacity:1;fill-rule:nonzero;stroke:none"
         id="path5889" />
    </g>
    <g
       id="g5891"
       transform="matrix(0.35277777,0,0,-0.35277777,25.765758,7.7910282)">
      <path
         d="M 0,0 1.466,1.425 -0.409,3.354 -0.837,2.938 c 0,0 0.526,-0.584 0.51,-1.38 -0.017,-0.797 -0.208,-1.333 -0.208,-1.333 0,0 -0.142,-0.254 0.111,-0.401 C -0.243,-0.277 0,0 0,0"
         style="fill:#012061;fill-opacity:1;fill-rule:nonzero;stroke:none"
         id="path5893" />
    </g>
    <g
       id="g5895"
       transform="matrix(0.35277777,0,0,-0.35277777,24.616478,8.9073882)">
      <path
         d="m 0,0 -1.469,-1.423 -1.874,1.929 0.432,0.416 c 0,0 0.564,-0.543 1.364,-0.549 0.797,-0.007 1.336,0.166 1.336,0.166 0,0 0.259,0.137 0.399,-0.122 C 0.283,0.236 0,0 0,0"
         style="fill:#012061;fill-opacity:1;fill-rule:nonzero;stroke:none"
         id="path5897" />
    </g>
    <g
       id="g5899"
       transform="matrix(0.35277777,0,0,-0.35277777,24.659548,7.5471182)">
      <path
         d="m 0,0 c 0,0 0.633,-0.244 1.331,0.096 0.697,0.339 0.659,-0.22 0.55,-0.325 l -2.115,-2.055 c -0.109,-0.105 -0.665,-0.126 -0.308,0.561 0.362,0.688 0.134,1.327 0.134,1.327 z"
         style="fill:#012061;fill-opacity:1;fill-rule:nonzero;stroke:none"
         id="path5901" />
    </g>
    <g
       id="g5903"
       transform="matrix(0.35277777,0,0,-0.35277777,13.331188,5.6839882)">
      <path
         d="M 0,0 -2.126,8.382 -5.021,7.646 c 0,0 -0.577,-0.091 -0.479,-0.475 0.083,-0.32 0.499,-0.282 0.499,-0.282 0,0 0.168,0.013 0.252,-0.318 l 1.542,-6.072 c 0,0 0.052,-0.348 -0.255,-0.562 0,0 -0.331,-0.201 -0.266,-0.458 0.092,-0.356 0.46,-0.31 0.621,-0.268 z"
         style="fill:#012061;fill-opacity:1;fill-rule:nonzero;stroke:none"
         id="path5905" />
    </g>
    <g
       id="g5907"
       transform="matrix(0.35277777,0,0,-0.35277777,13.854178,3.1480882)">
      <path
         d="M 0,0 -0.504,1.981 -3.111,1.319 -2.964,0.738 c 0,0 0.767,0.167 1.449,-0.243 0.682,-0.413 1.054,-0.846 1.054,-0.846 0,0 0.148,-0.25 0.404,-0.103 C 0.117,-0.35 0,0 0,0"
         style="fill:#012061;fill-opacity:1;fill-rule:nonzero;stroke:none"
         id="path5909" />
    </g>
    <g
       id="g5911"
       transform="matrix(0.35277777,0,0,-0.35277777,14.248618,4.7012982)">
      <path
         d="m 0,0 0.502,-1.981 -2.608,-0.663 -0.145,0.581 c 0,0 0.751,0.22 1.154,0.908 0.406,0.687 0.524,1.243 0.524,1.243 0,0 0.011,0.292 0.305,0.285 C -0.064,0.366 0,0 0,0"
         style="fill:#012061;fill-opacity:1;fill-rule:nonzero;stroke:none"
         id="path5913" />
    </g>
    <g
       id="g5915"
       transform="matrix(0.35277777,0,0,-0.35277777,13.090558,3.9850482)">
      <path
         d="M 0,0 C 0,0 0.531,0.425 0.582,1.2 0.635,1.975 1.1,1.665 1.139,1.517 L 1.864,-1.342 C 1.899,-1.488 1.641,-1.983 1.226,-1.328 0.808,-0.675 0.142,-0.55 0.142,-0.55 Z"
         style="fill:#012061;fill-opacity:1;fill-rule:nonzero;stroke:none"
         id="path5917" />
    </g>
    <g
       id="g5919"
       transform="matrix(0.35277777,0,0,-0.35277777,26.402418,15.461548)">
      <path
         d="M 0,0 C 0,0 -0.032,0.731 0.704,0.748 L 6.602,0.871 C 7.338,0.885 7.331,0.152 7.331,0.152 L 7.99,0.167 c 0,0 0.054,3.947 -4.402,3.854 -4.459,-0.092 -4.244,-4.036 -4.244,-4.036 z"
         style="fill:#012061;fill-opacity:1;fill-rule:nonzero;stroke:none"
         id="path5921" />
    </g>
    <g
       id="g5923"
       transform="matrix(0.35277777,0,0,-0.35277777,26.406538,15.643788)">
      <path
         d="m 0,0 c 0,0 -0.003,-0.735 0.731,-0.719 l 5.9,0.123 C 7.368,-0.581 7.33,0.151 7.33,0.151 l 0.657,0.014 c 0,0 0.223,-3.941 -4.238,-4.035 -4.459,-0.091 -4.405,3.856 -4.405,3.856 z"
         style="fill:#012061;fill-opacity:1;fill-rule:nonzero;stroke:none"
         id="path5925" />
    </g>
    <g
       id="g5927"
       transform="matrix(0.35277777,0,0,-0.35277777,18.533108,5.7616782)">
      <path
         d="M 0,0 C 0.16,-0.044 0.528,-0.1 0.626,0.255 0.696,0.51 0.372,0.719 0.372,0.719 0.066,0.939 0.124,1.288 0.124,1.288 l 1.972,7.105 -2.891,0.8 c 0,0 -0.547,0.207 -0.651,-0.175 -0.09,-0.319 0.297,-0.494 0.297,-0.494 0,0 0.15,-0.072 0.059,-0.399 L -2.762,2.087 c 0,0 -0.129,-0.328 -0.504,-0.36 0,0 -0.383,-0.011 -0.458,-0.267 -0.096,-0.354 0.247,-0.496 0.408,-0.542 z"
         style="fill:#012061;fill-opacity:1;fill-rule:nonzero;stroke:none"
         id="path5929" />
    </g>
    <g
       id="g5931"
       transform="matrix(0.35277777,0,0,-0.35277777,19.365808,4.6637282)">
      <path
         d="m 0,0 -1.114,0.309 0.176,0.633 c 0,0 0.7,-0.215 0.895,0.496 L 0.566,3.625 C 0.761,4.336 0.049,4.512 0.049,4.512 l 0.176,0.633 1.11,-0.307 c 0,0 2.754,-0.546 2.028,-3.161 C 2.64,-0.935 0,0 0,0"
         style="fill:#012061;fill-opacity:1;fill-rule:nonzero;stroke:none"
         id="path5933" />
    </g>
    <g
       id="g5935"
       transform="matrix(0.35277777,0,0,-0.35277777,16.759588,3.3034482)">
      <path
         d="m 0,0 c -0.533,1.96 -2.195,2.079 -2.195,2.079 l 0.007,0.656 c 0,0 0.597,-0.006 1.275,-0.355 0,0 0.61,-0.379 0.801,-0.076 C 0.015,2.5 0.139,2.71 0.346,2.708 0.551,2.705 0.692,2.531 0.689,2.377 c 0,-0.182 -0.027,-2.443 -0.027,-2.443 0,0 -0.003,-0.351 -0.32,-0.342 C 0.063,-0.399 0,0 0,0"
         style="fill:#012061;fill-opacity:1;fill-rule:nonzero;stroke:none"
         id="path5937" />
    </g>
    <g
       id="g5939"
       transform="matrix(0.35277777,0,0,-0.35277777,15.017398,4.5316082)">
      <path
         d="M 0,0 C 0.655,-1.918 2.157,-1.774 2.157,-1.774 L 2.15,-2.43 c 0,0 -0.641,-0.03 -1.293,0.321 0,0 -0.413,0.25 -0.709,0.036 -0.188,-0.136 -0.331,-0.332 -0.535,-0.329 -0.206,0.002 -0.348,0.176 -0.345,0.33 0.003,0.179 0.024,2.215 0.024,2.215 0,0 0.007,0.269 0.336,0.266 C -0.08,0.406 0,0 0,0"
         style="fill:#012061;fill-opacity:1;fill-rule:nonzero;stroke:none"
         id="path5941" />
    </g>
    <g
       id="g5943"
       transform="matrix(0.35277777,0,0,-0.35277777,15.958608,5.1539782)">
      <path
         d="M 0,0 C 0.341,0.025 0.616,0.111 0.989,0.331 1.391,0.559 1.592,0.881 1.606,1.31 1.595,1.876 1.155,2.259 0.259,2.484 l -0.976,0.224 c -0.374,0.077 -0.715,0.166 -1.008,0.264 -0.407,0.129 -0.757,0.313 -1.037,0.548 -0.273,0.225 -0.482,0.5 -0.617,0.815 -0.137,0.315 -0.199,0.652 -0.191,1.001 0,0.777 0.289,1.426 0.861,1.927 0.549,0.482 1.421,0.725 2.29,0.73 L -0.426,7.323 C -0.894,7.319 -1.436,7.217 -1.747,7.016 -2.05,6.82 -2.199,6.567 -2.203,6.249 -2.2,5.979 -2.09,5.797 -1.861,5.691 -1.628,5.585 -1.34,5.503 -1.006,5.447 L 0.022,5.25 C 0.952,5.05 1.614,4.706 2.091,4.333 2.708,3.849 3.366,3.037 3.356,2.196 3.353,1.849 3.324,1.53 3.202,1.22 2.963,0.614 2.521,0.148 1.951,-0.188 1.384,-0.521 0.628,-0.679 -0.011,-0.673 Z"
         style="fill:#012061;fill-opacity:1;fill-rule:nonzero;stroke:none"
         id="path5945" />
    </g>
    <g
       id="g5947"
       transform="matrix(0.35277777,0,0,-0.35277777,28.039158,13.236008)">
      <path
         d="m 0,0 c 1.733,1.059 1.385,2.686 1.385,2.686 l 0.633,0.176 c 0,0 0.16,-0.575 0.013,-1.322 0,0 -0.195,-0.693 0.147,-0.79 C 2.403,0.684 2.642,0.619 2.696,0.421 2.749,0.224 2.621,0.039 2.474,-0.002 2.3,-0.05 0.12,-0.657 0.12,-0.657 c 0,0 -0.34,-0.094 -0.418,0.214 C -0.368,-0.174 0,0 0,0"
         style="fill:#012061;fill-opacity:1;fill-rule:nonzero;stroke:none"
         id="path5949" />
    </g>
    <g
       id="g5951"
       transform="matrix(0.35277777,0,0,-0.35277777,26.373488,11.904808)">
      <path
         d="m 0,0 c -1.661,-1.166 -1.101,-2.569 -1.101,-2.569 l -0.635,-0.177 c 0,0 -0.205,0.609 -0.052,1.334 0,0 0.126,0.467 -0.16,0.689 -0.185,0.145 -0.412,0.227 -0.468,0.425 -0.054,0.196 0.073,0.381 0.223,0.421 0.172,0.049 2.134,0.595 2.134,0.595 0,0 0.259,0.07 0.351,-0.249 C 0.368,0.187 0,0 0,0"
         style="fill:#012061;fill-opacity:1;fill-rule:nonzero;stroke:none"
         id="path5953" />
    </g>
    <g
       id="g5955"
       transform="matrix(0.35277777,0,0,-0.35277777,26.037568,12.982258)">
      <path
         d="m 0,0 c 0.122,-0.322 0.28,-0.563 0.594,-0.858 0.334,-0.324 0.698,-0.428 1.112,-0.32 0.541,0.167 0.787,0.7 0.753,1.621 L 2.401,1.442 C 2.371,1.824 2.363,2.175 2.374,2.482 2.386,2.912 2.465,3.298 2.612,3.629 2.752,3.958 2.957,4.234 3.223,4.454 3.489,4.671 3.795,4.825 4.13,4.915 4.879,5.133 5.58,5.036 6.222,4.625 6.839,4.232 7.316,3.461 7.562,2.628 L 6.916,2.449 C 6.783,2.897 6.531,3.39 6.251,3.634 5.979,3.869 5.696,3.941 5.389,3.856 5.133,3.778 4.985,3.621 4.949,3.373 4.911,3.118 4.914,2.82 4.952,2.485 c 0,0 0.099,-1.044 0.099,-1.046 C 5.118,0.491 4.973,-0.242 4.747,-0.802 4.451,-1.529 3.857,-2.39 3.049,-2.613 2.711,-2.708 2.398,-2.768 2.066,-2.736 c -0.647,0.06 -1.217,0.355 -1.699,0.808 -0.479,0.452 -0.842,1.135 -1.013,1.749 z"
         style="fill:#012061;fill-opacity:1;fill-rule:nonzero;stroke:none"
         id="path5957" />
    </g>
    <g
       id="g5959"
       transform="matrix(0.35277777,0,0,-0.35277777,27.094878,10.414808)">
      <path
         d="m 0,0 c 1.434,1.438 0.709,2.937 0.709,2.937 l 0.574,0.322 c 0,0 0.289,-0.522 0.327,-1.283 0,0 -0.026,-0.719 0.33,-0.733 C 2.173,1.232 2.42,1.225 2.521,1.047 2.621,0.868 2.538,0.659 2.405,0.583 2.248,0.495 0.273,-0.609 0.273,-0.609 c 0,0 -0.307,-0.172 -0.458,0.108 C -0.315,-0.257 0,0 0,0"
         style="fill:#012061;fill-opacity:1;fill-rule:nonzero;stroke:none"
         id="path5961" />
    </g>
    <g
       id="g5963"
       transform="matrix(0.35277777,0,0,-0.35277777,25.161838,9.5152982)">
      <path
         d="m 0,0 c -1.337,-1.526 -0.464,-2.758 -0.464,-2.758 l -0.57,-0.321 c 0,0 -0.348,0.543 -0.367,1.284 0,0 0.011,0.483 -0.323,0.633 -0.212,0.094 -0.452,0.122 -0.552,0.299 -0.101,0.181 -0.02,0.389 0.114,0.465 0.157,0.087 1.933,1.082 1.933,1.082 0,0 0.238,0.129 0.4,-0.159 C 0.313,0.27 0,0 0,0"
         style="fill:#012061;fill-opacity:1;fill-rule:nonzero;stroke:none"
         id="path5965" />
    </g>
    <g
       id="g5967"
       transform="matrix(0.35277777,0,0,-0.35277777,25.089838,10.641508)">
      <path
         d="m 0,0 c 0.195,-0.285 0.405,-0.48 0.78,-0.694 0.4,-0.234 0.78,-0.251 1.16,-0.048 0.484,0.29 0.596,0.866 0.346,1.755 L 1.997,1.969 C 1.874,2.333 1.783,2.671 1.725,2.973 1.63,3.394 1.616,3.788 1.683,4.144 1.739,4.496 1.874,4.813 2.082,5.089 2.286,5.361 2.546,5.585 2.854,5.75 3.525,6.139 4.232,6.212 4.953,5.965 5.644,5.729 6.289,5.092 6.727,4.343 L 6.139,4.015 C 5.906,4.417 5.548,4.838 5.217,5.009 4.896,5.173 4.604,5.176 4.326,5.019 4.091,4.885 3.989,4.698 4.013,4.445 4.034,4.192 4.107,3.903 4.227,3.584 L 4.568,2.592 C 4.855,1.688 4.887,0.941 4.802,0.343 4.688,-0.435 4.314,-1.409 3.58,-1.821 3.277,-1.99 2.984,-2.121 2.655,-2.172 2.014,-2.267 1.388,-2.114 0.813,-1.787 c -0.57,0.324 -1.086,0.904 -1.398,1.459 z"
         style="fill:#012061;fill-opacity:1;fill-rule:nonzero;stroke:none"
         id="path5969" />
    </g>
    <g
       id="g5971"
       transform="matrix(0.35277777,0,0,-0.35277777,20.913688,6.7318082)">
      <path
         d="M 0,0 C 0.146,-0.083 0.487,-0.23 0.671,0.09 0.804,0.32 0.54,0.603 0.54,0.603 0.3,0.892 0.443,1.214 0.443,1.214 L 4.119,7.606 1.521,9.1 c 0,0 -0.48,0.338 -0.677,-0.007 -0.163,-0.287 0.164,-0.551 0.164,-0.551 0,0 0.13,-0.109 -0.039,-0.403 L -2.154,2.708 c 0,0 -0.207,-0.285 -0.579,-0.224 0,0 -0.376,0.086 -0.509,-0.144 -0.185,-0.319 0.116,-0.542 0.26,-0.627 z"
         style="fill:#012061;fill-opacity:1;fill-rule:nonzero;stroke:none"
         id="path5973" />
    </g>
    <g
       id="g5975"
       transform="matrix(0.35277777,0,0,-0.35277777,22.304128,7.0761582)">
      <path
         d="m 0,0 c -0.033,-0.345 0.089,-0.477 0.089,-0.477 0,0 0.207,-0.18 0.037,-0.479 -0.198,-0.344 -0.78,0.054 -0.78,0.054 l -1.679,0.964 c 0,0 -0.525,0.241 -0.327,0.586 0.147,0.256 0.553,0.137 0.553,0.137 0,0 0.29,-0.064 0.327,0.237 0,0 0.053,2.549 0.055,2.71 0.006,0.16 -0.157,0.247 -0.157,0.247 l 0.327,0.57 c 0,0 0.626,-0.384 0.994,0.255 L 0.568,6.773 C 0.938,7.412 0.293,7.76 0.293,7.76 L 0.62,8.328 1.617,7.754 c 0,0 2.53,-1.214 1.177,-3.565 -0.89,-1.551 -2.208,-1.397 -2.998,-1.115 0,0 0.256,-0.081 0.244,-0.624 z"
         style="fill:#012061;fill-opacity:1;fill-rule:nonzero;stroke:none"
         id="path5977" />
    </g>
    <g
       id="g5979"
       transform="matrix(0.35277777,0,0,-0.35277777,8.2391881,8.6362882)">
      <path
         d="M 0,0 C 0.106,0.128 0.304,0.438 0.021,0.673 -0.184,0.841 -0.504,0.634 -0.504,0.634 -0.826,0.448 -1.121,0.644 -1.121,0.644 l -1.564,1.296 -4.66,1.011 c -0.293,0.089 -0.177,0.362 -0.177,0.362 0,0 0.183,0.38 -0.046,0.569 -0.304,0.254 -0.63,-0.223 -0.63,-0.223 l -1.904,-2.297 c 0,0 -0.409,-0.409 -0.103,-0.662 0.229,-0.189 0.502,-0.018 0.502,-0.018 0,0 0.118,0.063 0.455,-0.027 l 4.661,-1.011 1.562,-1.296 c 0,0 0.249,-0.25 0.128,-0.603 0,0 -0.145,-0.356 0.057,-0.524 0.285,-0.235 0.551,0.018 0.656,0.144 z"
         style="fill:#012061;fill-opacity:1;fill-rule:nonzero;stroke:none"
         id="path5981" />
    </g>
    <g
       id="g5983"
       transform="matrix(0.35277777,0,0,-0.35277777,6.2435981,6.2638182)">
      <path
         d="m 0,0 -0.547,-0.66 c 0,0 -0.409,-0.409 -0.103,-0.661 0.228,-0.19 0.568,0.062 0.568,0.062 0,0 0.248,0.164 0.391,-0.107 l 0.985,-2.593 0.908,-0.198 -1.35,3.449 c -0.152,0.312 -0.111,0.441 -0.111,0.441 0,0 0.117,0.302 -0.112,0.491 C 0.327,0.478 0,0 0,0"
         style="fill:#012061;fill-opacity:1;fill-rule:nonzero;stroke:none"
         id="path5985" />
    </g>
    <g
       id="g5987"
       transform="matrix(0.35277777,0,0,-0.35277777,8.4770681,6.9567782)">
      <path
         d="m 0,0 1.423,1.063 -4.345,3.236 -0.186,0.513 2.137,1.597 6.172,-4.596 c 0,0 0.239,-0.258 0.595,-0.157 0,0 0.361,0.128 0.52,-0.084 C 6.538,1.277 6.269,1.022 6.136,0.924 L 3.396,-1.122 C 3.264,-1.221 2.944,-1.404 2.723,-1.109 2.565,-0.897 2.791,-0.587 2.791,-0.587 3.132,-0.19 2.809,0.028 2.809,0.028 L 1.993,0.639 0.407,-0.544 Z"
         style="fill:#012061;fill-opacity:1;fill-rule:nonzero;stroke:none"
         id="path5989" />
    </g>
    <g
       id="g5991"
       transform="matrix(0.35277777,0,0,-0.35277777,8.7478281,7.6966282)">
      <path
         d="m 0,0 c -0.466,-0.205 -0.594,0.156 -0.594,0.156 l -1.704,4.636 -1.104,0.825 2.174,-5.931 c 0,0 0.179,-0.302 -0.019,-0.615 0,0 -0.226,-0.311 -0.068,-0.524 0.221,-0.294 0.541,-0.111 0.675,-0.012 l 0.981,0.733 C 0.472,-0.633 0.738,-0.379 0.52,-0.084 0.361,0.129 0,0 0,0"
         style="fill:#012061;fill-opacity:1;fill-rule:nonzero;stroke:none"
         id="path5993" />
    </g>
    <g
       id="g5995"
       transform="matrix(0.35277777,0,0,-0.35277777,5.4111181,15.662558)">
      <path
         d="m 0,0 h -8.647 v -2.986 c 0,0 -0.055,-0.582 0.341,-0.582 0.331,0 0.398,0.415 0.398,0.415 0,0 0.028,0.167 0.369,0.167 h 6.267 c 0,0 0.348,-0.036 0.479,-0.388 0,0 0.114,-0.368 0.379,-0.368 0.367,0 0.414,0.368 0.414,0.534 z"
         style="fill:#012061;fill-opacity:1;fill-rule:nonzero;stroke:none"
         id="path5997" />
    </g>
    <g
       id="g5999"
       transform="matrix(0.35277777,0,0,-0.35277777,3.0818681,14.532888)">
      <path
         d="m 0,0 h -2.045 v -2.689 h 0.597 c 0,0 0.03,0.785 0.595,1.344 0.568,0.56 1.079,0.813 1.079,0.813 0,0 0.278,0.084 0.198,0.365 C 0.368,0.031 0,0 0,0"
         style="fill:#012061;fill-opacity:1;fill-rule:nonzero;stroke:none"
         id="path6001" />
    </g>
    <g
       id="g6003"
       transform="matrix(0.35277777,0,0,-0.35277777,4.6921181,14.532888)">
      <path
         d="M 0,0 H 2.045 V -2.689 H 1.446 c 0,0 -0.028,0.785 -0.595,1.344 -0.568,0.56 -1.077,0.813 -1.077,0.813 0,0 -0.278,0.084 -0.198,0.365 C -0.368,0.031 0,0 0,0"
         style="fill:#012061;fill-opacity:1;fill-rule:nonzero;stroke:none"
         id="path6005" />
    </g>
    <g
       id="g6007"
       transform="matrix(0.35277777,0,0,-0.35277777,3.7045481,15.478058)">
      <path
         d="m 0,0 c 0,0 -0.283,0.617 -1.021,0.858 -0.734,0.245 -0.32,0.618 -0.17,0.618 H 1.761 C 1.913,1.476 2.329,1.103 1.589,0.858 0.853,0.617 0.569,0 0.569,0 Z"
         style="fill:#012061;fill-opacity:1;fill-rule:nonzero;stroke:none"
         id="path6009" />
    </g>
  </g>
</svg>
