<svg xmlns="http://www.w3.org/2000/svg" width="828.008" height="690" viewBox="0 0 828.008 690"><path d="M242.964 384.249c0 17.47-9.35 32.453-28.134 45.063-18.757 12.553-41.305 18.83-67.79 18.83H0V0h89.556v134.523h153.408v249.755Zm-89.498-174.871h-63.91v170.214h63.91zM507.405 153.381c-18.755-12.552-41.303-18.886-67.73-18.886h-57.601V0h-89.497v448.17h89.497V224.475h.058v-15.097h63.91V448.17h89.499V197.982c-.145-17.268-9.466-32.135-28.107-44.63M680.997 134.495c-26.485 0-49.033 6.334-67.846 18.886-18.728 12.582-28.107 27.565-28.107 45.063v249.697h147.127c26.34 0 48.946-6.305 67.703-18.8 18.756-12.639 28.134-27.65 28.134-45.12v-56.17h-89.497v51.541h-63.968V209.378h63.968v43.877h89.497v-118.79h-147.04Z" style="fill:#fdd100"/><path d="M8.358 42.042H4.822V39.68q.002-1.03-.113-1.285-.113-.257-.5-.256-.436 0-.553.31-.12.313-.12 1.344v6.313q-.002.99.12 1.29.117.303.529.303c.274 0 .436-.1.518-.302q.12-.304.121-1.423v-1.708h3.537v.532c0 1.404-.099 2.404-.298 2.99q-.299.884-1.32 1.548-1.02.663-2.514.664c-.997 0-1.89-.187-2.561-.564-.674-.375-1.116-.893-1.337-1.555q-.33-.995-.329-2.993v-3.972q0-1.467.1-2.202.105-.736.6-1.415.5-.682 1.39-1.071.884-.39 2.036-.39 1.56 0 2.578.604 1.019.603 1.338 1.504t.319 2.805v1.29zM18.105 36.123v13.59h-3.537v-5.705H13.51v5.705H9.973v-13.59h3.536v4.86h1.06v-4.86ZM23.404 36.125h-3.537v13.59h3.536zM33.423 42.042h-3.536V39.68q0-1.03-.114-1.285-.115-.257-.5-.256c-.29 0-.477.103-.552.31q-.12.313-.12 1.344v6.313q-.002.99.12 1.29.114.303.526.303c.273 0 .436-.1.518-.302q.122-.304.122-1.423v-1.708h3.536v.532c0 1.404-.1 2.404-.298 2.99q-.297.884-1.32 1.548-1.02.663-2.514.664c-.996 0-1.892-.187-2.563-.564q-1.01-.562-1.336-1.555-.328-.995-.327-2.993v-3.972q0-1.467.1-2.202.104-.736.6-1.415.5-.682 1.387-1.071.886-.39 2.038-.39 1.565 0 2.578.604c.68.402 1.122.903 1.336 1.504q.321.901.321 2.805v1.29zM43.467 36.123l-2.028 6.137 2.22 7.453h-3.653l-1.432-5.825v5.825h-3.539v-13.59h3.539v5.282l1.577-5.282zM44.613 36.123h5.898v2.723H48.15v2.575h2.21v2.587h-2.21v2.986h2.594v2.719h-6.13zM60 36.123v13.59h-3.098l-1.84-6.177v6.177h-2.956v-13.59h2.957l1.982 6.122v-6.122Z" style="fill:#231917" transform="scale(13.8)"/></svg>