<?xml version="1.0" encoding="utf-8"?>
<!-- Generator: Adobe Illustrator 25.4.1, SVG Export Plug-In . SVG Version: 6.00 Build 0)  -->
<svg version="1.1" id="레이어_1" xmlns="http://www.w3.org/2000/svg" xmlns:xlink="http://www.w3.org/1999/xlink" x="0px"
	 y="0px" viewBox="0 0 182.9 283.5" style="enable-background:new 0 0 182.9 283.5;" xml:space="preserve">
<style type="text/css">
	.st0{fill:#FFDC00;}
</style>
<g>
	<path class="st0" d="M178.8,66.2l-7.5-2.1l2.7-9.1c0.8-2.8-1-5.1-3.8-6.2L64.7,9.7L39,0.3c-2.7-1-5.7,0.6-6.4,3.3L28,21l0,0
		l-12.5-3.8c-2.7-0.8-5.7,0.5-6.8,3.1L0,39.8l179.3,53.6l3.6-20.9C183.3,69.7,181.5,67,178.8,66.2z"/>
	<polygon class="st0" points="92.8,144 60.2,67.9 8.4,52.3 25.6,182.7 57,184.2 53.9,129.1 77,184.2 108.6,184.2 131.7,129.6 
		127.9,184.2 158.3,182.5 170,100.9 118.1,85.3 	"/>
	<path class="st0" d="M60.2,243c6.8,1.1,11.8,1.2,11.8,1.2l0.3,11.9c-5.9-0.4-14.6-2.1-17.9-3c-3.3-0.9-3.9-4.4-3.9-4.4l-3-35
		c0,0-0.1-2.3,4.1-1.7c16.2,2.1,38.5,1.6,38.5,1.6v-20.9c-12.2-0.3-53.1-3.1-53.1-3.1C24.4,189,25.9,199,25.9,199s5.5,41.6,7.1,53.2
		c1.6,11.6,5.7,15.7,9.6,19.7c4,4,17.6,9,26.6,10.3c9,1.4,21.7,1.2,21.7,1.2V226c-18.1,0-31.8-1.6-31.8-1.6L60.2,243z"/>
	<path class="st0" d="M96.5,208c0,10.3-0.5,55.5-0.5,55.5s-1.7,19.6,13,18.8c14.7-0.8,27.8-6.5,37.9-14.1l2.5-23.5
		c0,0-11.3,7.5-23.6,9.5c0,0-3.4,0.7-4.9,0.7s-2.3-0.8-2.3-3.2c0-2.4,1.9-35.7,1.9-35.7s0.1-2.9,4-3.3c3.9-0.4,23.1-2.6,29.3-5.3
		l2.7-17.6c0,0-36.2,2.7-44.9,2.9C103,193.1,96.5,197.7,96.5,208z"/>
</g>
</svg>
