<?xml version="1.0" encoding="UTF-8" standalone="no"?>
<!-- Created with Inkscape (http://www.inkscape.org/) -->

<svg
   width="72.990547mm"
   height="72.992973mm"
   viewBox="0 0 72.990547 72.992973"
   version="1.1"
   id="svg207"
   xmlns="http://www.w3.org/2000/svg"
   xmlns:svg="http://www.w3.org/2000/svg">
  <defs
     id="defs204" />
  <g
     id="layer1">
    <path
       id="path8"
       d="M 0,0 V 72.99297 H 72.99055 V 0 Z"
       style="fill:#ed1c24;fill-opacity:1;fill-rule:nonzero;stroke:none;stroke-width:0.352778" />
    <path
       id="path9"
       d="m 57.98854,60.74325 c -1.68431,0 -3.05959,-1.36701 -3.05959,-3.05579 0,-1.68674 1.37528,-3.06272 3.05959,-3.06272 1.69085,0 3.06475,1.37598 3.06475,3.06272 0,1.68878 -1.3739,3.05579 -3.06475,3.05579 m 0,-8.63755 c -3.07372,0 -5.57968,2.50458 -5.57968,5.58176 0,3.07371 2.50596,5.58172 5.57968,5.58172 3.07819,0 5.5845,-2.50801 5.5845,-5.58172 0,-3.07718 -2.50631,-5.58176 -5.5845,-5.58176"
       style="fill:#ffffff;fill-opacity:1;fill-rule:nonzero;stroke:none;stroke-width:0.352778" />
    <path
       id="path10"
       d="m 38.88893,52.1057 h -2.51148 v 11.16348 h 2.51148 V 52.1057"
       style="fill:#ffffff;fill-opacity:1;fill-rule:nonzero;stroke:none;stroke-width:0.352778" />
    <path
       id="path11"
       d="m 31.21188,52.1057 v 0.92534 c -0.88264,-0.5829 -1.93684,-0.92534 -3.07199,-0.92534 -3.07338,0 -5.57934,2.50458 -5.57934,5.58176 0,3.07371 2.50596,5.58172 5.57934,5.58172 1.13653,0 2.1928,-0.34312 3.07612,-0.9288 v 0.9288 h 2.50734 V 52.1057 h -2.51147 m -3.07199,8.63755 c -1.685,0 -3.05856,-1.36701 -3.05856,-3.05579 0,-1.68674 1.37356,-3.06272 3.05856,-3.06272 1.68982,0 3.06475,1.37598 3.06475,3.06272 0,1.68878 -1.37493,3.05579 -3.06475,3.05579 z"
       style="fill:#ffffff;fill-opacity:1;fill-rule:nonzero;stroke:none;stroke-width:0.352778" />
    <path
       id="path12"
       d="m 43.91739,59.54123 c 0.0207,1.27021 1.08658,1.78146 2.23208,1.78146 0.84094,0 1.90548,-0.32794 1.90548,-1.35047 0,-0.88194 -1.20854,-1.1889 -3.29765,-1.63918 -1.67948,-0.36862 -3.35896,-0.96291 -3.35896,-2.82773 0,-2.70231 2.33474,-3.39894 4.60746,-3.39894 2.3158,0 4.4459,0.77791 4.67155,3.37898 h -2.76572 c -0.0817,-1.12586 -0.94189,-1.43387 -1.98644,-1.43387 -0.65595,0 -1.61816,0.12301 -1.61816,0.98393 0,1.04454 1.63814,1.18752 3.2973,1.57646 1.7005,0.38929 3.36,1.00323 3.36,2.97039 0,2.78567 -2.41742,3.68692 -4.8345,3.68692 -2.45842,0 -4.85449,-0.92259 -4.97748,-3.72795 z"
       style="fill:#ffffff;fill-opacity:1;fill-rule:nonzero;stroke:none;stroke-width:0.352778" />
    <path
       id="path13"
       d="m 18.07297,48.04667 v 4.98715 c -0.88229,-0.58497 -1.93959,-0.92812 -3.07578,-0.92812 -3.07406,0 -5.5796803,2.50458 -5.5796803,5.58176 0,3.07371 2.5056203,5.58172 5.5796803,5.58172 1.13688,0 2.19521,-0.34312 3.07751,-0.93017 l -0.002,0.93017 h 2.50734 V 48.04667 H 18.0727 m -3.07578,12.69658 c -1.68396,0 -3.05856,-1.36701 -3.05856,-3.05579 0,-1.68674 1.3746,-3.06272 3.05856,-3.06272 1.69085,0 3.06407,1.37598 3.06407,3.06272 0,1.68878 -1.37322,3.05579 -3.06407,3.05579 z"
       style="fill:#ffffff;fill-opacity:1;fill-rule:nonzero;stroke:none;stroke-width:0.352778" />
    <path
       id="path14"
       d="m 15.30036,18.52704 c -1.7756,0 -3.2253,-1.44212 -3.2253,-3.22185 0,-1.77905 1.4497,-3.23014 3.2253,-3.23014 1.78421,0 3.23357,1.45109 3.23357,3.23014 0,1.77973 -1.44936,3.22185 -3.23357,3.22185 m 0,-9.1102 c -3.23908,0 -5.8828503,2.6417 -5.8828503,5.88835 0,3.23875 2.6437703,5.88286 5.8828503,5.88286 3.24976,0 5.88939,-2.64411 5.88939,-5.88286 0,-3.24665 -2.63963,-5.88835 -5.88939,-5.88835"
       style="fill:#ffffff;fill-opacity:1;fill-rule:nonzero;stroke:none;stroke-width:0.352778" />
    <path
       id="path15"
       d="m 36.49252,18.52704 c -1.77767,0 -3.2253,-1.44212 -3.2253,-3.22185 0,-1.77905 1.44763,-3.23014 3.2253,-3.23014 1.78387,0 3.23184,1.45109 3.23184,3.23014 0,1.77973 -1.44797,3.22185 -3.23184,3.22185 m 0,-9.1102 c -3.24115,0 -5.88491,2.6417 -5.88491,5.88835 0,3.23875 2.64376,5.88286 5.88491,5.88286 3.24734,0 5.88629,-2.64411 5.88629,-5.88286 0,-3.24665 -2.63895,-5.88835 -5.88629,-5.88835"
       style="fill:#ffffff;fill-opacity:1;fill-rule:nonzero;stroke:none;stroke-width:0.352778" />
    <path
       id="path16"
       d="m 57.68468,18.52704 c -1.77319,0 -3.22599,-1.44212 -3.22599,-3.22185 0,-1.77905 1.4528,-3.23014 3.22599,-3.23014 1.78387,0 3.23287,1.45109 3.23287,3.23014 0,1.77973 -1.449,3.22185 -3.23287,3.22185 m 0,-9.1102 c -3.23874,0 -5.88285,2.6417 -5.88285,5.88835 0,3.23875 2.64411,5.88286 5.88285,5.88286 3.24941,0 5.88836,-2.64411 5.88836,-5.88286 0,-3.24665 -2.63895,-5.88835 -5.88836,-5.88835"
       style="fill:#ffffff;fill-opacity:1;fill-rule:nonzero;stroke:none;stroke-width:0.352778" />
    <path
       id="path17"
       d="m 15.30036,39.71921 c -1.7756,0 -3.2253,-1.4442 -3.2253,-3.22357 0,-1.78146 1.4497,-3.22771 3.2253,-3.22771 1.78421,0 3.23357,1.44625 3.23357,3.22771 0,1.77937 -1.44936,3.22357 -3.23357,3.22357 m 0,-9.11023 c -3.23908,0 -5.8828503,2.63965 -5.8828503,5.88666 0,3.23941 2.6437703,5.88662 5.8828503,5.88662 3.24976,0 5.88939,-2.64721 5.88939,-5.88662 0,-3.24701 -2.63963,-5.88666 -5.88939,-5.88666"
       style="fill:#ffffff;fill-opacity:1;fill-rule:nonzero;stroke:none;stroke-width:0.352778" />
    <path
       id="path18"
       d="m 36.49252,39.71921 c -1.77767,0 -3.2253,-1.4442 -3.2253,-3.22357 0,-1.78146 1.44763,-3.22771 3.2253,-3.22771 1.78387,0 3.23184,1.44625 3.23184,3.22771 0,1.77937 -1.44797,3.22357 -3.23184,3.22357 m 0,-9.11023 c -3.24115,0 -5.88491,2.63965 -5.88491,5.88666 0,3.23941 2.64376,5.88662 5.88491,5.88662 3.24734,0 5.88629,-2.64721 5.88629,-5.88662 0,-3.24701 -2.63895,-5.88666 -5.88629,-5.88666"
       style="fill:#ffffff;fill-opacity:1;fill-rule:nonzero;stroke:none;stroke-width:0.352778" />
    <path
       id="path19"
       d="m 57.68468,39.71921 c -1.77319,0 -3.22599,-1.4442 -3.22599,-3.22357 0,-1.78146 1.4528,-3.22771 3.22599,-3.22771 1.78387,0 3.23287,1.44625 3.23287,3.22771 0,1.77937 -1.449,3.22357 -3.23287,3.22357 m 0,-9.11023 c -3.23874,0 -5.88285,2.63965 -5.88285,5.88666 0,3.23941 2.64411,5.88662 5.88285,5.88662 3.24941,0 5.88836,-2.64721 5.88836,-5.88662 0,-3.24701 -2.63895,-5.88666 -5.88836,-5.88666"
       style="fill:#ffffff;fill-opacity:1;fill-rule:nonzero;stroke:none;stroke-width:0.352778" />
  </g>
</svg>
