<svg xmlns="http://www.w3.org/2000/svg" width="127.426mm" height="28.320999mm" viewBox="0 0 127.426 28.320999"><g style="fill:#e30513"><path d="M81.063 11.307v5.563c0 1.111-.415 2.057-1.603 2.057-1.186 0-1.602-.946-1.602-2.057v-5.563h-3.264v5.83c0 2.245 1.57 4.298 4.866 4.298 3.296 0 4.867-2.053 4.867-4.297v-5.831zM8.843 21.156v-5.853h-5.46v5.853H0V7.154h3.383v5.299h5.46V7.154h3.383v14.002zM19.506 21.474c-2.967 0-5.46-2.057-5.46-5.282 0-3.224 2.493-5.2 5.46-5.2 2.987 0 5.48 1.976 5.48 5.2 0 3.225-2.493 5.282-5.48 5.282zm0-7.793c-1.523 0-2.315 1.245-2.315 2.511 0 1.267.812 2.555 2.335 2.555 1.524 0 2.334-1.288 2.334-2.555 0-1.266-.83-2.511-2.354-2.511zM39.23 21.156v-5.38c0-1.125-.258-2.074-1.406-2.074-1.108 0-1.641 1.026-1.641 2.134v5.32h-3.244V15.54c0-1.126-.437-1.838-1.405-1.838-1.028 0-1.622.928-1.622 2.113v5.341h-3.264v-9.85h3.144v1.366h.04c.455-.83 1.465-1.64 2.948-1.64 1.424 0 2.414.61 2.967 1.682.654-1.03 1.682-1.683 3.145-1.683 2.671 0 3.582 2.173 3.582 4.033v6.092zM54.096 19.452c-.935 1.298-2.458 2.022-4.419 2.022-2.966 0-5.421-1.877-5.421-5.2 0-3.225 2.335-5.281 5.322-5.281 2.909 0 4.947 1.996 4.947 5.358 0 .258 0 .536-.02.773h-7.143c.1 1.086 1.188 1.859 2.355 1.859.992 0 1.69-.406 2.13-.97zm-2.559-4.346c0-1.03-.653-1.88-1.939-1.88-1.247 0-2.156.871-2.236 1.88zM92.478 14.213c-.514-.493-1.266-.889-2.059-.889-.612 0-1.225.22-1.225.79 0 .554.534.717 1.799.992 1.505.335 3.146 1.086 3.146 3.006 0 2.49-2.195 3.362-4.214 3.362-1.603 0-3.263-.533-4.292-1.52l1.819-1.92c.574.631 1.465 1.108 2.414 1.108.534 0 1.168-.219 1.168-.85 0-.614-.615-.812-1.959-1.13-1.367-.317-2.869-1.008-2.869-2.867 0-2.353 2.215-3.302 4.096-3.302 1.463 0 2.987.472 3.955 1.382zM69.173 6.685v14.471h3.284V6.686ZM59.697 25.224V20.07h.039c.614.85 1.781 1.365 2.987 1.365 2.968 0 4.688-2.49 4.688-5.243 0-2.748-1.8-5.16-4.668-5.16-1.444 0-2.552.69-3.145 1.481h-.059v-1.206h-3.086v13.917zm2.255-11.543c1.543 0 2.315 1.245 2.315 2.511 0 1.288-.772 2.555-2.315 2.555-1.464 0-2.374-1.25-2.374-2.533 0-1.246.91-2.533 2.374-2.533zM120.345 7.077V21.24c0 3.901-3.176 7.08-7.079 7.08-3.903 0-7.078-3.179-7.078-7.08V7.077c0-3.902 3.175-7.077 7.078-7.077 3.903 0 7.08 3.175 7.08 7.077zm-12.21 14.164c0 2.829 2.302 5.13 5.131 5.13 2.83 0 5.13-2.301 5.13-5.13V7.077c0-2.83-2.3-5.13-5.13-5.13-2.829 0-5.13 2.3-5.13 5.13z"/><path d="M120.347 21.237h-14.163c-3.902 0-7.078-3.175-7.078-7.077 0-3.905 3.176-7.08 7.078-7.08h14.163c3.903 0 7.08 3.175 7.08 7.08 0 3.902-3.177 7.077-7.08 7.077zm-14.163-12.21a5.138 5.138 0 0 0-5.13 5.133c0 2.83 2.302 5.13 5.13 5.13h14.163c2.83 0 5.13-2.3 5.13-5.13 0-2.829-2.3-5.132-5.13-5.132z"/></g></svg>