<svg xmlns="http://www.w3.org/2000/svg" xmlns:xlink="http://www.w3.org/1999/xlink" xml:space="preserve" x="0px" y="0px" style="enable-background:new 0 0 45 60" viewBox="0 0 45 60"><defs><path id="a" d="M0 0h45v59.9H0z"/></defs><clipPath id="b"><use xlink:href="#a" style="overflow:visible"/></clipPath><path fill="#147350" d="M34.2 45c.9 0 1.7.8 1.7 1.7 0 .9-.7 1.7-1.7 1.7-.9 0-1.6-.8-1.6-1.7 0-.9.7-1.7 1.6-1.7m0 3c.7 0 1.3-.6 1.3-1.3 0-.8-.6-1.3-1.3-1.3-.7 0-1.3.6-1.3 1.3 0 .8.6 1.3 1.3 1.3m-.2-.4h-.3v-1.8h.6c.4 0 .6.2.6.6 0 .3-.2.5-.4.5l.4.7h-.4l-.4-.7H34v.7zm.2-1c.2 0 .3-.1.3-.3 0-.2-.1-.3-.3-.3H34v.5h.2zM42.2 32.3c-.9 0-1.5.4-2.1.9l-.4.6-.1-.1.5-.8v-.5h-3.2V43h2.9v-6.7c0-1.1.7-1.4 1.2-1.5.5-.1 1.1.2 1.1.8V43H45v-7.3c0-2.3-1-3.4-2.8-3.4M9.9 40.6h3v2.3H7V32.3h2.9zM0 42.9h5.9v-2.1h-3v-2.3h3v-2h-3v-2h3v-2.2H0zM13.9 42.9h6v-2.1h-3.1v-2.3h3.1v-2h-3.1v-2h3.1v-2.2h-6zM29.9 42.9h6v-2.1h-3.1v-2.3h3.1v-2h-3.1v-2h3.1v-2.2h-6zM26.1 32.3 25 39l-.1 1.2v.1h-.1v-.1l-.1-1.2-1.1-6.7h-2.9l2.4 10.6h3.6l2.4-10.6z" clip-path="url(#b)"/><path fill="#FF6C00" d="M37.7 0H0v15h19.9C24.4 8.5 30.5 3.3 37.7 0" clip-path="url(#b)"/><path fill="#EB0F2A" d="M15 59.9h15v-15H15zM45 15V0C30.7 3.9 19.5 15.4 16.1 30h15.3c2.3-6.7 7.3-12.1 13.6-15" clip-path="url(#b)"/></svg>