<?xml version="1.0" encoding="utf-8"?>
<!-- Generator: Adobe Illustrator 25.4.0, SVG Export Plug-In . SVG Version: 6.00 Build 0)  -->
<svg version="1.1" id="레이어_1" xmlns="http://www.w3.org/2000/svg" xmlns:xlink="http://www.w3.org/1999/xlink" x="0px"
	 y="0px" viewBox="0 0 425.2 84.3" style="enable-background:new 0 0 425.2 84.3;" xml:space="preserve">
<style type="text/css">
	.st0{fill:#FFB41E;}
	.st1{fill:#55555A;}
</style>
<g>
	<path class="st0" d="M20.4,57l29.8-9c7.8-2.8,18-9.5,18-19.5l0,0C68.3,12.8,55.5,0,39.7,0h-8.5C14,0,0,14,0,31.2v25.3
		C0,72,12.6,84.3,28.1,84.3h10.3c14.1,0,27.7-10.5,27.7-25.3H48c0,6.4-5.2,11.5-11.5,11.5h-8.4c-5.6,0-10.2-4.6-10.2-10.2
		C18,58.8,19,57.4,20.4,57z M18,43.7V27.9c0-7.6,6.2-13.8,13.8-13.8h6c6.9,0,12.5,5.6,12.5,12.5l0,0c0,4.4-2.9,8.3-7.1,9.6L18,43.7z
		"/>
	<path class="st1" d="M180.8,37.3c0-5.3,4.4-10.7,9.8-10.7h5.4c4.4,0,9.4,2.8,9.3,7.5c0,1.3-0.9,3.1-2.1,3.5l-24.3,7.8h0
		c-6.6,2.3-15.3,8-15.3,16.3v2.8c0,13.1,12.9,19.9,26.3,19.9h5.1c14.6,0,26.4-11.6,26.4-26v-21c0-12.9-10.6-22.3-23.8-22.3H189
		c-11.9,0-23.5,7.7-23.5,22.3H180.8z M205,59.2c0,6.4-6,12.6-12.5,12.6h-3.1c-5.8,0-9.8-3-9.8-8.8c0-3.7,1.6-5.8,5.2-7.2l20.1-6.2
		V59.2z"/>
	<path class="st1" d="M150.7,19.7c-4.5-3-10.6-4.8-17.3-4.8c-6.7,0-12.8,1.8-17.3,4.8l0,0c-4.5-3-10.6-4.8-17.3-4.8
		c-14,0-25.3,7.9-25.3,17.7v0v50.1h16V49.1V32.6v0h0v0c0-3.1,4.2-5.7,9.3-5.7c5.1,0,9.3,2.5,9.3,5.7v0v16.5v33.6h16V49.1V32.6v0v0
		c0,0,0,0,0,0c0-3.1,4.2-5.7,9.3-5.7c5.1,0,9.3,2.5,9.3,5.7v0v16.5v25.1c0,4.7,3.8,8.5,8.5,8.5h7.5V49.1V32.6v0
		C158.7,27.5,155.6,22.9,150.7,19.7z"/>
	<path class="st1" d="M227.5,82.7h16V36c0-4.9,3.9-9,8.9-9c0.1,0,0.1,0,0.2,0c5.7,0,7.4,1.3,7.4,1.3V15.9c0,0-6.2-1-13.9-1
		c-1.4,0-3,0-4.5,0.1c-7.8,0.3-14,6.7-14,14.5V82.7z"/>
	<path class="st1" d="M286.4,29.2c4.4,0,8-3.6,8-8v-4.8h-14v-7c0-4.4-3.6-8-8-8h-8v68.3c0,7.8,6.2,14.2,14,14.5
		c1.6,0.1,3.1,0.1,4.5,0.1c7.7,0,11.5-1.7,11.5-1.7v-12c0,0-3.7,1.5-6.4,1.5c-2,0-2.6,0-3.8-0.4c-2.1-0.6-3.9-2.3-3.9-4.5V29.2
		H286.4z"/>
	<path class="st0" d="M360.6,26.4V23c0-12.6-10.2-22.8-22.8-22.8h-4.9c-14.1,0-25.6,10.6-25.6,29.6l15.8-0.2
		c0-12.8,4.9-15.9,10.8-15.9h0c5.9,0,10.6,4.8,10.6,10.6c0,3.5-1.2,7-3.5,9.7l-1.9,2.3l-27,27.6c-2.8,2.8-4.3,6.6-4.3,10.6
		c0,4.5,3.6,8.1,8.1,8.1h36.5c4.5,0,8.1-3.6,8.1-8.1v-6.2h-31.7l24.9-25.5C358.1,38.5,360.6,32.6,360.6,26.4z"/>
	<path class="st0" d="M411.9,9c0-4.8-3.9-8.7-8.7-8.7H403c-3.8,0-7.3,1.8-9.5,4.8l-32.8,44.6c-1.4,1.9-2.2,4.3-2.2,6.6l0,0
		c0,4.8,3.9,8.7,8.7,8.7h6.1H397v19.3h6.2c4.8,0,8.7-3.9,8.7-8.7V65h4.7c4.8,0,8.7-3.9,8.7-8.7v-5h-13.3L411.9,9z M375.5,51.4
		L397,22.9v28.5H375.5z"/>
</g>
</svg>
