<svg xmlns="http://www.w3.org/2000/svg" width="1000.33" height="199.29601" viewBox="0 0 264.67064 52.730403"><path d="M-64.246-25.257c-4.34 0-6.408-2.357-6.408-4.864v-11.307h4.642v10.937c0 .703.571 1.283 1.767 1.283 1.16 0 1.766-.577 1.766-1.283v-10.937h4.642v11.307c0 2.527-2.295 4.864-6.409 4.864m15.661-.34c3.119 0 5.224-1.682 5.224-4.818 0-1.661-.823-2.8-2.183-3.56 1.173-.788 1.765-1.854 1.765-3.12 0-2.456-1.714-4.332-5.07-4.333h-7.516v15.831zm.165-10.961c0 .827-.374 1.418-1.188 1.418h-2.152v-2.836h2.152c.804 0 1.188.558 1.188 1.418m-.962 7.44h-2.378v-3.006h2.378c.87 0 1.308.552 1.308 1.499 0 .91-.42 1.505-1.308 1.506m-25.799 3.354c2.28-.472 3.684-1.948 3.684-4.416 0-2.939-1.88-3.785-5.306-5.398-1.63-.768-2.03-.97-2.03-1.457 0-.334.246-.656.747-.648l5.77.094V-41.4l-4.768-.076c-.614-.01-1.547.011-2.057.077-2.509.327-4.217 1.973-4.217 4.334 0 3.05 2.184 4.002 4.97 5.32 1.732.82 2.333 1.034 2.333 1.663 0 .348-.245.681-.827.671l-6.144-.046v-2.085l-4.812 3.974 4.812 3.973v-2.074l5.471.039c.716 0 1.77-.012 2.374-.136" style="fill:#ffc20d" transform="matrix(2.6467 0 0 2.6467 232.482 115.176)"/><path d="M553.975-202.96v13.913h-22.293c-18.892 0-26.852 10.916-26.852 26.697v17.43c0 4.164-2.83 9.037-12.453 9.037-9.616 0-12.45-4.873-12.45-9.037h-.007v-43.455h-32.074v46.633c0 15.43 10.56 27.154 28.297 31.949v31.98h32.77v-31.98c18.011-4.9 27.983-16.58 27.983-31.95v-17.1c0-1.63.814-2.602 2.69-2.602l14.389-.008v14l33.605-27.752zm-158.612 11.356c-28.205 0-44.484 14.912-44.484 34.758v79.035h32.242v-32.03h24.484v32.03h32.25v-79.035c0-19.966-16.58-34.758-44.492-34.758zm-188.205 3.225v77.975c0 18.046 11.822 34.449 40.737 34.449 10.857 0 19.52-3.478 25.982-8.63 6.571 5.172 15.54 8.63 27.086 8.63 27.038 0 39.85-16.43 39.85-34.45v-77.974H308.46v77.27c0 3.417-1.783 7.123-9.18 7.123-7.4 0-9.125-3.867-9.125-7.123v-77.27h-32.334v77.27c0 3.345-1.865 7.123-9.238 7.123-7.277 0-9.07-3.98-9.07-7.123v-77.27zm188.213 24.383c8.58 0 12.238 3.788 12.238 9.047l.008 19.738h-24.492v-19.738c0-5.21 3.615-9.047 12.246-9.047zm129.41 70.942c-1.117 0-2.205.286-3.269.86a6.15 6.15 0 0 0-2.488 2.455c-.595 1.066-.894 2.18-.894 3.334 0 1.145.294 2.248.88 3.302a6.179 6.179 0 0 0 2.463 2.461c1.055.586 2.157.877 3.309.877 1.148 0 2.251-.29 3.307-.877a6.145 6.145 0 0 0 2.455-2.46c.585-1.055.877-2.158.877-3.303 0-1.155-.297-2.268-.89-3.334a6.1 6.1 0 0 0-2.482-2.455c-1.063-.574-2.152-.86-3.267-.86zm0 1.1c.926 0 1.835.24 2.722.719a5.103 5.103 0 0 1 2.072 2.052c.496.89.746 1.816.746 2.778 0 .958-.243 1.874-.73 2.752a5.188 5.188 0 0 1-2.053 2.052c-.88.49-1.8.737-2.756.737-.959 0-1.88-.247-2.76-.737a5.213 5.213 0 0 1-2.055-2.052c-.49-.878-.736-1.794-.736-2.752 0-.962.249-1.888.748-2.778.5-.89 1.19-1.574 2.074-2.052.885-.478 1.794-.72 2.729-.72zm-2.917 2.074v7.14h1.154v-3.029h.678c.406-.003.714.079.924.24.307.223.712.778 1.21 1.665l.637 1.125h1.4l-.87-1.399c-.418-.664-.77-1.134-1.059-1.414a1.893 1.893 0 0 0-.605-.379c.619-.048 1.113-.264 1.486-.652a1.89 1.89 0 0 0 .563-1.361c0-.37-.113-.72-.334-1.047a1.765 1.765 0 0 0-.9-.692c-.376-.132-.985-.197-1.827-.197zm1.154.973h1.313c.565 0 .95.042 1.16.123.207.081.37.204.486.373a.952.952 0 0 1 .178.564c0 .325-.124.59-.367.79-.243.198-.7.296-1.37.296h-1.4z" style="fill:#009132" transform="translate(41.972 76.924) scale(.37901)"/></svg>