<?xml version="1.0" encoding="utf-8"?>
<!-- Generator: Adobe Illustrator 25.4.0, SVG Export Plug-In . SVG Version: 6.00 Build 0)  -->
<svg version="1.1" id="레이어_1" xmlns="http://www.w3.org/2000/svg" xmlns:xlink="http://www.w3.org/1999/xlink" x="0px"
	 y="0px" viewBox="0 0 340.2 97.4" style="enable-background:new 0 0 340.2 97.4;" xml:space="preserve">
<style type="text/css">
	.st0{fill:#FFB41E;}
	.st1{fill:#55555A;}
</style>
<g>
	<path class="st0" d="M23.6,65.9l34.5-10.4c9-3.2,20.8-11,20.8-22.5v0c0-18.2-14.8-33-33-33h-9.9C16.1,0,0,16.1,0,36.1v29.2
		c0,17.9,14.5,32.1,32.4,32.1h11.9c16.2,0,32-12.1,32-29.3H55.5c0,7.4-6,13.3-13.3,13.3h-9.7c-6.5,0-11.8-5.3-11.7-11.8
		C20.8,67.9,21.9,66.4,23.6,65.9z M20.7,50.5V32.2c0-8.8,7.2-16,16-16h6.9c8,0,14.4,6.5,14.4,14.4l0,0c0,5.1-3.3,9.6-8.2,11.1
		L20.7,50.5z"/>
	<path class="st1" d="M208.9,43.1c0-6.1,5.1-12.3,11.3-12.3h6.2c5.1,0,10.8,3.3,10.8,8.7c0,1.5-1,3.6-2.4,4l-28.1,9h0
		c-7.6,2.7-17.6,9.2-17.6,18.8v3.2c0,15.2,15,23,30.4,23h5.9c16.9,0,30.6-13.4,30.6-30V43.1c0-14.9-12.3-25.8-27.5-25.8h-10.1
		c-13.8,0-27.1,8.9-27.1,25.8L208.9,43.1z M236.9,68.4c0,7.3-6.9,14.6-14.4,14.6H219c-6.8,0-11.3-3.5-11.3-10.1c0-4.2,1.8-6.8,6-8.3
		l23.2-7.2V68.4z"/>
	<path class="st1" d="M174.1,22.8c-5.2-3.4-12.2-5.5-20-5.5c-7.7,0-14.7,2.1-20,5.5l0,0c-5.2-3.4-12.2-5.5-20-5.5
		c-16.1,0-29.2,9.2-29.2,20.4v0v57.8h18.5V56.7v-19v0l0,0v0c0-3.6,4.8-6.6,10.7-6.6c5.9,0,10.7,2.9,10.7,6.6v0v19v38.8h18.5V56.7
		v-19v0v0c0,0,0,0,0,0c0-3.6,4.8-6.6,10.7-6.6c5.9,0,10.7,2.9,10.7,6.6v0v19v29.1c0,5.4,4.4,9.8,9.8,9.8h8.7V56.7v-19v0
		C183.4,31.8,179.8,26.5,174.1,22.8z"/>
	<path class="st1" d="M262.9,95.5h18.5v-54c0-5.7,4.6-10.3,10.2-10.4c0.1,0,0.1,0,0.2,0c6.6,0,8.5,1.5,8.5,1.5V18.3
		c0,0-7.1-1.2-16.1-1.2c-1.7,0-3.5,0-5.3,0.1c-9,0.3-16.1,7.7-16.1,16.7V95.5z"/>
	<path class="st1" d="M331,33.7c5.1,0,9.2-4.1,9.2-9.2V19H324v-8.1c0-5.1-4.1-9.2-9.2-9.2h-9.3v79c0,9,7.1,16.4,16.1,16.7
		c1.8,0.1,3.6,0.1,5.3,0.1c8.9,0,13.3-1.9,13.3-1.9V81.6c0,0-4.3,1.8-7.4,1.8c-2.4,0-3,0-4.3-0.4c-2.4-0.7-4.5-2.6-4.5-5.2v-44H331z
		"/>
</g>
</svg>
