<?xml version="1.0" encoding="UTF-8" standalone="no"?>
<!-- Created with Inkscape (http://www.inkscape.org/) -->

<svg
   width="200mm"
   height="95.450142mm"
   viewBox="0 0 200 95.450142"
   version="1.1"
   id="svg309"
   inkscape:export-filename="bbq.svg"
   inkscape:export-xdpi="96"
   inkscape:export-ydpi="96"
   xmlns:inkscape="http://www.inkscape.org/namespaces/inkscape"
   xmlns:sodipodi="http://sodipodi.sourceforge.net/DTD/sodipodi-0.dtd"
   xmlns="http://www.w3.org/2000/svg"
   xmlns:svg="http://www.w3.org/2000/svg">
  <sodipodi:namedview
     id="namedview311"
     pagecolor="#505050"
     bordercolor="#eeeeee"
     borderopacity="1"
     inkscape:showpageshadow="0"
     inkscape:pageopacity="0"
     inkscape:pagecheckerboard="0"
     inkscape:deskcolor="#505050"
     inkscape:document-units="mm"
     showgrid="false" />
  <defs
     id="defs306">
    <linearGradient
       id="a"
       x1="161.12"
       x2="263.26001"
       y1="355.82001"
       y2="229.69"
       gradientUnits="userSpaceOnUse"
       gradientTransform="matrix(1.2100679,0,0,1.2100679,-157.40564,-305.75995)">
      <stop
         offset="0"
         stop-color="#dda426"
         id="stop218" />
      <stop
         offset="0.45"
         stop-color="#ffefca"
         id="stop220" />
      <stop
         offset="1"
         stop-color="#dda426"
         id="stop222" />
    </linearGradient>
  </defs>
  <g
     inkscape:label="레이어 1"
     inkscape:groupmode="layer"
     id="layer1">
    <path
       d="M 184.26913,0.03631347 H 15.730868 A 15.730883,15.730883 0 0 0 0,15.767181 V 79.719276 A 15.730883,15.730883 0 0 0 15.730868,95.450144 H 184.26913 A 15.730883,15.730883 0 0 0 200,79.719276 V 15.730868 A 15.730883,15.730883 0 0 0 184.26913,0 Z"
       style="fill:#e60012;stroke-width:1.21007"
       id="path227" />
    <path
       d="M 184.26913,2.3959117 A 13.310747,13.310747 0 0 1 197.57985,15.706674 V 79.658769 A 13.310747,13.310747 0 0 1 184.26913,92.969531 H 15.730868 A 13.310747,13.310747 0 0 1 2.4201054,79.658769 V 15.730868 A 13.310747,13.310747 0 0 1 15.730868,2.4201511 Z"
       style="fill:url(#a);stroke-width:1.21007"
       id="path229" />
    <path
       d="m 27.504848,40.682476 a 1.3552761,1.3552761 0 0 0 -1.355307,1.343187 V 57.2604 a 1.3431754,1.3431754 0 0 0 1.355307,1.331067 H 55.106457 A 1.3431754,1.3431754 0 0 0 56.461764,57.2604 V 42.025663 a 1.3552761,1.3552761 0 0 0 -1.355307,-1.343187 z m 98.693092,14.073072 a 4.8402716,4.8402716 0 1 1 4.84031,-4.840257 4.8402716,4.8402716 0 0 1 -4.84031,4.840257 z m 18.67135,-14.073072 a 1.3673767,1.3673767 0 0 0 -1.35526,1.343187 V 57.2604 a 1.3431754,1.3431754 0 0 0 1.35526,1.331067 h 27.60167 A 1.3310747,1.3310747 0 0 0 173.81415,57.2604 V 42.025663 a 1.3431754,1.3431754 0 0 0 -1.34319,-1.343187 z m 28.94486,45.462272 V 66.78363 a 1.3431754,1.3431754 0 0 0 -1.34319,-1.36738 h -33.88189 a 4.8402716,4.8402716 0 0 1 -4.8403,-4.840257 V 38.794771 a 4.8402716,4.8402716 0 0 1 4.8403,-4.840257 h 40.06533 a 4.8402716,4.8402716 0 0 1 4.84026,4.840257 V 80.179094 Z M 79.900784,40.682476 a 1.3552761,1.3552761 0 0 0 -1.355307,1.343187 V 57.2604 a 1.3431754,1.3431754 0 0 0 1.355307,1.331067 H 107.50241 A 1.3552761,1.3552761 0 0 0 108.86979,57.2604 V 42.025663 a 1.3673767,1.3673767 0 0 0 -1.36738,-1.343187 z M 113.78267,65.379982 H 73.717295 A 4.8402716,4.8402716 0 0 1 68.877038,60.53968 V 19.155356 l 9.680559,-5.965608 v 19.421579 a 1.3431754,1.3431754 0 0 0 1.355261,1.343187 h 33.881882 a 4.8402716,4.8402716 0 0 1 4.84031,4.840257 v 21.781222 a 4.8402716,4.8402716 0 0 1 -4.84031,4.840257 z m -52.408068,0 H 21.321405 A 4.8402716,4.8402716 0 0 1 16.481102,60.53968 V 19.155356 l 9.680559,-5.965608 v 19.421579 a 1.3431754,1.3431754 0 0 0 1.355261,1.343187 h 33.881919 a 4.8402716,4.8402716 0 0 1 4.840257,4.840257 v 21.781222 a 4.8402716,4.8402716 0 0 1 -4.840257,4.840257 z"
       style="fill:#b3a89d;stroke-width:1.21007"
       id="path231" />
    <path
       d="m 130.05806,49.891097 a 3.8722174,3.8722174 0 1 1 -3.86012,-3.872232 3.8722174,3.8722174 0 0 1 3.86012,3.872232 z m -72.604078,7.417736 a 2.3475318,2.3475318 0 0 1 -2.359599,2.347524 H 27.504848 a 2.4201358,2.4201358 0 0 1 -2.359644,-2.347524 v -15.28317 a 2.4201358,2.4201358 0 0 1 2.359644,-2.347524 h 27.601609 a 2.4201358,2.4201358 0 0 1 2.359644,2.347524 V 57.2604 Z m 3.92062,-22.349982 H 27.492728 A 2.3475318,2.3475318 0 0 1 25.133084,32.611327 V 14.980633 l -7.623405,4.743482 V 60.5518 a 3.811714,3.811714 0 0 0 3.811726,3.823799 H 61.374602 A 3.811714,3.811714 0 0 0 65.186327,60.5518 V 38.770577 A 3.8238146,3.8238146 0 0 0 61.362528,34.934658 Z M 109.86205,57.2604 a 2.3475318,2.3475318 0 0 1 -2.34752,2.347524 H 79.912858 A 2.4201358,2.4201358 0 0 1 77.492707,57.2604 V 42.025663 a 2.4201358,2.4201358 0 0 1 2.420151,-2.347524 h 27.601672 a 2.4201358,2.4201358 0 0 1 2.34752,2.347524 z m 3.93269,-22.349936 H 79.912858 A 2.4201358,2.4201358 0 0 1 77.492707,32.56294 V 14.980633 l -7.623406,4.743482 V 60.5518 a 3.811714,3.811714 0 0 0 3.811726,3.823799 H 113.74636 A 3.811714,3.811714 0 0 0 117.55808,60.5518 V 38.770577 a 3.811714,3.811714 0 0 0 -3.81172,-3.835919 z m 28.71495,7.066766 a 2.4201358,2.4201358 0 0 1 2.42011,-2.347524 h 27.60167 a 2.4201358,2.4201358 0 0 1 2.35964,2.347524 V 57.2604 a 2.4201358,2.4201358 0 0 1 -2.35964,2.347524 H 144.86929 A 2.3475318,2.3475318 0 0 1 142.44918,57.2604 V 42.025663 Z m -3.93274,22.349982 h 33.88189 a 2.4201358,2.4201358 0 0 1 2.35964,2.420151 v 17.606454 l 7.63553,-4.719242 V 38.794771 a 3.8238146,3.8238146 0 0 0 -3.81168,-3.83592 h -40.05326 a 3.811714,3.811714 0 0 0 -3.81172,3.83592 v 21.781222 a 3.7996133,3.7996133 0 0 0 3.7996,3.8238 z"
       style="fill:#e60012;stroke-width:1.21007"
       id="path233" />
  </g>
</svg>
