<svg xmlns="http://www.w3.org/2000/svg" width="500mm" height="95.889mm" viewBox="0 0 500 95.889"><path fill="red" d="M295.84 95.888c21.369 0 34.556-18.778 34.556-47.944C330.396 21.381 319.014 0 295.237 0c-20.973 0-33.952 19.18-33.952 47.944 0 31.166 13.187 47.944 34.556 47.944m-61.125-27.563c0 4.987-2.798 7.188-6.993 7.188-2.195 0-4.597-.597-7.194-1.597v20.369c4.2 1.402 7.396 1.603 11.785 1.603 12.187 0 23.972-6.194 23.972-26.167V1.402c-5.993-.402-15.583-.402-21.57 0zM142.425 94.09h21.576l3.195-12.388h19.375l3.597 12.388h21.972L187.369 3.402c-5.195 0-13.78.597-18.57 1.195zm214.15-51.34V6.993c-5.194-.994-15.784-1.994-20.979-2.195V94.09h20.979V62.131h13.779v31.96h20.979V11.186c-6.59-1.195-14.583-2.195-20.979-2.798v34.36zm-202.56-7.39c0-17.173-9.584-26.763-29.563-26.763-6.39 0-14.98 1-21.771 2.993v82.5h20.771V71.916c17.583-5.39 30.563-18.174 30.563-36.556m259.89-20.777c-4.993-1-10.584-2-14.583-2.396V94.09H418.1V60.333l19.979 33.757h14.382V22.576c-5.993-1.597-11.785-2.798-17.973-3.993v35.159zM37.755 94.09h19.576l2.798-9.785h16.98l2.395 9.785h20.576L79.107 15.187c-5.993.598-12.583 1.598-17.583 3zm258.09-70.313c8.389 0 12.388 8.786 12.388 24.167s-4 24.173-12.388 24.173c-8.389 0-12.388-8.791-12.388-24.173s4-24.167 12.388-24.167m-248.7 23.771c0-14.583-8.987-20.38-20.973-20.38-7.993 0-17.376 2.603-26.173 6.797V94.09H18.38V79.708c15.376-2.993 28.764-14.577 28.764-32.16m429.88.494c0-1.72 1.262-2.689 3.548-2.689 4.244 0 11.724 4.42 16.424 7.987V35.562c-5.596-3.835-12.334-6.578-19.802-6.578-12.047 0-19.546 7.139-19.546 19.308 0 20.753 22.972 20.832 22.972 27.783 0 2.11-1.261 3.23-4.584 3.23-6.786 0-15.486-4.602-18.388-7.388v18.778c5.535 3.262 13.577 5.194 20.497 5.194 13.894 0 21.85-7.736 21.85-20.095 0-20.217-22.972-21.168-22.972-27.752M124.843 28.57c5.999 0 8.194 3.201 8.194 8.59 0 5.792-3 10.785-9.59 12.584V28.57zm46.944 35.958 5.596-25.173 5.195 25.173zM27.767 50.145c0 5.792-2.403 9.791-9.39 11.986V44.548c1.397-.396 2.793-.798 4.195-.798 3.792 0 5.195 3 5.195 6.395m36.952 18.18 4.798-20.576 3.993 20.576z"/></svg>