<svg xmlns="http://www.w3.org/2000/svg" xml:space="preserve" id="레이어_1" width="700.6" height="282.047" x="0px" y="0px" version="1.1" viewBox="0 0 700.6 282.047"><style>.st0{fill:#4f2700}.st1{fill:#fff}</style><g id="g76" transform="matrix(5.01862 0 0 5.01862 -26.097 -27.602)"><path id="polygon4" d="m61.4 42.2 14.8-1-4-29.8h5.4l.2-5.9H5.2l5.3 39.8 33.6-2.1 17.3 8.1z" class="st0"/><g id="g28"><g id="g14"><g id="g8"><path id="rect6" d="M36.5 12.7h4.7v22.5h-4.7z" class="st1"/></g><path id="polygon10" d="M23.5 30.7v-18h-5.6v22.6h10.8v-5.1z" class="st1"/><path id="polygon12" d="M35 35.3V12.7h-4.7v7.9h-4.1v4.8h4.1v9.9z" class="st1"/></g><g id="g26"><g id="g20"><g id="g18"><path id="rect16" d="M63 12.7h4.7v22.5H63z" class="st1"/></g></g><path id="polygon22" d="M50 30.7v-18h-5.7v22.6h10.9v-5.1z" class="st1"/><path id="polygon24" d="M61.4 35.3V12.7h-4.6v7.9h-4.1v4.8h4.1v9.9z" class="st1"/></g></g><g id="g34"><path id="polygon32" d="m72.2 11.4 5.3 39.9 9.7-.6v8.2l15.5-9.2 40.5-2.5 1.6-35.8z" style="fill:#fed600"/></g><g id="g52"><g id="g42"><g id="g38"><path id="path36" d="M108 19.1v22.5h-5.6V19.1Z" class="st0"/></g><path id="path40" d="m101 37.2-6.7-5.7c.6-1.6 1-3.3 1-4.8v-.3h5v-4.8h-5.1v-3.4l-5.5.3v3h-5.3v4.8h5.4v.3c0 3.7-2.5 7.8-6 10.6l-.2.1 3.7 4c2-1.6 3.5-3.5 4.8-5.3l5.6 5.2z" class="st0"/></g><g id="g50"><path id="polygon44" d="M119.8 25.2h-8.6v4.1h8.4l-.2 4h5.6l.6-14.2h-14.4v4.2h8.7z" class="st0"/><path id="rect46" d="M128 19.1h5.6v15H128z" class="st0"/><path id="polygon48" d="M117.8 33.4h-5.6v8.2h21.7v-5.2l-16.1 1z" class="st0"/></g></g><g id="g74"><path id="path54" d="m13.2 59.1-2.7-4.5h2.6l1.1 2.1h.1l1.1-2.1H18l-2.7 4.5v2.5H13v-2.5z" class="st0"/><path id="path56" d="M18.5 54.6h5.9v1.8h-3.6v.8h3.6V59h-3.6v.8h3.6v1.8h-5.9z" class="st0"/><path id="path58" d="M25.2 59.8h3.7c.4 0 .5-.1.5-.4s-.1-.4-.5-.4h-1.7c-1.3 0-2.2-.8-2.2-2.2 0-1.5.9-2.2 2.2-2.2h4v1.8h-3.6c-.3 0-.5.1-.5.4s.2.4.5.4h1.7c1.3 0 2.2.8 2.2 2.1s-.9 2.2-2.2 2.2h-4.2v-1.7z" class="st0"/><path id="path60" d="M37.9 54.6h2.4l.8 4.2h.1l1.5-2.4h.1l1.5 2.4h.1l.8-4.2h2.4l-1.6 7h-2.2l-1.1-1.7h-.1l-1.1 1.7h-2.2z" class="st0"/><path id="path62" d="M48 54.6h5.9v1.8h-3.6v.8h3.6V59h-3.6v.8h3.6v1.8H48Z" class="st0"/><path id="path64" d="M57.8 54.6h3.8l1.7 6.9H61l-.3-1.1h-2.2l-.3 1.1h-2.3zm1.2 4.2h1.4l-.6-2.4h-.2z" class="st0"/><path id="path66" d="M64 54.6h4.5c1.5 0 2.5.9 2.5 2.3 0 1-.4 1.6-1.2 2l1.1 2.7h-2.4l-.9-2.5h-1.4v2.5H64Zm3.9 3c.4 0 .7-.1.7-.6 0-.4-.3-.6-.7-.6h-1.8v1.1h1.8z" class="st0"/><path id="path68" d="M71.7 54.6h5.9v1.8H74v.8h3.6V59H74v.8h3.6v1.8h-5.9z" class="st0"/><g id="g72"><path id="path70" d="M33.2 61.4c-.2-.2-.3-.5-.3-.7 0-.3.1-.5.3-.7s.5-.3.8-.3.6.1.8.3.3.4.3.7-.1.5-.3.7-.5.3-.8.3-.6-.1-.8-.3m-.8-6.8h3.2l-.9 4.4h-1.5z" class="st0"/></g></g></g></svg>