<?xml version="1.0" encoding="UTF-8" standalone="no"?>
<!-- Created with Inkscape (http://www.inkscape.org/) -->

<svg
   width="59.737625mm"
   height="59.737629mm"
   viewBox="0 0 59.737625 59.737629"
   version="1.1"
   id="svg5132"
   xmlns:inkscape="http://www.inkscape.org/namespaces/inkscape"
   xmlns:sodipodi="http://sodipodi.sourceforge.net/DTD/sodipodi-0.dtd"
   xmlns="http://www.w3.org/2000/svg"
   xmlns:svg="http://www.w3.org/2000/svg">
  <sodipodi:namedview
     id="namedview5134"
     pagecolor="#505050"
     bordercolor="#eeeeee"
     borderopacity="1"
     inkscape:showpageshadow="0"
     inkscape:pageopacity="0"
     inkscape:pagecheckerboard="0"
     inkscape:deskcolor="#505050"
     inkscape:document-units="mm"
     showgrid="false" />
  <defs
     id="defs5129" />
  <g
     inkscape:label="레이어 1"
     inkscape:groupmode="layer"
     id="layer1">
    <path
       fill="#022463"
       d="M 59.73763,29.86881 A 29.868812,29.868812 0 0 1 29.86881,59.73763 29.868812,29.868812 0 0 1 0,29.86881 29.868812,29.868812 0 0 1 29.86881,0 29.868812,29.868812 0 0 1 59.73763,29.86881 Z M 30.33977,3.03742 28.46917,6.25475 a 0.1349375,0.1190625 16.9 0 0 0.11112,0.17992 q 0.51594,0.0582 0.7038,-0.42333 a 0.254,0.16139583 6.3 0 1 0.2196,-0.10848 h 1.5875 a 0.42068749,0.28839583 55.5 0 1 0.22754,0.0873 c 0.24077,0.18785 0.46831,0.70908 0.86783,0.46037 a 0.1825625,0.12964583 61 0 0 0.0238,-0.21431 L 30.52761,3.08503 q -0.10319,-0.1905 -0.18786,-0.0476 z m -3.72798,1.85737 a 0.08995833,0.08995833 0 0 1 -0.0661,-0.127 C 27.62254,2.62996 24.30996,3.53219 23.60881,3.70417 a 0.12170833,0.15875 77.9 0 0 -0.127,0.14817 l 0.55827,3.10356 a 0.14816666,0.15345833 80.6 0 0 0.17198,0.11906 Q 24.81002,6.98766 26.19644,6.7019 C 27.25742,6.48229 27.6834,5.05884 26.61183,4.89479 Z M 36.63156,6.28915 C 35.3404,7.18344 33.55711,5.78115 34.67629,4.63021 q 0.91546,-0.94456 2.1934,0.14552 0.3519,0.29898 0.52652,-0.127 a 0.22225,0.2143125 35.5 0 0 -0.0423,-0.22754 c -2.23044,-2.48973 -5.08,1.06627 -2.8284,2.413 1.18004,0.70644 2.60879,0.37042 3.03742,-1.08215 a 0.15345833,0.14552083 14.1 0 0 -0.11906,-0.1852 l -1.5875,-0.33073 a 0.17197916,0.15875 14.6 0 0 -0.19315,0.10318 c -0.16404,0.49477 0.58737,0.54769 0.88371,0.58738 q 0.50271,0.0714 0.0847,0.36248 z M 40.44421,5.19377 C 40.01559,4.38415 39.39117,6.16744 39.28004,6.41615 38.735,7.61736 39.09219,8.61484 40.42834,8.93234 41.98938,9.30275 42.36509,7.77081 42.85986,6.73365 43.00273,6.43467 42.91806,6.08542 42.52384,6.1939 a 0.16933333,0.34395833 17.7 0 0 -0.17198,0.17991 l -0.76465,1.5584 Q 41.26971,8.5725 40.53152,8.39259 C 38.81173,7.97454 40.03411,6.27063 40.44152,5.4319 a 0.25135416,0.2778125 42.8 0 0 0.003,-0.23813 z m -21.5556,2.81252 c 0.29633,0.57944 -0.91811,1.11919 -1.34673,1.18798 -0.25665,0.0397 -0.91546,-0.14816 -0.71173,0.40746 a 0.20902083,0.22225 83.6 0 0 0.18521,0.13758 q 1.34673,0.11378 2.15106,-0.82814 C 19.69294,8.29204 19.64796,7.22313 18.66371,7.1755 18.01813,7.1464 17.42811,7.72848 16.91746,7.80256 16.37771,7.88196 16.34596,7.40834 16.63965,7.13846 Q 17.11061,6.70984 17.99431,6.5749 18.55523,6.4876 18.22715,6.12246 A 0.29633333,0.32279166 71.4 0 0 17.99961,6.02192 q -1.18269,-0.0106 -1.87325,0.85989 c -0.41011,0.52123 -0.35455,1.35996 0.36777,1.50813 0.56091,0.11642 1.29381,-0.32015 1.83091,-0.57679 a 0.42862499,0.42862499 0 0 1 0.56357,0.19314 z m 25.75718,1.80711 1.04775,0.80169 a 0.40216666,0.16139583 46.1 0 0 0.23548,0.10583 C 46.96619,10.69972 45.10881,9.47473 45.02415,9.40859 A 0.22489583,0.08995833 38.1 0 1 44.90509,9.20221 l 0.38364,-0.54504 a 0.20902083,0.11377083 38.3 0 1 0.24077,0.0423 c 0.49477,0.40481 2.03994,1.79388 1.96321,0.92869 A 0.34395833,0.14816666 30.2 0 0 47.34454,9.42708 l -2.04258,-1.5928 a 0.11641667,0.111125 38.5 0 0 -0.1614,0.0132 l -1.93145,2.50032 a 0.13758333,0.15345833 37.7 0 0 0.0159,0.20637 c 0.16404,0.12965 2.61144,2.36538 2.54529,1.39171 a 0.34925,0.15875 30.1 0 0 -0.14552,-0.20373 l -1.52664,-1.18269 a 0.22489583,0.111125 37.9 0 1 -0.11113,-0.22754 l 0.4154,-0.51329 a 0.19314583,0.15610416 37.8 0 1 0.24341,-0.005 z M 13.72394,8.62462 A 0.20108333,0.20108333 0 0 0 13.44189,8.59022 L 13.267,8.7278 a 0.20108333,0.20108333 0 0 0 -0.0344,0.28205 l 1.87748,2.39448 a 0.20108333,0.20108333 0 0 0 0.28231,0.0344 l 0.17489,-0.13758 a 0.20108333,0.20108333 0 0 0 0.0344,-0.28205 L 13.72419,8.62462 Z m -3.23585,2.67309 c -0.45773,0.36777 -1.02394,0.97102 -1.37584,1.45521 a 0.14816666,0.1508125 39.4 0 0 0.0185,0.19844 q 1.03188,0.96573 2.05846,1.94204 0.43921,0.41804 0.65352,-0.0582 a 0.16139583,0.254 29.4 0 0 -0.0132,-0.25665 L 11.31095,14.1076 a 0.29633333,0.14022916 36.3 0 1 -0.11642,-0.21432 c 0.11377,-0.6006 1.23296,-0.54239 1.70392,-0.59002 q 0.98425,-0.0979 0.87312,-0.64823 c -0.10847,-0.54768 -1.05039,0.127 -1.51606,0.11113 q -0.2196,-0.005 -0.0926,-0.18521 C 12.89316,11.5676 11.60993,10.40078 10.4881,11.29772 Z m 38.65562,1.28323 -1.67746,1.49225 a 0.12964583,0.2143125 46 0 0 -0.0688,0.25929 l 0.29104,0.24342 a 0.1031875,0.26458333 47.8 0 0 0.24871,-0.0953 l 1.79388,-1.57956 a 0.10054167,0.206375 48.4 0 1 0.22489,-0.0635 l 0.52123,0.6006 q 0.11906,0.13758 0.16933,0.15875 0.37836,0.15875 0.43392,-0.2196 A 0.3175,0.08466667 45.4 0 0 50.9561,13.15768 l -1.79388,-2.03994 a 0.20108333,0.15345833 52.7 0 0 -0.22225,-0.0609 q -0.35983,0.2196 0.25929,0.98425 a 0.38364583,0.40216666 49.4 0 1 -0.0556,0.53975 z m 3.07446,3.5851 q -0.91811,0.66411 -1.92088,1.20386 c -0.28045,0.15081 -0.65881,0.45773 -0.0899,0.65881 a 0.3175,0.28839583 37 0 0 0.26193,-0.0238 l 2.00819,-1.23031 a 0.1984375,0.2301875 58.9 0 1 0.30163,0.0529 l 0.41275,0.71173 a 0.3730625,0.17727083 69.5 0 0 0.1852,0.17992 c 0.9525,0.24871 -0.97366,-2.53736 -1.06362,-2.69875 A 0.36247916,0.2778125 78.3 0 0 52.12561,14.859 c -0.81491,-0.25135 0.0714,1.01336 0.1323,1.1139 a 0.1508125,0.14552083 57.3 0 1 -0.0397,0.19314 z M 8.8265,19.48127 Q 9.00113,19.07381 8.7842,18.67429 a 0.254,0.28575 44.5 0 1 0.0132,-0.26987 l 0.84402,-1.40758 a 0.2619375,0.21960416 13.1 0 1 0.2196,-0.11113 q 0.48684,0.008 0.72496,-0.39687 A 0.19314583,0.12964583 10.9 0 0 10.38754,16.2904 L 6.79979,16.1952 q -0.17991,-0.005 -0.0714,0.17727 l 1.82033,3.14325 q 0.15081,0.26194 0.27781,-0.0344 z m 30.83984,9.30804 a 0.15875,0.15610416 30.4 0 1 -0.0556,-0.20902 c 1.85209,-3.27289 1.10067,-7.493 -1.96585,-9.65464 -1.51606,-1.06892 -3.48986,-1.52136 -5.36575,-1.52136 q -6.03779,-0.005 -12.09411,0.0159 a 0.14022916,0.12435417 0 0 0 -0.14022,0.12435 v 9.19427 a 0.14816666,0.13758333 0 0 1 -0.14817,0.13759 l -2.56381,-0.008 a 0.13229166,0.1349375 0 0 0 -0.1323,0.13494 v 5.15937 a 0.13229166,0.13229166 0 0 0 0.1323,0.13229 h 2.57968 a 0.13229166,0.13229166 0 0 1 0.1323,0.1323 v 9.52764 a 0.41539583,0.41804166 89.6 0 0 0.42333,0.4154 q 6.6331,-0.0741 13.17625,-0.0979 c 4.4741,-0.0185 8.73919,-1.8706 9.26306,-6.72571 0.30956,-2.86279 -0.7911,-5.26521 -3.24114,-6.75746 z m 14.13404,-8.3132 0.50271,-0.16934 a 0.21960416,0.10847917 70.2 0 1 0.17462,0.16934 l 0.60854,1.70391 a 0.43127083,0.238125 84.4 0 0 0.13494,0.19579 c 0.97896,0.67998 -0.42069,-2.62731 -0.45244,-2.71727 a 0.17991666,0.20372916 71 0 0 -0.254,-0.10583 l -2.91571,1.04246 a 0.1666875,0.1349375 70.4 0 0 -0.0714,0.20108 l 0.88635,2.48444 a 0.34925,0.23283333 83.3 0 0 0.16933,0.19844 c 0.75936,0.29104 -0.0608,-1.56104 -0.2831,-2.05846 a 0.29633333,0.05820833 64.7 0 1 -0.0688,-0.26723 q 0.29898,-0.32808 0.762,-0.35983 a 0.26458333,0.1349375 74.2 0 1 0.17991,0.19314 l 0.41805,1.23825 a 0.29897916,0.27516666 87.1 0 0 0.1905,0.18786 c 0.71966,0.20373 -0.0476,-1.44463 -0.0979,-1.74361 A 0.174625,0.174625 0 0 1 53.8004,20.47611 Z M 6.51669,22.48959 C 6.63575,21.57148 7.68086,19.66913 5.84994,19.61092 4.67519,19.57652 4.34711,21.38098 4.06136,22.21177 A 0.21166666,0.21166666 0 0 0 4.191,22.479 l 2.87867,0.98161 a 0.206375,0.08466667 16.8 0 0 0.23812,-0.0238 L 7.35539,22.9685 A 0.23547916,0.11641667 13 0 0 7.16489,22.8124 L 6.59868,22.66158 a 0.11641667,0.1666875 9.8 0 1 -0.082,-0.17197 z m -3.21998,5.25197 c -0.13758,4.02696 0.127,7.45861 1.53194,11.26861 0.33602,0.91546 0.43656,0.008 0.31485,-0.33338 Q 3.28348,33.41159 3.72004,27.80771 C 3.74654,27.45846 3.3364,26.62502 3.29671,27.74161 Z m 52.73146,-0.14022 c 0.26723,3.92906 -0.20902,7.75493 -1.5584,11.4591 a 0.20108333,0.2778125 31.3 0 0 0.0185,0.23812 c 0.15082,0.20109 0.33602,-0.0476 0.39159,-0.20108 q 2.08756,-5.62239 1.53987,-11.6205 a 0.25929166,0.3095625 11.5 0 0 -0.11641,-0.21431 q -0.31221,-0.21431 -0.27517,0.33867 z m -50.9614,0.17197 q -0.508,5.58536 1.48961,10.80823 a 0.3571875,0.24077083 83.3 0 0 0.16139,0.18786 c 0.26194,0.11377 0.26459,-0.15875 0.20638,-0.3175 Q 5.03502,33.31634 5.43984,27.85004 c 0.0344,-0.4445 -0.32809,-0.56885 -0.37307,-0.0767 z m 49.23367,-0.10318 c 0.17992,3.77825 -0.1905,7.24164 -1.48696,10.80558 -0.0529,0.14552 -0.005,0.32279 0.15611,0.34131 a 0.15875,0.206375 15.9 0 0 0.17991,-0.13229 q 1.97115,-5.1091 1.5584,-10.58598 c -0.0132,-0.18256 0.10848,-0.65352 -0.28575,-0.59002 a 0.15875,0.14552083 84.5 0 0 -0.12171,0.1614 z m -3.81529,17.27464 0.71437,-1.07421 a 0.09260417,0.2778125 34.1 0 0 0.0767,-0.27516 l -0.22225,-0.17992 a 0.10054167,0.20108333 36 0 0 -0.20373,0.10583 l -0.77258,1.07686 a 0.0873125,0.24077083 35.6 0 1 -0.20902,0.14287 l -0.51329,-0.34396 a 0.127,0.20372916 35.4 0 1 0.0132,-0.24077 l 1.016,-1.43139 a 0.07672917,0.28310416 36.8 0 0 0.0979,-0.24871 l -0.19579,-0.26988 a 0.10847917,0.21695833 39.4 0 0 -0.24871,0.11113 l -1.47637,2.08756 a 0.16139583,0.12170833 35.4 0 0 0.0608,0.1905 l 2.45004,1.7145 a 0.13229166,0.1508125 34.8 0 0 0.19579,-0.0503 l 1.44728,-2.12725 a 0.20902083,0.27516666 45.4 0 0 0.0344,-0.24606 c -0.29369,-0.60325 -1.397,1.32556 -1.54517,1.53194 a 0.1031875,0.23283333 35.4 0 1 -0.2196,0.12964 l -0.50271,-0.36248 a 0.1349375,0.20372916 34.2 0 1 0.003,-0.24077 z m -42.1349,1.06892 c 0.67469,0.75671 1.57427,0.93662 1.80181,-0.33867 a 0.16139583,0.15610416 3.5 0 1 0.15082,-0.12964 c 2.02935,-0.0794 -0.0212,-2.40507 -0.43392,-2.92365 a 0.16404166,0.12170833 52.6 0 0 -0.19315,-0.0556 l -2.36802,1.73566 a 0.16139583,0.15610416 56.3 0 0 -0.0397,0.20903 q 0.47095,0.81491 1.08214,1.50283 z m 41.05857,2.37887 a 0.21166666,0.21166666 0 0 0 -0.008,-0.29898 L 47.3204,46.11899 a 0.21166666,0.21166666 0 0 0 -0.29925,0.008 l -0.10583,0.11113 a 0.21166666,0.21166666 0 0 0 0.008,0.2995 l 2.08042,1.97432 a 0.21166666,0.21166666 0 0 0 0.29924,-0.008 l 0.10583,-0.11113 z m -35.22768,1.3753 a 1.8415,1.7039166 41.8 0 0 -0.2368,-2.49766 1.8415,1.7039166 41.8 0 0 -2.50852,0.0429 1.8415,1.7039166 41.8 0 0 0.23681,2.49766 1.8415,1.7039166 41.8 0 0 2.50851,-0.0429 z m 31.95161,0.008 q 0.65088,-1.14035 -0.54769,-1.62454 -0.42068,-0.16933 -0.78581,0.10319 l -1.62983,1.2065 a 0.15345833,0.14552083 52.6 0 0 -0.0238,0.21431 l 1.76212,2.27542 a 0.25135416,0.08466667 51.8 0 0 0.22754,0.14817 l 0.28311,-0.254 a 0.25664583,0.13229166 49.3 0 0 -0.0661,-0.27782 l -0.36248,-0.42862 a 0.27252083,0.254 34.7 0 1 -0.0556,-0.254 c 0.17727,-0.53181 1.43669,-0.27517 1.89706,-0.26459 q 0.65352,0.0185 0.72231,-0.40745 0.037,-0.24607 -0.17197,-0.34661 a 0.1031875,0.34395833 63 0 0 -0.26459,0.0476 q -0.45508,0.19579 -0.94721,0.10848 a 0.11641667,0.1825625 24.1 0 1 -0.037,-0.24607 z m -29.99846,3.28877 c 1.68805,0.96573 2.23044,-0.60854 2.92365,-1.73831 a 0.29104166,0.37570833 50.7 0 0 0.0556,-0.24077 c -0.16933,-1.09008 -1.41023,1.33879 -1.48166,1.45521 a 0.08995833,0.35189583 28.5 0 1 -0.18257,0.19579 q -1.15887,0.29104 -1.57162,-0.79904 a 0.21695833,0.396875 34 0 1 0.0238,-0.25929 c 0.127,-0.30427 1.41023,-2.17488 0.65617,-2.17752 a 0.21960416,0.26458333 18.2 0 0 -0.20373,0.127 c -0.65352,1.06098 -1.8759,2.48708 -0.21961,3.43693 z m 24.50307,0.64294 -0.17198,-0.43921 a 0.10847917,0.22754166 61.5 0 1 0.13758,-0.1905 q 0.49213,-0.28575 1.01071,-0.52916 c 0.59531,-0.27517 0.25664,-0.70115 -0.23548,-0.47096 q -0.48683,0.23019 -0.97631,0.48683 a 0.08995833,0.2460625 62.4 0 1 -0.25665,0.0344 l -0.29898,-0.56356 a 0.10847917,0.1984375 63.3 0 1 0.12965,-0.18786 c 0.15875,-0.0767 2.35479,-0.92604 1.62454,-1.25677 a 0.2301875,0.36247916 52.4 0 0 -0.26723,0.0238 l -2.17487,1.05569 a 0.16404166,0.142875 64.5 0 0 -0.0582,0.20902 l 1.30439,2.65377 a 0.11641667,0.14816666 64.9 0 0 0.17992,0.0423 c 0.0952,-0.045 3.42635,-1.40759 2.15371,-1.57428 a 0.03439583,0.32014583 63.3 0 0 -0.24871,0.0926 l -1.65629,0.80698 a 0.2460625,0.10583333 67.8 0 1 -0.19579,-0.19315 z m -20.69042,1.19592 c 0.38894,0.14287 2.59292,1.15623 2.6035,0.54504 A 0.20372916,0.21166666 10.6 0 0 22.4155,55.2448 L 20.71159,54.63891 A 0.1905,0.13229166 19.4 0 1 20.57665,54.4537 l 0.76994,-2.20134 a 0.25929166,0.333375 36.6 0 0 -0.005,-0.23283 c -0.4736,-0.94456 -1.41552,2.53206 -1.47637,2.70669 a 0.14022916,0.14022916 0 0 0 0.082,0.17727 z m 17.51012,-0.27517 c -0.28045,0.86519 -1.52664,1.18534 -2.09814,0.51594 -0.82815,-0.97631 0.0397,-2.05846 1.21708,-1.95792 0.29369,0.0265 0.84402,0.39159 0.78052,-0.28046 a 0.1984375,0.19579166 5.3 0 0 -0.14287,-0.16933 c -1.08744,-0.33073 -2.45534,0.0609 -2.71992,1.27265 -0.59796,2.74373 4.11427,2.65906 3.52161,-0.13494 a 0.14816666,0.1508125 80.4 0 0 -0.16405,-0.11377 c -0.0159,0.003 -2.6326,0.52917 -1.33085,0.82021 q 0.0265,0.008 0.25929,-0.0529 l 0.59531,-0.15081 q 0.17727,-0.0423 0.082,0.25135 z m -13.25562,1.64836 q 0.40746,-0.045 0.65881,-0.381 a 0.2460625,0.1190625 14.1 0 1 0.20902,-0.0423 l 1.52665,0.24342 a 0.27516666,0.27516666 0 0 1 0.22225,0.19315 q 0.11377,0.38893 0.52387,0.45508 a 0.17727083,0.16139583 83.3 0 0 0.16934,-0.23813 l -1.18534,-3.17764 q -0.0714,-0.1905 -0.20637,-0.0132 l -2.07433,2.68817 q -0.24342,0.3175 0.1561,0.27252 z m 7.72583,-0.87313 -2.33891,-1.76477 q -0.18257,-0.13758 -0.17198,0.0873 l 0.1561,2.91042 a 0.20902083,0.1825625 86.6 0 0 0.19579,0.20108 l 0.24871,-0.0159 a 0.2460625,0.111125 87 0 0 0.0979,-0.25136 l -0.0847,-1.52135 q -0.0185,-0.3175 0.21167,-0.14552 l 2.27012,1.69598 q 0.18521,0.13758 0.17463,-0.0952 -0.0635,-1.38113 -0.13759,-2.7649 c -0.0132,-0.26723 -0.16933,-0.46037 -0.4392,-0.27516 a 0.22489583,0.2143125 71.8 0 0 -0.0926,0.19579 l 0.0847,1.65364 q 0.0106,0.23019 -0.17463,0.09 z"
       id="path3776"
       style="stroke-width:0.264583" />
    <path
       fill="#ffffff"
       d="m 30.33977,3.03742 q 0.0847,-0.14288 0.18786,0.0476 l 1.68275,3.15119 a 0.1825625,0.12964583 61 0 1 -0.0238,0.21431 C 31.78706,6.69923 31.55952,6.178 31.31875,5.99015 a 0.42068749,0.28839583 55.5 0 0 -0.22754,-0.0873 h -1.5875 a 0.254,0.16139583 6.3 0 0 -0.2196,0.10848 q -0.18786,0.48154 -0.7038,0.42333 A 0.1349375,0.1190625 16.9 0 1 28.46919,6.25474 Z m -0.60854,2.20662 a 0.08202083,0.08202083 0 0 0 0.0714,0.12171 l 1.14564,0.0159 a 0.08202083,0.08202083 0 0 0 0.0741,-0.11907 L 30.4641,4.17515 a 0.08202083,0.08202083 0 0 0 -0.14288,0 z"
       id="path3780"
       style="stroke-width:0.264583" />
    <path
       fill="#ffffff"
       d="m 26.61179,4.89479 c 1.07157,0.16405 0.64559,1.5875 -0.41539,1.80711 Q 24.80998,6.98765 24.21202,7.07496 A 0.14816666,0.15345833 80.6 0 1 24.04004,6.9559 L 23.48177,3.85234 a 0.12170833,0.15875 77.9 0 1 0.127,-0.14817 c 0.70115,-0.17198 4.01373,-1.07421 2.93688,1.06362 a 0.08995833,0.08995833 0 0 0 0.0661,0.127 z M 26.06252,4.10237 A 0.28045833,0.28045833 0 0 0 25.73444,3.87959 l -1.28905,0.24606 a 0.28045833,0.28045833 0 0 0 -0.22305,0.32808 l 0.0495,0.25956 a 0.28045833,0.28045833 0 0 0 0.32808,0.22304 l 1.28905,-0.24606 a 0.28045833,0.28045833 0 0 0 0.22305,-0.32808 z m 0.46037,1.38694 A 0.31485416,0.31485416 0 0 0 26.15618,5.23637 L 24.72479,5.4991 a 0.31485416,0.31485416 0 0 0 -0.25268,0.36671 l 0.0487,0.26538 a 0.31485416,0.31485416 0 0 0 0.36645,0.25294 l 1.4314,-0.26273 a 0.31485416,0.31485416 0 0 0 0.25267,-0.36671 l -0.0487,-0.26538 z"
       id="path3784"
       style="stroke-width:0.264583" />
    <path
       fill="#ffffff"
       d="m 34.67629,4.63021 c -1.11918,1.15094 0.66411,2.55323 1.95527,1.65894 Q 37.04961,5.99811 36.54686,5.92667 C 36.25052,5.88697 35.49911,5.83407 35.66315,5.33929 A 0.17197916,0.15875 14.6 0 1 35.8563,5.23611 l 1.5875,0.33073 a 0.15345833,0.14552083 14.1 0 1 0.11906,0.1852 c -0.42863,1.45257 -1.85738,1.78859 -3.03742,1.08215 -2.2516,-1.34673 0.59796,-4.90273 2.8284,-2.413 a 0.22225,0.2143125 35.5 0 1 0.0423,0.22754 q -0.17462,0.42598 -0.52652,0.127 -1.27794,-1.09008 -2.1934,-0.14552 z"
       id="path3788"
       style="stroke-width:0.264583" />
    <rect
       width="1.8732499"
       height="0.82549995"
       x="22.958771"
       y="8.6329784"
       fill="#051e5b"
       rx="0.2804583"
       transform="rotate(-10.8)"
       id="rect3792"
       style="stroke-width:0.264583" />
    <path
       fill="#ffffff"
       d="m 39.28004,6.41615 c 0.11113,-0.24871 0.73555,-2.032 1.16417,-1.22238 a 0.25135416,0.2778125 42.8 0 1 -0.003,0.23813 c -0.40745,0.83873 -1.62983,2.54264 0.09,2.96069 Q 41.2694,8.5725 41.5869,7.93221 l 0.76465,-1.5584 A 0.16933333,0.34395833 17.7 0 1 42.52353,6.1939 c 0.39422,-0.10848 0.47889,0.24077 0.33602,0.53975 -0.49477,1.03716 -0.87048,2.5691 -2.43152,2.19869 -1.33615,-0.3175 -1.69334,-1.31498 -1.1483,-2.51619 z"
       id="path3798"
       style="stroke-width:0.264583" />
    <rect
       width="2.0849168"
       height="0.89958334"
       x="23.011105"
       y="9.8721418"
       fill="#051e5b"
       rx="0.31485417"
       transform="rotate(-10.400001)"
       id="rect3802"
       style="stroke-width:0.264583" />
    <path
       fill="#ffffff"
       d="M 18.88861,8.00629 A 0.42862499,0.42862499 0 0 0 18.32504,7.81315 c -0.5371,0.25664 -1.27,0.69321 -1.83091,0.57679 -0.72232,-0.14817 -0.77788,-0.9869 -0.36777,-1.50813 q 0.69056,-0.87047 1.87325,-0.85989 a 0.29633333,0.32279166 71.4 0 1 0.22754,0.10054 q 0.32808,0.36513 -0.23284,0.45244 -0.8837,0.13494 -1.35466,0.56356 c -0.29369,0.26988 -0.26194,0.74348 0.27781,0.6641 0.51065,-0.0741 1.10067,-0.65616 1.74625,-0.62706 0.98425,0.0476 1.02923,1.11654 0.50271,1.73567 Q 18.36209,9.85309 17.01536,9.73931 A 0.20902083,0.22225 83.6 0 1 16.83015,9.60173 C 16.62642,9.04611 17.28523,9.23396 17.54188,9.19427 17.9705,9.12547 19.18494,8.58573 18.88861,8.00629 Z"
       id="path3806"
       style="stroke-width:0.264583" />
    <path
       fill="#ffffff"
       d="m 44.40238,9.81869 -0.4154,0.51329 a 0.22489583,0.111125 37.9 0 0 0.11113,0.22754 l 1.52664,1.18269 a 0.34925,0.15875 30.1 0 1 0.14552,0.20373 c 0.0661,0.97367 -2.38125,-1.26206 -2.54529,-1.39171 a 0.13758333,0.15345833 37.7 0 1 -0.0159,-0.20637 l 1.93145,-2.50032 a 0.11641667,0.111125 38.5 0 1 0.1614,-0.0132 l 2.04258,1.5928 a 0.34395833,0.14816666 30.2 0 1 0.14817,0.20108 c 0.0767,0.86519 -1.46844,-0.52388 -1.96321,-0.92869 A 0.20902083,0.11377083 38.3 0 0 45.2887,8.65723 l -0.38364,0.54504 a 0.22489583,0.08995833 38.1 0 0 0.11906,0.20638 c 0.0847,0.0661 1.94204,1.29116 0.90487,1.31233 A 0.40216666,0.16139583 46.1 0 1 45.69351,10.61515 L 44.64576,9.81346 a 0.19314583,0.15610416 37.8 0 0 -0.24341,0.005 z"
       id="path3810"
       style="stroke-width:0.264583" />
    <rect
       width="0.62441665"
       height="3.444875"
       x="4.8539143"
       y="15.054271"
       fill="#ffffff"
       rx="0.20108333"
       transform="rotate(-38.1)"
       id="rect3814"
       style="stroke-width:0.264583" />
    <rect
       width="1.1006666"
       height="1.9367501"
       x="15.893819"
       y="0.78177333"
       fill="#051e5b"
       rx="0.32279167"
       transform="rotate(42.7)"
       id="rect3822"
       style="stroke-width:0.264583" />
    <path
       fill="#ffffff"
       d="m 52.25786,15.9729 c -0.0609,-0.10054 -0.94721,-1.36525 -0.1323,-1.1139 a 0.36247916,0.2778125 78.3 0 1 0.18786,0.1614 c 0.09,0.16139 2.01612,2.94746 1.06362,2.69875 a 0.3730625,0.17727083 69.5 0 1 -0.1852,-0.17992 L 52.77909,16.8275 a 0.1984375,0.2301875 58.9 0 0 -0.30163,-0.0529 l -2.00819,1.23031 a 0.3175,0.28839583 37 0 1 -0.26193,0.0238 c -0.56886,-0.20108 -0.1905,-0.508 0.0899,-0.65881 q 1.00277,-0.53975 1.92088,-1.20386 a 0.1508125,0.14552083 57.3 0 0 0.0397,-0.19314 z"
       id="path3826"
       style="stroke-width:0.264583" />
    <path
       fill="#051e5b"
       d="m 7.85813,16.79575 1.0451,0.0185 a 0.127,0.127 0 0 1 0.10848,0.18786 l -0.50535,0.91281 a 0.127,0.127 0 0 1 -0.21961,0.003 L 7.747,16.98658 a 0.127,0.127 0 0 1 0.11113,-0.1905 z"
       id="path3832"
       style="stroke-width:0.264583" />
    <path
       fill="#022463"
       d="m 24.5454,30.97213 -0.008,9.65729 a 0.127,0.20108333 0.5 0 1 -0.127,0.19844 h -2.64583 a 0.13229166,0.13229166 0 0 1 -0.13229,-0.1323 v -9.65729 a 0.20108333,0.12964583 89.7 0 0 -0.1323,-0.20108 l -2.64583,0.0106 a 0.14022916,0.12964583 89.5 0 1 -0.13229,-0.14023 v -2.18281 a 0.13229166,0.13229166 0 0 1 0.13229,-0.13229 h 2.64583 a 0.13229166,0.13229166 0 0 0 0.1323,-0.13229 V 19.0659 a 0.142875,0.127 0 0 1 0.14287,-0.127 q 4.84717,-0.003 9.68375,-0.0106 c 3.31788,-0.005 6.28915,0.73555 7.21519,4.21482 1.06362,4.01108 -1.3335,7.31308 -5.51921,7.65968 q -1.59544,0.13494 -8.46402,0.0556 a 0.142875,0.11377083 0.6 0 0 -0.14552,0.11377 z m 7.73112,-2.57704 c 3.88673,-0.0132 5.30225,-4.96888 1.95263,-6.56961 q -0.90752,-0.43127 -3.31259,-0.44185 -3.1115,-0.0132 -6.23358,0.008 a 0.14022916,0.12170833 0 0 0 -0.14023,0.12171 v 6.74688 a 0.14552083,0.12435417 0.6 0 0 0.14288,0.12435 q 3.81,0.0238 7.59089,0.0106 z"
       id="path3838"
       style="stroke-width:0.264583" />
    <path
       fill="#ffffff"
       d="m 53.68396,20.66925 c 0.0503,0.29898 0.81756,1.94734 0.0979,1.74361 A 0.29897916,0.27516666 87.1 0 1 53.59136,22.225 L 53.17331,20.98675 A 0.26458333,0.1349375 74.2 0 0 52.9934,20.79361 q -0.46302,0.0318 -0.762,0.35983 a 0.29633333,0.05820833 64.7 0 0 0.0688,0.26723 c 0.22225,0.49742 1.04246,2.3495 0.2831,2.05846 a 0.34925,0.23283333 83.3 0 1 -0.16933,-0.19844 l -0.88635,-2.48444 a 0.1666875,0.1349375 70.4 0 1 0.0714,-0.20108 l 2.91571,-1.04246 a 0.17991666,0.20372916 71 0 1 0.254,0.10583 c 0.0317,0.09 1.4314,3.39725 0.45244,2.71727 a 0.43127083,0.238125 84.4 0 1 -0.13494,-0.19579 l -0.60854,-1.70391 a 0.21960416,0.10847917 70.2 0 0 -0.17462,-0.16934 l -0.50271,0.16934 a 0.174625,0.174625 0 0 0 -0.11642,0.19314 z m -47.08525,1.99231 0.56621,0.15082 a 0.23547916,0.11641667 13 0 1 0.1905,0.1561 l -0.0476,0.46831 A 0.206375,0.08466667 16.8 0 1 7.0697,23.46059 L 4.19103,22.47898 A 0.21166666,0.21166666 0 0 1 4.06139,22.21175 c 0.28575,-0.83079 0.61383,-2.63525 1.78858,-2.60085 1.83092,0.0582 0.78581,1.96056 0.66675,2.87867 a 0.11641667,0.1666875 9.8 0 0 0.082,0.17197 z M 6.4135,20.85711 A 0.35983333,0.35983333 0 0 0 6.19734,20.39647 L 5.75469,20.23613 a 0.35983333,0.35983333 0 0 0 -0.4609,0.2159 l -0.43577,1.20385 a 0.35983333,0.35983333 0 0 0 0.2159,0.46091 l 0.44264,0.16033 a 0.35983333,0.35983333 0 0 0 0.46091,-0.2159 l 0.43577,-1.20385 z"
       id="path3842"
       style="stroke-width:0.264583" />
    <rect
       width="1.190625"
       height="2.0002499"
       x="11.939187"
       y="17.068964"
       fill="#051e5b"
       rx="0.35983333"
       transform="rotate(19.899999)"
       id="rect3846"
       style="stroke-width:0.264583" />
    <path
       fill="#022463"
       d="m 34.14977,26.02706 c -0.4736,1.27 -5.06941,0.96309 -7.91633,0.88107 A 0.17197916,0.1031875 0.7 0 1 26.06411,26.80494 V 22.96848 A 0.1666875,0.10847917 0 0 1 26.23079,22.86 q 4.88157,-0.0714 5.90815,-0.0238 3.14854,0.14817 2.01083,3.19087 z"
       id="path3852"
       style="stroke-width:0.264583" />
    <path
       fill="#ffffff"
       d="m 3.29671,27.74156 c 0.0397,-1.11654 0.44979,-0.2831 0.42333,0.0661 Q 3.28348,33.41154 5.1435,38.67674 c 0.12171,0.34132 0.0212,1.24884 -0.31485,0.33338 -1.40494,-3.81 -1.66952,-7.24165 -1.53194,-11.26861 z m 51.17306,11.31888 c 1.34938,-3.70417 1.82563,-7.53004 1.5584,-11.4591 q -0.037,-0.55298 0.27517,-0.33867 a 0.25929166,0.3095625 11.5 0 1 0.11641,0.21431 q 0.54769,5.99811 -1.53987,11.6205 c -0.0556,0.15346 -0.24077,0.40217 -0.39159,0.20108 a 0.20108333,0.2778125 31.3 0 1 -0.0185,-0.23812 z"
       id="path3858"
       style="stroke-width:0.264583" />
    <path
       fill="#ffffff"
       d="m 5.06677,27.77331 c 0.045,-0.49212 0.40746,-0.36777 0.37307,0.0767 q -0.40482,5.4663 1.48431,10.60186 c 0.0582,0.15875 0.0556,0.43127 -0.20638,0.3175 A 0.3571875,0.24077083 83.3 0 1 6.55638,38.58151 Q 4.55877,33.35864 5.06677,27.77328 Z m 47.74671,10.7024 c 1.29646,-3.56394 1.66688,-7.02733 1.48696,-10.80558 a 0.15875,0.14552083 84.5 0 1 0.12171,-0.1614 c 0.39423,-0.0635 0.27252,0.40746 0.28575,0.59002 q 0.41275,5.47688 -1.5584,10.58598 a 0.15875,0.206375 15.9 0 1 -0.17991,0.13229 c -0.1614,-0.0185 -0.20903,-0.19579 -0.15611,-0.34131 z"
       id="path3864"
       style="stroke-width:0.264583" />
    <path
       fill="#022463"
       d="m 37.77986,35.86163 c 0.58737,-1.60073 0.0661,-3.28084 -1.39171,-4.21746 q -0.11642,-0.0741 0.0106,-0.127 1.18533,-0.50271 2.08756,-1.41817 a 0.17991666,0.14552083 37.5 0 1 0.20109,-0.005 c 1.77006,1.10596 2.69875,2.85485 2.56116,4.96623 -0.27516,4.25185 -4.08252,5.73617 -7.85018,5.75998 q -3.59305,0.0212 -7.18873,0 A 0.14552083,0.12435417 0 0 1 26.06413,40.69585 V 38.4469 a 0.14816666,0.127 0 0 1 0.14816,-0.127 q 3.36815,-0.008 6.731,0 c 1.9394,0.003 4.0984,-0.44186 4.83659,-2.45798 z"
       id="path3866"
       style="stroke-width:0.264583" />
    <path
       fill="#022463"
       d="m 33.72115,32.3559 c 3.77031,0.14023 3.33904,4.318 0.32808,4.42119 q -1.58485,0.0529 -7.8396,0.008 a 0.14816666,0.12435417 0.6 0 1 -0.14552,-0.12435 v -4.16719 a 0.1666875,0.174625 89.1 0 1 0.16933,-0.16669 q 3.75708,-0.10848 7.48771,0.0291 z"
       id="path3872"
       style="stroke-width:0.264583" />
    <path
       fill="#ffffff"
       d="m 50.4825,45.18554 0.50271,0.36248 a 0.1031875,0.23283333 35.4 0 0 0.2196,-0.12964 c 0.14817,-0.20638 1.25148,-2.13519 1.54517,-1.53194 a 0.20902083,0.27516666 45.4 0 1 -0.0344,0.24606 l -1.44728,2.12725 a 0.13229166,0.1508125 34.8 0 1 -0.19579,0.0503 l -2.45004,-1.7145 a 0.16139583,0.12170833 35.4 0 1 -0.0608,-0.1905 l 1.47637,-2.08756 a 0.10847917,0.21695833 39.4 0 1 0.24871,-0.11113 l 0.19579,0.26988 a 0.07672917,0.28310416 36.8 0 1 -0.0979,0.24871 l -1.016,1.43139 a 0.127,0.20372916 35.4 0 0 -0.0132,0.24077 l 0.51329,0.34396 a 0.0873125,0.24077083 35.6 0 0 0.20902,-0.14287 l 0.77258,-1.07686 a 0.10054167,0.20108333 36 0 1 0.20373,-0.10583 l 0.22225,0.17992 a 0.09260417,0.2778125 34.1 0 1 -0.0767,0.27516 l -0.71437,1.07421 a 0.1349375,0.20372916 34.2 0 0 -0.003,0.24077 z"
       id="path3874"
       style="stroke-width:0.264583" />
    <path
       fill="#ffffff"
       d="M 8.35025,46.01369 Q 7.73906,45.32577 7.26811,44.51086 a 0.16139583,0.15610416 56.3 0 1 0.0397,-0.20903 l 2.36802,-1.73566 a 0.16404166,0.12170833 52.6 0 1 0.19315,0.0556 c 0.41275,0.51858 2.46327,2.84427 0.43392,2.92365 a 0.16139583,0.15610416 3.5 0 0 -0.15082,0.12964 C 9.92454,46.95035 9.02496,46.77044 8.35027,46.01373 Z M 9.8597,43.45861 a 0.24341666,0.24341666 0 0 0 -0.33972,-0.0556 l -0.25797,0.1852 a 0.24341666,0.24341666 0 0 0 -0.0556,0.33973 l 0.75671,1.05304 a 0.24341666,0.24341666 0 0 0 0.33946,0.0556 l 0.25797,-0.18521 a 0.24341666,0.24341666 0 0 0 0.0556,-0.33972 l -0.7567,-1.05304 z m -1.07289,0.82973 a 0.28310416,0.28310416 0 0 0 -0.39555,-0.0611 l -0.24341,0.17807 a 0.28310416,0.28310416 0 0 0 -0.0614,0.39555 l 0.82206,1.12316 a 0.28310416,0.28310416 0 0 0 0.39556,0.0611 l 0.24341,-0.17806 a 0.28310416,0.28310416 0 0 0 0.0614,-0.39555 z"
       id="path3878"
       style="stroke-width:0.264583" />
    <rect
       width="0.80433333"
       height="1.7832916"
       x="-18.157513"
       y="40.802166"
       fill="#051e5b"
       rx="0.24341667"
       transform="rotate(-35.700001)"
       id="rect3882"
       style="stroke-width:0.264583" />
    <rect
       width="0.86783332"
       height="1.9579166"
       x="-19.934189"
       y="40.64534"
       fill="#051e5b"
       rx="0.28310418"
       transform="rotate(-36.199999)"
       id="rect3886"
       style="stroke-width:0.264583" />
    <rect
       width="3.2914166"
       height="0.5767917"
       x="65.859665"
       y="0.88045782"
       fill="#ffffff"
       rx="0.21166667"
       transform="rotate(43.5)"
       id="rect3890"
       style="stroke-width:0.264583" />
    <path
       fill="#ffffff"
       d="m 14.18114,49.76813 a 1.8415,1.7039166 41.8 0 1 -2.50825,0.0423 1.8415,1.7039166 41.8 0 1 -0.23707,-2.49767 1.8415,1.7039166 41.8 0 1 2.50825,-0.0423 1.8415,1.7039166 41.8 0 1 0.23707,2.49767 z m -0.18997,-1.23825 a 1.1853333,1.1853333 0 0 0 -1.18533,-1.18534 1.1853333,1.1853333 0 0 0 -1.18534,1.18534 1.1853333,1.1853333 0 0 0 1.18534,1.18533 1.1853333,1.1853333 0 0 0 1.18533,-1.18533 z"
       id="path3894"
       style="stroke-width:0.264583" />
    <circle
       cx="12.805836"
       cy="48.529865"
       r="1.1853334"
       fill="#051e5b"
       id="circle3896"
       style="stroke-width:0.264583" />
    <path
       fill="#ffffff"
       d="m 46.16979,50.02213 q 0.49213,0.0873 0.94721,-0.10848 a 0.1031875,0.34395833 63 0 1 0.26459,-0.0476 q 0.20902,0.10054 0.17197,0.34661 -0.0688,0.42598 -0.72231,0.40745 c -0.46037,-0.0106 -1.71979,-0.26722 -1.89706,0.26459 a 0.27252083,0.254 34.7 0 0 0.0556,0.254 l 0.36248,0.42862 a 0.25664583,0.13229166 49.3 0 1 0.0661,0.27782 l -0.28311,0.254 A 0.25135416,0.08466667 51.8 0 1 44.90772,51.95097 L 43.1456,49.67555 a 0.15345833,0.14552083 52.6 0 1 0.0238,-0.21431 l 1.62983,-1.2065 q 0.36513,-0.27252 0.78581,-0.10319 1.19857,0.48419 0.54769,1.62454 a 0.11641667,0.1825625 24.1 0 0 0.037,0.24607 z m -0.89164,-1.37584 -1.32556,0.86254 a 0.269875,0.111125 55 0 0 0.0661,0.29105 l 0.37836,0.53975 a 0.1508125,0.1666875 55 0 0 0.22489,0.0291 c 0.37571,-0.26987 1.57692,-0.98954 0.94456,-1.54252 a 0.35189583,0.06085417 41.8 0 0 -0.28839,-0.17992 z"
       id="path3900"
       style="stroke-width:0.264583" />
    <path
       fill="#ffffff"
       d="M 16.13429,53.06483 C 14.478,52.11498 15.70038,50.68888 16.3539,49.6279 a 0.21960416,0.26458333 18.2 0 1 0.20373,-0.127 c 0.75406,0.003 -0.52917,1.87325 -0.65617,2.17752 a 0.21695833,0.396875 34 0 0 -0.0238,0.25929 q 0.41275,1.09008 1.57162,0.79904 a 0.08995833,0.35189583 28.5 0 0 0.18257,-0.19579 c 0.0714,-0.11642 1.31233,-2.54529 1.48166,-1.45521 a 0.29104166,0.37570833 50.7 0 1 -0.0556,0.24077 c -0.69321,1.12977 -1.2356,2.70404 -2.92365,1.73831 z"
       id="path3908"
       style="stroke-width:0.264583" />
    <path
       fill="#ffffff"
       d="m 40.83315,53.90092 1.65629,-0.80698 a 0.03439583,0.32014583 63.3 0 1 0.24871,-0.0926 c 1.27264,0.16669 -2.05846,1.5293 -2.15371,1.57428 a 0.11641667,0.14816666 64.9 0 1 -0.17992,-0.0423 l -1.30439,-2.65377 a 0.16404166,0.142875 64.5 0 1 0.0582,-0.20902 l 2.17487,-1.05569 a 0.2301875,0.36247916 52.4 0 1 0.26723,-0.0238 c 0.73025,0.33073 -1.46579,1.18004 -1.62454,1.25677 a 0.10847917,0.1984375 63.3 0 0 -0.12965,0.18786 l 0.29898,0.56356 a 0.08995833,0.2460625 62.4 0 0 0.25665,-0.0344 q 0.48948,-0.25664 0.97631,-0.48683 c 0.49212,-0.23019 0.83079,0.19579 0.23548,0.47096 q -0.51858,0.24341 -1.01071,0.52916 a 0.10847917,0.22754166 61.5 0 0 -0.13758,0.1905 l 0.17198,0.43921 a 0.2460625,0.10583333 67.8 0 0 0.19579,0.19315 z m -20.88621,1.00277 a 0.14022916,0.14022916 0 0 1 -0.082,-0.17727 c 0.0608,-0.17463 1.00277,-3.65125 1.47637,-2.70669 a 0.25929166,0.333375 36.6 0 1 0.005,0.23283 l -0.76994,2.20134 a 0.1905,0.13229166 19.4 0 0 0.13494,0.18521 l 1.70391,0.60589 a 0.20372916,0.21166666 10.6 0 1 0.13494,0.20373 c -0.0106,0.61119 -2.21456,-0.40217 -2.6035,-0.54504 z"
       id="path3912"
       style="stroke-width:0.264583" />
    <path
       fill="#ffffff"
       d="m 37.37504,54.37717 -0.59531,0.15081 q -0.23283,0.0608 -0.25929,0.0529 c -1.30175,-0.29104 1.31498,-0.81757 1.33085,-0.82021 a 0.14816666,0.1508125 80.4 0 1 0.16405,0.11377 c 0.59266,2.794 -4.11957,2.87867 -3.52161,0.13494 0.26458,-1.21179 1.63248,-1.60338 2.71992,-1.27265 a 0.1984375,0.19579166 5.3 0 1 0.14287,0.16933 c 0.0635,0.67205 -0.48683,0.30692 -0.78052,0.28046 -1.17739,-0.10054 -2.04523,0.98161 -1.21708,1.95792 0.5715,0.6694 1.81769,0.34925 2.09814,-0.51594 q 0.0952,-0.29369 -0.082,-0.25135 z"
       id="path3916"
       style="stroke-width:0.264583" />
    <path
       fill="#ffffff"
       d="m 24.20144,56.27688 q -0.39952,0.045 -0.1561,-0.27252 l 2.07433,-2.68817 q 0.13494,-0.17727 0.20637,0.0132 l 1.18534,3.17764 a 0.17727083,0.16139583 83.3 0 1 -0.16934,0.23813 q -0.4101,-0.0661 -0.52387,-0.45508 a 0.27516666,0.27516666 0 0 0 -0.22225,-0.19315 l -1.52665,-0.24342 a 0.2460625,0.1190625 14.1 0 0 -0.20902,0.0423 q -0.25135,0.33602 -0.65881,0.381 z m 1.09802,-1.04775 a 0.10847917,0.10847917 0 0 0 0.0661,0.17727 l 1.03452,0.16668 a 0.10847917,0.10847917 0 0 0 0.11906,-0.14816 l -0.38365,-0.93398 a 0.10847917,0.10847917 0 0 0 -0.18256,-0.0291 z"
       id="path3920"
       style="stroke-width:0.264583" />
    <path
       fill="#ffffff"
       d="m 32.1019,55.31379 -0.0847,-1.65364 a 0.22489583,0.2143125 71.8 0 1 0.0926,-0.19579 c 0.26987,-0.18521 0.42597,0.008 0.4392,0.27516 q 0.0741,1.38377 0.13759,2.7649 0.0106,0.23283 -0.17463,0.0952 l -2.27012,-1.69598 q -0.23019,-0.17198 -0.21167,0.14552 l 0.0847,1.52135 a 0.2460625,0.111125 87 0 1 -0.0979,0.25136 l -0.24871,0.0159 a 0.20902083,0.1825625 86.6 0 1 -0.19579,-0.20108 l -0.1561,-2.91042 q -0.0106,-0.22489 0.17198,-0.0873 l 2.33891,1.76477 q 0.18521,0.14023 0.17463,-0.09 z"
       id="path3924"
       style="stroke-width:0.264583" />
    <path
       fill="#041c52"
       d="m 25.29946,55.22913 0.65352,-0.7673 a 0.10847917,0.10847917 0 0 1 0.18256,0.0291 l 0.38365,0.93398 a 0.10847917,0.10847917 0 0 1 -0.11906,0.14816 l -1.03452,-0.16668 a 0.10847917,0.10847917 0 0 1 -0.0661,-0.17727 z"
       id="path3930"
       style="stroke-width:0.264583" />
  </g>
</svg>
