<svg xmlns="http://www.w3.org/2000/svg" xml:space="preserve" width="1000px" height="659.782px" x="0px" y="0px" viewBox="0 0 1000 659.782"><path fill="#FFF" d="M98.961 379.733c0-.783-.639-1.428-1.428-1.428H48.252c-26.643 0-48.25-21.652-48.25-48.256 0-12.9 4.283-25.958 14.133-35.794L283.373 14.167c18.889-18.889 49.506-18.889 68.395 0l62.742 60.985 126.756-.2C549.694 23.048 617.653.115 663.498.115c77.275 0 141.938 53.964 158.391 126.247.287 1.264.594 2.516.799 3.783.133.668.502 1.239 1.074 1.539 55.563 30.57 94.496 87.621 99.779 154.163.072.829.441 1.538 1.127 1.909.41.235.818.497 1.238.745 44.393 26.665 74.092 75.271 74.092 130.822 0 63.6-38.934 118.096-94.26 140.988a1.433 1.433 0 0 0-.881 1.32v49.879c0 26.654-21.613 48.271-48.271 48.271H147.32c-26.67 0-48.283-21.617-48.283-48.271l-.076-231.777z"/><path fill="#003893" d="M485.48 367.549c17.139 0 31.051-13.887 31.051-31.041V223.51c0-17.141-13.912-31.044-31.051-31.044-17.16 0-31.043 13.903-31.043 31.044v112.999c.001 17.154 13.883 31.04 31.043 31.04M729.859 367.549c17.148 0 31.053-13.887 31.053-31.041V223.51c0-17.141-13.904-31.044-31.053-31.044-17.139 0-31.041 13.903-31.041 31.044v112.999c0 17.154 13.903 31.04 31.041 31.04M385.762 439.114c0-.941-.768-1.709-1.719-1.709l-8.129-.021c-14.334 0-25.953-11.625-25.953-25.963 0-14.334 11.619-25.959 25.953-25.959h73.252c14.344 0 25.973 11.625 25.973 25.959 0 14.338-11.629 25.963-25.973 25.963l-4.207.021c-.953 0-1.721.768-1.721 1.709l-.031 92.465c0 15.854-12.859 28.686-28.697 28.686-15.848 0-28.697-12.832-28.697-28.686l-.051-92.465zM648.93 192.466c-16.535 0-29.926 13.409-29.926 29.941l-.277 21.988-.01-.136a.627.627 0 0 1-.635.619.603.603 0 0 1-.512-.284l-26.732-38.72v.023c-5.395-7.789-14.404-12.885-24.59-12.885-16.545 0-29.926 13.394-29.926 29.938v114.365c0 16.535 13.381 29.936 29.926 29.936 16.533 0 29.936-13.4 29.936-29.936l.307-22.461v.049c0-.346.287-.619.625-.619.225 0 .398.087.512.261l26.158 38.457c5.344 8.252 14.609 13.709 25.145 13.709 16.523 0 29.924-13.408 29.924-29.941V222.407c-.001-16.532-13.402-29.941-29.925-29.941M403.781 192.466c-9.594 0-18.152 4.367-23.834 11.213v-.048l-33.273 37.714s-.389.88-1.244.88-1.582-.88-1.582-.88l-33.795-37.404c-5.672-6.995-14.322-11.475-24.049-11.475-17.088 0-30.945 13.867-30.945 30.957V337.44c0 16.52 13.408 29.926 29.932 29.926 16.529 0 29.936-13.406 29.936-29.926l.732-41.028c.057-.445.424-.807.885-.807.23 0 .451.1.615.249l26.885 30.064s.695 1.08 1.637 1.08c.932 0 1.607-1.08 1.607-1.08l25.305-30.597a.864.864 0 0 1 .629-.248c.502 0 .896.384.896.881h.016l.742 41.486c0 16.52 13.396 29.926 29.93 29.926 16.523 0 29.936-13.406 29.936-29.926V223.423c-.002-17.09-13.863-30.957-30.961-30.957M733.516 456.866l-15.449-.016c-.502 0-.912-.383-.912-.891v-25.426c0-.496.41-.881.912-.881l15.449.012c7.514 0 13.605 6.08 13.605 13.596 0 7.504-6.092 13.606-13.605 13.606m.101-71.379-58.797-.025c-9.91 0-17.938 8.037-17.938 17.932l.123 126.797c0 16.607 13.453 30.074 30.08 30.074 16.615 0 30.09-13.467 30.09-30.074l.01-29.408c0-.496.398-.896.9-.896l13.607.016c42.066 0 62.154-28.389 62.154-56.631.002-31.914-26.975-57.785-60.229-57.785"/><path fill="#003893" d="M855.234 340.256c.02.01.041.01.07.01 41.076 3.91 73.203 38.709 73.203 80.398 0 40.938-30.869 74.723-70.889 79.596-13.873 1.699-24.621 13.059-24.621 27.309v58.121a2.216 2.216 0 0 1-2.223 2.223H173.172a2.225 2.225 0 0 1-2.227-2.223l-.047-254.127c0-14.041-11.385-25.44-25.432-25.44h-39.16c-.266 0-.521-.097-.711-.284a.979.979 0 0 1 0-1.403l211.398-218.99c.398-.387 1.033-.387 1.412 0l64.09 61.688c8.785 8.794 25.186 9.601 34.768 0 9.594-9.611 9.521-25.252-.07-34.837l-82.268-80.084c-9.609-9.588-25.16-9.588-34.773 0L28.693 313.775a25.52 25.52 0 0 0-5.871 16.31c0 14.041 11.871 25.005 25.43 25.005h71.416c1.219 0 2.211.994 2.211 2.223V611.51c0 14.057 11.385 25.441 25.441 25.441h709.357c14.035 0 25.42-11.385 25.42-25.441v-65.133c0-.676.43-1.193 1.035-1.367 54.098-15.455 93.678-65.271 93.678-124.346 0-50.709-29.189-94.573-71.678-115.768-.85-.435-1.709-.832-2.549-1.254a2.634 2.634 0 0 1-1.525-2.406c-.584-67.345-40.193-125.363-97.352-152.512-.891-.436-1.373-1.354-1.506-2.396-8.641-68.907-67.457-122.213-138.703-122.213-31.135 0-59.912 10.156-83.143 27.384-10.965 8.111-13.914 23.156-6.113 34.318 7.803 11.162 23.518 14.351 34.328 6.102 15.244-11.646 34.287-18.554 54.928-18.554 35.453 0 66.127 20.376 81.012 50.056 6.082 12.181 11.508 29.47 11.508 58.566 0 1.065.738 1.958 1.752 2.158 1.596.335 3.143.755 4.709 1.19 45.252 12.278 79.969 50.701 87.646 97.683 1.045 6.399 3.143 23.527 3.143 55.066.001 1.143.85 2.049 1.967 2.172"/><path fill="#003893" d="M347.811 505.26c0 32.609-26.383 59.033-58.992 59.033-22.779 0-40.08-8.99-53.436-23.291-4.08-4.361-6.385-10.367-6.385-16.816 0-13.857 11.232-25.088 25.088-25.088 5.463 0 12.297 2.703 15.783 4.561 1.785.957 10.684 7.043 14.332 7.043a4.95 4.95 0 0 0 4.967-4.949c0-3.543-4.863-6.635-7.086-7.75-25.201-12.604-48.354-29.742-48.354-61.096 0-31.344 22.523-56.047 58.09-56.047 19.135 0 35.92 8.621 47.92 21.684 3.633 3.951 5.768 9.174 5.768 14.957 0 12.256-9.939 22.186-22.195 22.186-8.404 0-19.605-6.93-20.613-7.479-2.955-1.623-4.203-3.127-7.131-3.127s-5.283 2.359-5.283 5.283c0 3.945 4.678 7.197 15.725 12.602 30.417 14.896 41.802 36.39 41.802 58.294M553.9 507.954c-19.615 0-35.496-15.889-35.496-35.5 0-19.596 15.881-35.48 35.496-35.48 19.586 0 35.484 15.885 35.484 35.48.001 19.611-15.898 35.5-35.484 35.5m.02-126.797c-49.766 0-90.104 40.891-90.104 91.297 0 50.428 40.338 91.297 90.104 91.297 49.768 0 90.115-40.869 90.115-91.297 0-50.407-40.347-91.297-90.115-91.297"/></svg>